<svg width="180" height="218" viewBox="0 0 180 218" fill="none" xmlns="http://www.w3.org/2000/svg">
<path d="M16.8008 206.523H15.7406C15.4706 206.529 15.2027 206.474 14.9571 206.361C14.7115 206.249 14.4947 206.082 14.3231 205.873C14.1515 205.664 14.0295 205.419 13.9664 205.156C13.9033 204.893 13.9007 204.619 13.9588 204.355L21.3088 166.259H24.5695L16.8008 206.523Z" fill="white"/>
<path d="M16.8013 206.969H15.7411C15.4098 206.968 15.0828 206.894 14.7832 206.753C14.4835 206.611 14.2186 206.406 14.007 206.15C13.7954 205.895 13.6424 205.596 13.5587 205.275C13.475 204.954 13.4628 204.619 13.5228 204.293L20.8638 166.197C20.8844 166.094 20.9401 166.001 21.0213 165.934C21.1025 165.868 21.2043 165.831 21.3093 165.831H24.57C24.6358 165.831 24.7007 165.846 24.7595 165.876C24.8183 165.905 24.8694 165.948 24.9085 166.001C24.9507 166.051 24.9813 166.11 24.9982 166.173C25.0152 166.236 25.018 166.302 25.0065 166.367L17.2378 206.648C17.2118 206.743 17.1546 206.826 17.0753 206.885C16.9961 206.943 16.8996 206.973 16.8013 206.969ZM21.6746 166.706L14.3959 204.444C14.3595 204.643 14.3668 204.847 14.4175 205.042C14.4681 205.237 14.5607 205.419 14.6889 205.574C14.8171 205.73 14.9777 205.856 15.1594 205.942C15.3412 206.029 15.5397 206.075 15.7411 206.077H16.436L24.0266 166.706H21.6746Z" fill="#35342E"/>
<path d="M42.9398 206.523H44.0356C44.301 206.528 44.5641 206.473 44.8058 206.363C45.0474 206.253 45.2614 206.09 45.4322 205.887C45.603 205.683 45.7262 205.444 45.7929 205.187C45.8595 204.929 45.8679 204.66 45.8174 204.399L38.4585 166.259H35.1711L42.9398 206.523Z" fill="white"/>
<path d="M44.0354 206.969H42.9396C42.8365 206.971 42.736 206.936 42.6561 206.871C42.5762 206.806 42.522 206.714 42.5031 206.612L34.7344 166.349C34.7229 166.284 34.7258 166.218 34.7427 166.155C34.7596 166.092 34.7903 166.033 34.8324 165.983C34.8716 165.93 34.9226 165.887 34.9814 165.858C35.0402 165.828 35.1052 165.813 35.1709 165.814H38.4316C38.5361 165.812 38.6375 165.848 38.7176 165.915C38.7977 165.982 38.8511 166.076 38.8682 166.179L46.2271 204.32C46.2916 204.644 46.2834 204.979 46.2032 205.3C46.123 205.621 45.9727 205.921 45.7631 206.177C45.5535 206.433 45.2898 206.639 44.9911 206.781C44.6924 206.922 44.366 206.996 44.0354 206.996V206.969ZM43.3049 206.077H44.0354C44.2323 206.077 44.4268 206.034 44.6053 205.95C44.7837 205.867 44.9419 205.746 45.0689 205.595C45.1945 205.443 45.2851 205.265 45.3343 205.074C45.3836 204.883 45.3903 204.683 45.354 204.489L38.1109 166.706H35.7589L43.3049 206.077Z" fill="#35342E"/>
<path d="M23.1331 84.4207C22.5985 86.8028 10.1169 187.02 10.1169 187.02H12.3709L28.4072 80.0491L23.1331 84.4207Z" fill="#35342E"/>
<path d="M12.3731 187.44H10.1191C10.0553 187.44 9.99224 187.426 9.93398 187.4C9.87572 187.374 9.82348 187.336 9.78052 187.288C9.73974 187.241 9.7092 187.186 9.69081 187.126C9.67241 187.066 9.66656 187.003 9.67362 186.94C10.1814 182.845 22.1463 86.7053 22.6987 84.341C22.7203 84.2433 22.7736 84.1555 22.8501 84.0912L28.0886 79.7017C28.1576 79.6417 28.2433 79.6044 28.3341 79.5949C28.425 79.5853 28.5165 79.6039 28.5965 79.6482C28.6744 79.6934 28.7373 79.7607 28.7769 79.8418C28.8166 79.9228 28.8313 80.0138 28.8192 80.1032L12.7829 187.074C12.7638 187.172 12.7134 187.26 12.6394 187.326C12.5654 187.392 12.4719 187.432 12.3731 187.44ZM10.5912 186.548H11.9543L27.7234 81.1203L23.5094 84.6889C22.761 89.2747 11.5712 178.991 10.6269 186.548H10.5912Z" fill="#35342E"/>
<path d="M44.4706 111.658L45.1834 177.134H46.9563L53.0055 106.448L44.4706 111.658Z" fill="#35342E"/>
<path d="M46.9578 177.581H45.176C45.1179 177.582 45.0602 177.572 45.0062 177.551C44.9522 177.529 44.903 177.497 44.8616 177.456C44.8201 177.416 44.7871 177.367 44.7646 177.313C44.7421 177.26 44.7305 177.202 44.7305 177.144L44.0178 111.668C44.0174 111.591 44.0368 111.515 44.0743 111.448C44.1118 111.38 44.166 111.324 44.2316 111.284L52.7665 106.074C52.8377 106.03 52.9193 106.008 53.0026 106.008C53.0859 106.008 53.1675 106.03 53.2387 106.074C53.3089 106.117 53.3655 106.18 53.4017 106.254C53.438 106.328 53.4525 106.411 53.4436 106.493L47.4033 177.206C47.3862 177.312 47.3318 177.408 47.2501 177.477C47.1683 177.545 47.0646 177.583 46.9578 177.581ZM45.6214 176.689H46.5124L52.4547 107.287L44.882 111.909L45.6214 176.689Z" fill="#35342E"/>
<path d="M166.713 53.775L176.913 193.043H178.829L170.935 41.8289L166.713 53.775Z" fill="#35342E"/>
<path d="M178.873 193.488H176.913C176.802 193.488 176.695 193.446 176.614 193.37C176.533 193.293 176.484 193.189 176.477 193.078L166.267 53.8011C166.25 53.7429 166.25 53.681 166.267 53.6227L170.49 41.6766C170.498 41.618 170.518 41.5616 170.548 41.5106C170.578 41.4596 170.617 41.415 170.665 41.3794C170.712 41.3438 170.765 41.3178 170.823 41.303C170.88 41.2881 170.939 41.2847 170.998 41.2929C171.056 41.3011 171.113 41.3208 171.164 41.3508C171.214 41.3808 171.259 41.4205 171.295 41.4677C171.33 41.515 171.356 41.5687 171.371 41.626C171.386 41.6833 171.389 41.7429 171.381 41.8015L179.274 193.015C179.278 193.075 179.27 193.135 179.25 193.192C179.23 193.249 179.199 193.301 179.159 193.345C179.083 193.425 178.982 193.476 178.873 193.488ZM177.377 192.596H178.41L170.606 44.0943L167.158 53.8368L177.377 192.596Z" fill="#35342E"/>
<path d="M143.994 121.365L145.357 201.33H147.477L148.368 108.991L143.994 121.365Z" fill="#35342E"/>
<path d="M147.479 201.777H145.358C145.242 201.774 145.132 201.728 145.049 201.647C144.966 201.565 144.917 201.456 144.913 201.34L143.55 121.374C143.541 121.321 143.541 121.267 143.55 121.214L147.924 108.848C147.934 108.79 147.955 108.734 147.987 108.683C148.019 108.633 148.06 108.589 148.108 108.555C148.156 108.521 148.211 108.496 148.269 108.483C148.327 108.47 148.387 108.468 148.445 108.478C148.504 108.488 148.56 108.509 148.61 108.541C148.66 108.573 148.704 108.614 148.738 108.662C148.772 108.711 148.797 108.766 148.81 108.824C148.823 108.881 148.825 108.941 148.815 109L147.924 201.34C147.924 201.398 147.912 201.455 147.89 201.509C147.867 201.563 147.835 201.611 147.793 201.652C147.752 201.693 147.702 201.725 147.648 201.746C147.594 201.767 147.537 201.778 147.479 201.777ZM145.804 200.885H147.042L147.933 111.668L144.476 121.481L145.804 200.885Z" fill="#35342E"/>
<path d="M42.6827 0.449463L0.444885 109.178L139.587 133.829L179.125 22.0489L42.6827 0.449463Z" fill="white"/>
<path d="M139.585 134.275H139.504L0.362693 109.616C0.298154 109.605 0.236938 109.579 0.18357 109.541C0.130203 109.503 0.0860548 109.454 0.0543986 109.396C0.0227424 109.339 0.00438831 109.275 0.00069496 109.209C-0.0029984 109.144 0.00806372 109.079 0.0330626 109.018L42.2709 0.289214C42.3078 0.194722 42.3752 0.115299 42.4624 0.0635698C42.5496 0.011841 42.6515 -0.00922621 42.752 0.00371834L179.194 21.6121C179.259 21.6227 179.32 21.6473 179.374 21.6844C179.428 21.7214 179.473 21.7698 179.506 21.8262C179.533 21.8851 179.546 21.9489 179.546 22.0135C179.546 22.0781 179.533 22.142 179.506 22.2009L140.003 133.981C139.972 134.067 139.915 134.142 139.84 134.194C139.765 134.247 139.676 134.275 139.585 134.275ZM1.05761 108.831L139.291 133.33L178.49 22.4061L42.9658 0.940497L1.05761 108.831Z" fill="#35342E"/>
<path d="M97.2843 92.2808H97.1863L37.4956 79.1927C37.434 79.1776 37.3761 79.1501 37.3255 79.1117C37.2749 79.0733 37.2328 79.025 37.2016 78.9696C37.1751 78.9107 37.1613 78.8469 37.1613 78.7823C37.1613 78.7177 37.1751 78.6538 37.2016 78.5949L59.5188 19.7117C59.5532 19.6135 59.6214 19.5308 59.7112 19.4785C59.8011 19.4262 59.9066 19.4076 60.0088 19.4262L110.006 27.884C110.071 27.8962 110.133 27.9225 110.187 27.961C110.241 27.9995 110.286 28.0494 110.318 28.107C110.349 28.1664 110.365 28.2321 110.365 28.2989C110.365 28.3656 110.349 28.4313 110.318 28.4907L108.323 33.4065L118.123 35.0927L120.555 29.5524C120.595 29.4619 120.664 29.3874 120.751 29.3405C120.838 29.2937 120.938 29.2772 121.036 29.2936L152.075 34.6466C152.14 34.6553 152.202 34.6793 152.256 34.7165C152.311 34.7536 152.355 34.8031 152.387 34.8608C152.413 34.9198 152.426 34.9836 152.426 35.0481C152.426 35.1126 152.413 35.1765 152.387 35.2355L139.335 70.5743C139.299 70.6732 139.229 70.7561 139.138 70.8084C139.046 70.8606 138.94 70.8788 138.836 70.8598L107.521 64.6146L97.6763 91.9953C97.6455 92.0757 97.592 92.1454 97.5225 92.1961C97.4529 92.2468 97.3702 92.2762 97.2843 92.2808ZM38.1549 78.4165L96.9547 91.3172L106.755 63.9455C106.791 63.8448 106.862 63.7605 106.956 63.7081C107.049 63.6557 107.158 63.6386 107.262 63.66L138.578 69.9052L151.389 35.3515L121.214 30.1769L118.791 35.7172C118.749 35.8084 118.678 35.8832 118.59 35.93C118.501 35.9768 118.399 35.993 118.301 35.976L107.61 34.1381C107.545 34.1259 107.483 34.0996 107.429 34.0611C107.376 34.0226 107.331 33.9727 107.298 33.9151C107.268 33.8557 107.252 33.79 107.252 33.7232C107.252 33.6565 107.268 33.5908 107.298 33.5314L109.294 28.6156L60.2048 20.3095L38.1549 78.4165Z" fill="#D1D3D4"/>
<path d="M134.329 125.077H134.248L11.5084 102.63C11.4433 102.622 11.3811 102.598 11.327 102.561C11.2728 102.523 11.2281 102.474 11.1966 102.416C11.1703 102.356 11.1568 102.29 11.1568 102.224C11.1568 102.158 11.1703 102.093 11.1966 102.033L47.5633 7.69461C47.6003 7.60012 47.6677 7.52069 47.7548 7.46897C47.842 7.41724 47.9439 7.39617 48.0444 7.40911L168.459 26.1447C168.524 26.1542 168.586 26.1774 168.642 26.2128C168.697 26.2481 168.744 26.2949 168.78 26.3499C168.806 26.4104 168.82 26.4757 168.82 26.5417C168.82 26.6077 168.806 26.673 168.78 26.7335L134.774 124.783C134.739 124.872 134.678 124.948 134.598 125.001C134.518 125.054 134.424 125.08 134.329 125.077ZM12.1766 101.881L134.035 124.185L167.8 26.9476L48.2583 8.3102L12.1766 101.881Z" fill="#D1D3D4"/>
<path d="M105.391 124.131L103.119 130.662L35.5884 118.832L37.7711 112.069L105.391 124.131Z" fill="white"/>
<path d="M103.148 131.108H103.067L35.5368 119.278C35.4743 119.268 35.4147 119.245 35.3623 119.209C35.3099 119.174 35.2661 119.127 35.2339 119.073C35.2024 119.018 35.1822 118.957 35.1746 118.894C35.1669 118.831 35.1719 118.768 35.1893 118.707L37.381 111.944C37.4121 111.841 37.4802 111.753 37.5723 111.697C37.6644 111.641 37.774 111.621 37.8799 111.641L105.473 123.676C105.536 123.686 105.597 123.711 105.649 123.748C105.702 123.785 105.745 123.834 105.776 123.89C105.804 123.947 105.819 124.01 105.819 124.073C105.819 124.137 105.804 124.199 105.776 124.256L103.54 130.814C103.511 130.896 103.459 130.969 103.389 131.021C103.319 131.074 103.235 131.104 103.148 131.108ZM36.1961 118.484L102.854 130.153L104.831 124.479L38.1115 112.578L36.1961 118.484Z" fill="#35342E"/>
<path d="M28.2382 167.393H31.4989V196.201C31.4989 196.634 31.3272 197.049 31.0214 197.356C30.7157 197.662 30.301 197.834 29.8686 197.834C29.4362 197.834 29.0215 197.662 28.7157 197.356C28.41 197.049 28.2382 196.634 28.2382 196.201V167.393Z" fill="white"/>
<path d="M29.8691 198.306C29.3193 198.304 28.7927 198.084 28.4039 197.694C28.0151 197.305 27.7957 196.778 27.7933 196.227V167.392C27.7933 167.274 27.8403 167.16 27.9238 167.077C28.0074 166.993 28.1206 166.946 28.2388 166.946H31.4995C31.6176 166.946 31.7309 166.993 31.8145 167.077C31.898 167.16 31.945 167.274 31.945 167.392V196.2C31.9485 196.476 31.8974 196.749 31.7947 197.004C31.692 197.259 31.5396 197.492 31.3465 197.688C31.1534 197.884 30.9234 198.039 30.6697 198.145C30.4161 198.251 30.144 198.306 29.8691 198.306ZM28.6842 167.865V196.227C28.6842 196.542 28.8091 196.844 29.0313 197.066C29.2535 197.289 29.5549 197.414 29.8691 197.414C30.1834 197.414 30.4848 197.289 30.707 197.066C30.9292 196.844 31.0541 196.542 31.0541 196.227V167.865H28.6842Z" fill="#35342E"/>
<path d="M41.3626 155.223C33.7993 153.511 25.9495 153.511 18.3862 155.223H7.58838V162.932C7.58838 167.883 17.5665 171.853 29.861 171.853C42.1555 171.853 52.1337 167.848 52.1337 162.932V155.259L41.3626 155.223Z" fill="#35342E"/>
<path d="M29.8705 172.3C17.1216 172.3 7.14349 168.169 7.14349 162.896V155.223C7.14349 155.105 7.19042 154.992 7.27396 154.908C7.3575 154.824 7.47081 154.777 7.58895 154.777H18.3333C25.9298 153.066 33.8112 153.066 41.4077 154.777H52.161C52.2791 154.777 52.3924 154.824 52.4759 154.908C52.5595 154.992 52.6064 155.105 52.6064 155.223V162.932C52.6064 168.169 42.6194 172.3 29.8705 172.3ZM8.0344 155.67V162.932C8.0344 167.553 18.0304 171.443 29.8705 171.443C41.7106 171.443 51.7155 167.553 51.7155 162.932V155.705H41.3632H41.2563C33.7625 154.016 25.9875 154.016 18.4936 155.705H18.3867L8.0344 155.67Z" fill="#35342E"/>
<path d="M29.8696 164.18C42.1803 164.18 52.1601 160.17 52.1601 155.223C52.1601 150.276 42.1803 146.265 29.8696 146.265C17.5589 146.265 7.57916 150.276 7.57916 155.223C7.57916 160.17 17.5589 164.18 29.8696 164.18Z" fill="white"/>
<path d="M29.8705 164.627C17.1216 164.627 7.14349 160.496 7.14349 155.224C7.14349 149.951 17.1216 145.811 29.8705 145.811C42.6194 145.811 52.6064 149.942 52.6064 155.224C52.6064 160.505 42.6194 164.627 29.8705 164.627ZM29.8705 146.703C18.0304 146.703 8.0344 150.602 8.0344 155.224C8.0344 159.845 18.0304 163.735 29.8705 163.735C41.7106 163.735 51.7155 159.836 51.7155 155.224C51.7155 150.611 41.675 146.703 29.8705 146.703Z" fill="#35342E"/>
<path d="M51.8918 188.438L45.8159 197.36C45.8159 197.36 56.9967 204.382 58.6271 204.801C60.2574 205.22 74.9752 205.051 74.2981 203.543C73.621 202.035 59.8387 196.736 59.8387 196.736L59.42 193.078L51.8918 188.438Z" fill="#35342E"/>
<path d="M63.0572 205.381C61.5343 205.421 60.0104 205.358 58.4958 205.194C56.8476 204.774 46.718 198.422 45.5687 197.708C45.5166 197.676 45.4721 197.634 45.4382 197.583C45.4044 197.532 45.382 197.474 45.3727 197.414C45.3483 197.297 45.3707 197.175 45.4351 197.075L51.5111 188.153C51.5747 188.059 51.672 187.992 51.783 187.967C51.894 187.943 52.0102 187.961 52.108 188.019L59.6361 192.623C59.6938 192.659 59.7428 192.707 59.7797 192.764C59.8167 192.821 59.8406 192.886 59.85 192.953L60.2331 196.343C63.7967 197.708 74.0243 201.777 74.6924 203.293C74.7484 203.413 74.7673 203.546 74.7466 203.677C74.726 203.807 74.6668 203.928 74.5766 204.025C73.7481 205.078 67.5117 205.381 63.0572 205.381ZM46.4329 197.191C49.7827 199.287 57.4891 204.016 58.7185 204.328C60.3578 204.748 72.2781 204.498 73.7926 203.57C72.9017 202.571 66.0328 199.564 59.6629 197.119C59.5875 197.089 59.5214 197.039 59.4714 196.975C59.4213 196.911 59.389 196.834 59.3778 196.754L58.9858 193.31L52.01 189.036L46.4329 197.191Z" fill="#35342E"/>
<path d="M65.3548 187.261C65.1855 187.52 59.4213 193.042 59.4213 193.042L51.8932 188.439L56.8199 180.061L65.3548 187.261Z" fill="white"/>
<path d="M59.4223 193.488C59.3407 193.49 59.2604 193.468 59.1907 193.426L51.6625 188.804C51.5629 188.743 51.4912 188.646 51.4629 188.532C51.4346 188.419 51.4519 188.299 51.5111 188.198L56.4467 179.829C56.4783 179.772 56.5229 179.722 56.5771 179.685C56.6313 179.648 56.6934 179.624 56.7585 179.615C56.8215 179.604 56.886 179.608 56.9476 179.625C57.0092 179.641 57.0663 179.672 57.1149 179.713L65.6408 186.913C65.7255 186.983 65.7814 187.082 65.7979 187.19C65.8143 187.299 65.7901 187.41 65.7299 187.502C65.5607 187.761 61.899 191.276 59.7252 193.355C59.6457 193.437 59.5369 193.485 59.4223 193.488ZM52.5 188.287L59.36 192.48C61.2576 190.696 63.8145 188.18 64.7054 187.297L56.9456 180.775L52.5 188.287Z" fill="#35342E"/>
<path d="M85.1873 207.023L85.6862 216.569L113.946 211.796C113.946 211.796 106.507 206.693 94.4705 205.435L85.1873 207.023Z" fill="#35342E"/>
<path d="M85.6848 217.015C85.5844 217.014 85.4873 216.979 85.4086 216.917C85.3603 216.877 85.3204 216.829 85.2913 216.773C85.2622 216.718 85.2445 216.658 85.2394 216.596L84.7404 207.049C84.7344 206.941 84.7681 206.834 84.8354 206.748C84.9027 206.663 84.9988 206.605 85.1057 206.585L94.389 204.997H94.5137C106.523 206.255 114.114 211.385 114.203 211.439C114.276 211.489 114.332 211.56 114.364 211.643C114.396 211.726 114.402 211.816 114.381 211.903C114.363 211.99 114.319 212.069 114.256 212.131C114.192 212.193 114.112 212.235 114.025 212.251L85.7561 217.024L85.6848 217.015ZM85.6848 207.397L86.1392 216.051L112.733 211.59C107.106 208.484 100.907 206.554 94.5137 205.916L85.6848 207.397Z" fill="#35342E"/>
<path d="M84.6779 199.154C84.6779 199.404 85.1857 207.023 85.1857 207.023L94.4689 205.435L94.8876 197.816L84.6779 199.154Z" fill="white"/>
<path d="M85.1862 207.469C85.0867 207.471 84.9895 207.44 84.91 207.38C84.8617 207.34 84.8218 207.292 84.7927 207.236C84.7636 207.181 84.7459 207.121 84.7407 207.059C84.6516 205.783 84.2329 199.404 84.2329 199.154C84.2343 199.046 84.2748 198.942 84.3469 198.862C84.419 198.781 84.5178 198.73 84.6249 198.717L94.8258 197.37C94.8901 197.361 94.9556 197.366 95.0173 197.386C95.0791 197.407 95.1354 197.44 95.1821 197.486C95.231 197.531 95.2691 197.586 95.2938 197.648C95.3184 197.71 95.329 197.776 95.3247 197.842L94.906 205.462C94.9012 205.562 94.8623 205.657 94.7958 205.731C94.7293 205.806 94.6393 205.856 94.5407 205.872L85.2574 207.469H85.1862ZM85.1862 199.547C85.2485 200.68 85.4624 204.007 85.6316 206.505L94.0774 205.051L94.4427 198.324L85.1862 199.547Z" fill="#35342E"/>
<path d="M48.9789 130.992C48.9789 130.992 90.7892 125.639 94.9675 135.185C99.1458 144.731 63.9462 191.106 63.9462 191.106L52.7029 182.64L67.8483 150.593C67.8483 150.593 32.5863 155.794 30.0917 147.577C27.5972 139.36 48.4889 132.5 48.4889 132.5L48.9789 130.992Z" fill="#35342E"/>
<path d="M63.946 191.552C63.8495 191.553 63.7555 191.521 63.6787 191.463L52.4355 182.996C52.3522 182.934 52.2927 182.845 52.2668 182.745C52.2408 182.644 52.2501 182.538 52.293 182.443L67.1176 151.146C61.6386 151.895 32.0605 155.607 29.6551 147.702C27.1605 139.539 45.7715 132.946 48.1235 132.152L48.5601 130.858C48.5842 130.777 48.6318 130.705 48.6968 130.651C48.7619 130.597 48.8414 130.563 48.9254 130.555C50.6448 130.331 91.1097 125.264 95.3772 135.015C99.6446 144.767 65.7278 189.473 64.3024 191.383C64.2587 191.435 64.2042 191.477 64.1427 191.506C64.0812 191.536 64.0141 191.551 63.946 191.552ZM53.2552 182.497L63.8569 190.482C65.3982 188.438 73.2738 177.875 80.6505 166.482C94.2368 145.507 95.7068 137.951 94.5575 135.363C92.9272 131.634 84.5794 129.76 70.414 129.957C60.614 130.091 51.0457 131.197 49.3084 131.402L48.8986 132.642C48.8762 132.709 48.8389 132.769 48.7894 132.818C48.74 132.868 48.6798 132.905 48.6135 132.928C48.4086 132.99 28.1227 139.753 30.5103 147.443C32.4703 153.876 58.1284 151.574 67.8125 150.12C67.8918 150.11 67.9723 150.121 68.0458 150.153C68.1193 150.184 68.1833 150.234 68.2313 150.298C68.2799 150.363 68.3098 150.439 68.3177 150.519C68.3255 150.6 68.3111 150.681 68.2758 150.753L53.2552 182.497Z" fill="#35342E"/>
<path d="M17.9582 136.943C17.9582 137.942 13.4413 150.754 24.7291 157.035C36.0169 163.315 81.9252 160.808 81.9252 160.808L82.8162 201.331L95.4759 200.492C95.4759 200.492 102.666 161.139 96.8123 151.423C90.959 141.707 37.2731 133.49 37.2731 133.49L17.9582 136.943Z" fill="#35342E"/>
<path d="M82.8059 201.777C82.7478 201.778 82.6901 201.768 82.6361 201.746C82.5821 201.725 82.5329 201.693 82.4914 201.652C82.4499 201.611 82.417 201.563 82.3945 201.509C82.372 201.456 82.3604 201.398 82.3604 201.34L81.4695 161.273C76.3646 161.54 35.2939 163.432 24.4961 157.427C17.6896 153.644 15.2841 146.989 17.3688 137.657C17.4291 137.422 17.4767 137.183 17.5114 136.943C17.5134 136.839 17.5508 136.74 17.6172 136.66C17.6836 136.581 17.7751 136.526 17.8766 136.506L37.2182 133.071H37.3697C39.5613 133.401 91.3229 141.413 97.2118 151.2C103.101 160.987 96.2318 198.958 95.9289 200.573C95.913 200.67 95.8648 200.759 95.7921 200.825C95.7193 200.892 95.6262 200.932 95.528 200.938L82.8593 201.777H82.8059ZM81.9149 160.363C82.0269 160.362 82.135 160.403 82.2178 160.478C82.3056 160.563 82.3568 160.678 82.3604 160.8L83.2513 200.858L95.1004 200.073C95.7864 196.192 101.845 160.639 96.4367 151.655C90.8507 142.394 39.5435 134.311 37.2895 133.963L18.3577 137.327L18.2508 137.844C16.273 146.766 18.5359 153.073 24.9593 156.651C35.9977 162.789 81.4517 160.38 81.906 160.363H81.9149Z" fill="#35342E"/>
<path d="M59.0832 62.5538C57.6666 62.5538 56.4728 61.0193 56.4105 59.0833C56.3626 58.2084 56.5833 57.3397 57.043 56.5942C57.2337 56.2612 57.5033 55.9805 57.8281 55.7766C58.1528 55.5728 58.5227 55.4522 58.905 55.4254C60.3572 55.3719 61.5777 56.9243 61.6668 58.887C61.7559 60.8498 60.6245 62.4557 59.1723 62.5538H59.0832ZM58.9585 56.3087C58.7181 56.3301 58.487 56.4116 58.2862 56.5457C58.0855 56.6797 57.9214 56.862 57.8092 57.0759C57.448 57.6641 57.2769 58.3495 57.3192 59.0387C57.3727 60.4929 58.2101 61.7152 59.1545 61.6528C60.0988 61.5903 60.8472 60.3591 60.7937 58.9138C60.7046 57.4953 59.885 56.3087 58.9585 56.3087Z" fill="#35342E"/>
<path d="M42.9129 75.347C41.1667 75.8267 39.3273 75.8543 37.5675 75.4273C36.5073 75.1865 35.2244 74.3657 35.5808 73.3307L36.9528 72.6884C33.929 69.804 31.7981 66.1091 30.8144 62.0448C30.3415 60.0148 30.3043 57.9074 30.7051 55.8619C31.1059 53.8164 31.9358 51.8794 33.1397 50.179C33.6923 49.3555 34.4104 48.6565 35.2479 48.1265C36.0855 47.5966 37.0241 47.2473 38.004 47.101L34.6721 46.8333C36.1562 45.2432 37.975 44.0036 39.9966 43.2043C42.0183 42.405 44.1921 42.066 46.3607 42.2119L44.1602 40.8469C46.5701 40.0344 49.1675 39.9621 51.6187 40.6394C54.0699 41.3167 56.2629 42.7125 57.9158 44.6475C58.6494 45.4404 59.1302 46.4344 59.2967 47.5024C59.4749 49.2868 57.8178 50.4466 56.5616 51.4458C57.9069 53.0874 58.5394 53.48 58.3434 55.6033C58.049 57.5723 57.4128 59.4746 56.4636 61.224C55.4222 63.0464 54.2459 64.788 52.9445 66.4343C50.1382 70.333 47.1091 74.1605 42.9129 75.347Z" fill="white"/>
<path d="M40.1588 76.1768C39.2586 76.1709 38.362 76.0632 37.4861 75.8556C36.5999 75.6841 35.8145 75.1757 35.2944 74.4371C35.1862 74.2496 35.1198 74.0409 35.0998 73.8253C35.0798 73.6096 35.1067 73.3922 35.1786 73.188C35.198 73.1316 35.2285 73.0796 35.2683 73.0351C35.308 72.9907 35.3563 72.9547 35.4103 72.9293L36.2121 72.5546C33.3324 69.6858 31.3058 66.0718 30.3588 62.1162C29.8754 60.0272 29.8398 57.8592 30.2545 55.7554C30.6691 53.6516 31.5245 51.6598 32.7643 49.9113C33.5324 48.8698 34.5096 48.0007 35.633 47.3597L34.6084 47.2794C34.5247 47.2712 34.4448 47.2402 34.3773 47.1899C34.3098 47.1396 34.2573 47.0719 34.2253 46.9939C34.1953 46.916 34.1878 46.8312 34.2035 46.7492C34.2193 46.6672 34.2577 46.5912 34.3144 46.53C37.0315 43.6371 40.7674 41.9186 44.7291 41.7391L43.8917 41.2216C43.8214 41.1782 43.7649 41.1158 43.7286 41.0416C43.6924 40.9674 43.6779 40.8844 43.6868 40.8023C43.6954 40.7184 43.7276 40.6386 43.7796 40.5723C43.8316 40.506 43.9014 40.4558 43.9808 40.4276C46.4783 39.5914 49.1679 39.5191 51.7067 40.2198C54.2454 40.9205 56.5182 42.3626 58.2353 44.362C59.0251 45.2234 59.5401 46.3014 59.7142 47.4579C59.9013 49.3493 58.3956 50.5448 57.1662 51.5172L57.3533 51.7403C58.3867 52.9447 58.948 53.6138 58.752 55.639C58.4484 57.6726 57.7943 59.6378 56.8187 61.4471C56.0208 62.9047 55.1061 64.2951 54.0836 65.6046L53.264 66.7109C50.4398 70.6275 47.3217 74.553 42.9919 75.7753C42.0709 76.0413 41.1173 76.1764 40.1588 76.1768ZM35.9537 73.643C35.9448 73.7673 35.9727 73.8914 36.0339 73.9999C36.4277 74.5216 37.0035 74.8753 37.6464 74.9902C39.3375 75.4103 41.1082 75.3857 42.787 74.9188C46.8406 73.7679 49.8429 69.9762 52.5869 66.1934L53.4155 65.0693C54.4134 63.8025 55.3072 62.4569 56.0882 61.0456C56.9908 59.3321 57.5935 57.4762 57.87 55.5588C58.0303 53.8993 57.6562 53.4711 56.6762 52.3202L56.1862 51.7313C56.1469 51.6867 56.1178 51.6341 56.1009 51.5771C56.084 51.5201 56.0796 51.4601 56.0882 51.4012C56.1009 51.2833 56.1583 51.1748 56.2485 51.0979L56.5782 50.8392C57.7542 49.947 58.9658 48.9656 58.8233 47.5471C58.6653 46.569 58.2221 45.6595 57.5493 44.933C56.0597 43.2024 54.1217 41.9174 51.9491 41.22C49.7764 40.5226 47.4536 40.4397 45.2369 40.9807L46.6089 41.8729C46.6923 41.9268 46.7557 42.0066 46.7895 42.1001C46.8232 42.1935 46.8256 42.2955 46.796 42.3903C46.7646 42.4842 46.703 42.565 46.6207 42.6199C46.5384 42.6748 46.4403 42.7008 46.3417 42.6937C44.3953 42.5659 42.4433 42.8371 40.6051 43.4906C38.7669 44.1441 37.0811 45.1661 35.6508 46.4943L38.0295 46.6906C38.1422 46.6975 38.2478 46.7478 38.3242 46.831C38.4006 46.9141 38.4418 47.0237 38.4393 47.1367C38.4418 47.2473 38.4015 47.3546 38.3268 47.4361C38.252 47.5176 38.1487 47.567 38.0384 47.5738C35.8557 47.7612 34.2521 49.4742 33.4859 50.4823C32.3205 52.131 31.5177 54.0086 31.1307 55.991C30.7437 57.9734 30.7812 60.0156 31.2408 61.9824C32.1984 65.9488 34.2733 69.5564 37.2188 72.3761C37.2701 72.4267 37.3084 72.4889 37.3305 72.5576C37.3525 72.6262 37.3577 72.6991 37.3454 72.7702C37.3331 72.8412 37.3039 72.9082 37.2601 72.9655C37.2163 73.0227 37.1594 73.0684 37.0941 73.0988L35.9537 73.643Z" fill="#35342E"/>
<path d="M58.1906 61.9476C58.1906 61.9476 61.7543 67.0152 61.0861 68.1125C60.4179 69.2099 58.0481 68.5586 58.0481 68.5586" fill="white"/>
<path d="M59.4918 69.2C58.9746 69.1944 58.46 69.1255 57.9594 68.9948C57.8413 68.964 57.7402 68.8875 57.6784 68.7821C57.6166 68.6767 57.5991 68.551 57.6298 68.4327C57.6605 68.3144 57.7369 68.2132 57.8422 68.1513C57.9474 68.0894 58.0729 68.0719 58.1911 68.1026C58.7167 68.2454 60.3292 68.5041 60.7391 67.8439C61.0063 67.38 59.6611 64.7302 57.8614 62.1697C57.818 62.1231 57.785 62.0677 57.7647 62.0073C57.7444 61.9468 57.7373 61.8827 57.7438 61.8193C57.7504 61.7558 57.7704 61.6945 57.8027 61.6395C57.8349 61.5845 57.8785 61.537 57.9306 61.5003C57.9826 61.4636 58.042 61.4385 58.1046 61.4268C58.1672 61.415 58.2315 61.4168 58.2934 61.432C58.3552 61.4472 58.4131 61.4756 58.463 61.5151C58.513 61.5546 58.5539 61.6045 58.5831 61.6612C59.7056 63.2582 62.2447 67.1034 61.4963 68.3168C61.2659 68.6238 60.9605 68.8663 60.6094 69.0209C60.2584 69.1756 59.8735 69.2373 59.4918 69.2Z" fill="#35342E"/>
<path d="M56.8177 50.5895C59.045 52.3024 58.9915 60.6174 59.045 63.0798C59.1281 66.5117 59.1281 69.9495 59.045 73.3933C58.9915 75.5702 53.361 75.7843 52.3454 75.1776L51.2674 83.9923C51.2674 83.9923 50.8041 84.5722 46.1981 82.6094C41.5921 80.6466 41.5209 79.5582 41.5209 79.5582L41.5921 69.6194C41.5921 69.6194 45.3161 69.5302 47.383 65.0248C49.4499 60.5193 49.1648 53.7031 49.1648 53.7031C49.1648 53.7031 54.6172 48.9122 56.8177 50.5895Z" fill="white"/>
<path d="M50.8598 84.4831C49.1666 84.2621 47.5224 83.7585 45.9954 82.9932C41.4874 81.0572 41.0687 79.8795 41.0509 79.5672L41.1222 69.5839C41.1222 69.4679 41.1682 69.3567 41.25 69.2747C41.3319 69.1927 41.4429 69.1467 41.5587 69.1467C41.7013 69.1467 45.0332 68.995 46.9576 64.8107C48.9532 60.457 48.686 53.7657 48.686 53.6943C48.6834 53.6273 48.6957 53.5606 48.7218 53.4989C48.748 53.4372 48.7875 53.3821 48.8374 53.3375C49.4254 52.8289 54.6729 48.3948 57.0605 50.2327C59.0294 51.7405 59.3768 57.2273 59.457 62.393V63.0086C59.5372 66.4434 59.5372 69.9229 59.457 73.3488C59.4294 73.7189 59.2999 74.0741 59.0829 74.3749C58.8658 74.6757 58.5698 74.9104 58.2276 75.0528C56.4854 75.8137 54.5579 76.0433 52.6861 75.7131L51.6705 83.9924C51.6622 84.0736 51.6313 84.1509 51.5814 84.2154C51.4887 84.3112 51.3758 84.385 51.2509 84.4313C51.1261 84.4776 50.9924 84.4953 50.8598 84.4831ZM41.9507 79.4691C42.0309 79.6297 42.6545 80.5843 46.3607 82.1456C49.2918 83.3946 50.45 83.5731 50.8152 83.5731L51.8576 75.0707C51.865 74.997 51.8909 74.9265 51.933 74.8656C51.9751 74.8048 52.0319 74.7556 52.0981 74.7227C52.1631 74.6852 52.2369 74.6654 52.312 74.6654C52.387 74.6654 52.4608 74.6852 52.5258 74.7227C54.2817 75.1433 56.1267 74.9804 57.7821 74.2588C58.281 73.9912 58.5394 73.67 58.5483 73.3131C58.6285 69.905 58.6285 66.4434 58.5483 63.0264V62.3573C58.5037 59.6183 58.3879 52.3471 56.5081 50.8929C55.0203 49.7598 51.0647 52.5791 49.568 53.8281C49.568 55.0593 49.6481 60.9655 47.7861 65.1408C46.0043 68.9772 43.1356 69.7801 42.0398 69.9496L41.9507 79.4691Z" fill="#35342E"/>
<path d="M58.8597 70.8153C58.8597 70.8153 57.5234 71.2346 54.1914 68.3796L58.8597 70.8153Z" fill="white"/>
<path d="M58.6019 71.2887C57.9515 71.2887 56.4726 70.9496 53.8801 68.7192C53.7903 68.6423 53.7347 68.5328 53.7255 68.4149C53.7163 68.2969 53.7543 68.1801 53.8311 68.0902C53.9078 68.0003 54.0172 67.9446 54.135 67.9354C54.2527 67.9262 54.3694 67.9643 54.4591 68.0412C57.4526 70.6106 58.7088 70.3876 58.7177 70.3786C58.8307 70.356 58.9481 70.3763 59.047 70.4357C59.1458 70.4951 59.219 70.5893 59.2522 70.6998C59.2831 70.8087 59.2707 70.9252 59.2175 71.0251C59.1643 71.1249 59.0746 71.2002 58.9671 71.2351C58.8488 71.2717 58.7256 71.2897 58.6019 71.2887Z" fill="#35342E"/>
<path d="M52.3652 75.1509C52.3652 75.1509 49.4164 74.3301 47.9998 72.3673C47.9998 72.3673 46.4407 78.9158 51.7238 80.3968L52.3652 75.1509Z" fill="#35342E"/>
<path d="M51.6802 80.8524H51.5644C45.9339 79.3 47.5019 72.3768 47.5197 72.3054C47.5333 72.2079 47.5794 72.1178 47.6506 72.0498C47.7217 71.9818 47.8137 71.9398 47.9117 71.9307C47.9943 71.9102 48.0812 71.9155 48.1608 71.9458C48.2404 71.9761 48.3089 72.03 48.3571 72.1002C49.4557 73.3511 50.8909 74.2586 52.4909 74.7143C52.5936 74.745 52.6821 74.8112 52.7408 74.901C52.7995 74.9907 52.8246 75.0984 52.8117 75.205L52.1702 80.4331C52.1611 80.4959 52.139 80.5562 52.1052 80.61C52.0715 80.6638 52.0268 80.7099 51.9742 80.7453C51.8942 80.8185 51.7885 80.857 51.6802 80.8524ZM48.2413 73.4028C48.0542 75.0801 48.072 78.6041 51.306 79.8175L51.8317 75.4994C50.5006 75.0447 49.2781 74.3187 48.2413 73.3671V73.4028Z" fill="#35342E"/>
<path d="M56.7742 58.2679C56.7823 57.588 56.5736 57.0342 56.3079 57.031C56.0422 57.0278 55.8202 57.5764 55.812 58.2563C55.8039 58.9362 56.0126 59.49 56.2783 59.4932C56.544 59.4964 56.766 58.9478 56.7742 58.2679Z" fill="#35342E"/>
<path d="M48.1856 62.625C48.1271 62.6327 48.0677 62.6287 48.0107 62.6133C47.9538 62.5979 47.9004 62.5714 47.8536 62.5354C47.7592 62.4626 47.6976 62.3553 47.6822 62.237C47.6669 62.1186 47.6991 61.9991 47.7717 61.9045C47.8444 61.81 47.9516 61.7483 48.0698 61.7329L61.0948 58.4586C61.2094 58.4318 61.3299 58.4514 61.4301 58.5133C61.5302 58.5751 61.6018 58.6742 61.6293 58.7887C61.644 58.845 61.6473 58.9036 61.639 58.9611C61.6307 59.0187 61.6111 59.074 61.5812 59.1238C61.5514 59.1737 61.5119 59.217 61.4651 59.2514C61.4183 59.2858 61.3651 59.3105 61.3086 59.324L48.2925 62.5983L48.1856 62.625Z" fill="#35342E"/>
<path d="M51.6798 64.3471C51.5619 63.4887 51.2036 62.6814 50.6464 62.0185C50.298 61.4481 49.8655 60.9338 49.3635 60.4929C49.1091 60.2741 48.8091 60.1149 48.4854 60.0269C48.1618 59.939 47.8226 59.9244 47.4926 59.9844C47.208 60.0643 46.9438 60.2044 46.7179 60.3952C46.492 60.5861 46.3096 60.8232 46.1829 61.0907C45.9272 61.6252 45.7962 62.2109 45.7999 62.8036C45.7776 64.096 46.0951 65.3715 46.7206 66.5021C47.3461 67.6327 48.2576 68.5787 49.3635 69.2451L49.1675 69.0488" fill="white"/>
<path d="M49.3902 69.6912C49.3115 69.6917 49.2344 69.6701 49.1674 69.6288C47.9916 68.9219 47.021 67.9192 46.352 66.7203C45.6831 65.5214 45.3391 64.168 45.3544 62.7947C45.3488 62.1339 45.4951 61.4807 45.782 60.8855C45.9398 60.5601 46.1654 60.2723 46.4435 60.0414C46.7216 59.8106 47.0459 59.6421 47.3945 59.5472C47.7882 59.4727 48.1935 59.4877 48.5806 59.5912C48.9676 59.6946 49.3265 59.8839 49.6307 60.145C50.1747 60.608 50.6435 61.1527 51.0205 61.7598C51.6219 62.4923 52.0048 63.3798 52.1252 64.3204C52.1301 64.4396 52.088 64.556 52.008 64.6444C51.928 64.7328 51.8166 64.7863 51.6976 64.7932C51.6391 64.7956 51.5807 64.7864 51.5257 64.7662C51.4708 64.7459 51.4203 64.715 51.3773 64.6753C51.3343 64.6355 51.2995 64.5876 51.275 64.5344C51.2504 64.4811 51.2366 64.4236 51.2343 64.365C51.1054 63.5946 50.7767 62.8716 50.2811 62.2684C49.9544 61.7371 49.5522 61.2562 49.0873 60.8409C48.8866 60.6636 48.6487 60.5339 48.3911 60.4613C48.1336 60.3887 47.863 60.3751 47.5994 60.4216C47.3739 60.4862 47.1653 60.5996 46.9882 60.7537C46.8112 60.9079 46.6701 61.099 46.5749 61.3137C46.3511 61.7907 46.2384 62.3124 46.2453 62.8393C46.2349 63.9716 46.4995 65.0894 47.0163 66.0966C47.5331 67.1037 48.2866 67.9699 49.212 68.6206C49.269 68.6206 49.3254 68.6325 49.3775 68.6555C49.4297 68.6786 49.4765 68.7123 49.5149 68.7544L49.7109 68.9507C49.7799 69.0315 49.8178 69.1343 49.8178 69.2407C49.8178 69.347 49.7799 69.4498 49.7109 69.5306C49.6711 69.5778 49.6222 69.6163 49.567 69.6439C49.5119 69.6716 49.4517 69.6876 49.3902 69.6912Z" fill="#35342E"/>
<path d="M107.664 75.9001C106.539 76.0638 105.428 76.3144 104.341 76.6496C103.904 76.9351 103.12 77.4971 103.12 77.4971C103.469 77.6943 103.854 77.8187 104.252 77.8629C104.662 77.8629 107.005 77.4079 107.005 77.4079" fill="white"/>
<path d="M104.206 78.3092C103.749 78.2614 103.307 78.1219 102.905 77.8988C102.84 77.8613 102.785 77.8084 102.744 77.7446C102.704 77.6809 102.68 77.6082 102.674 77.533C102.669 77.457 102.683 77.3811 102.716 77.3123C102.749 77.2436 102.799 77.1845 102.861 77.1405C102.861 77.1405 103.654 76.5695 104.099 76.2483C105.238 75.8801 106.411 75.629 107.6 75.4989C107.717 75.4806 107.836 75.5086 107.933 75.5769C108.029 75.6452 108.095 75.7484 108.117 75.8647C108.126 75.9227 108.123 75.9818 108.109 76.0388C108.095 76.0958 108.07 76.1494 108.035 76.1967C108.001 76.2439 107.957 76.2838 107.907 76.3141C107.856 76.3444 107.801 76.3645 107.743 76.3732C106.674 76.5167 105.619 76.7495 104.589 77.0691C104.438 77.1672 104.242 77.2921 104.055 77.426H104.233C104.509 77.426 106.015 77.1405 106.905 76.9799C106.964 76.9699 107.024 76.9716 107.082 76.9848C107.14 76.998 107.194 77.0225 107.243 77.0569C107.291 77.0913 107.332 77.1349 107.364 77.1852C107.395 77.2355 107.417 77.2915 107.427 77.3501C107.437 77.4087 107.435 77.4687 107.422 77.5266C107.408 77.5845 107.384 77.6393 107.35 77.6878C107.315 77.7362 107.272 77.7774 107.222 77.8091C107.171 77.8407 107.115 77.8621 107.057 77.872C106.816 77.9166 104.678 78.3003 104.259 78.327L104.206 78.3092Z" fill="#35342E"/>
<path d="M102.978 84.9469L106.257 81.3782C106.211 79.9675 106.337 78.5564 106.631 77.1761C107.067 75.9181 107.949 74.4104 108.413 74.7226C108.876 75.0349 108.413 77.7381 109.17 78.1129C109.927 78.4876 111.299 77.301 111.299 76.4802C111.299 75.6594 109.918 74.6959 110.105 74.0356C110.292 73.3754 110.613 72.4654 112.119 73.2773C113.624 74.0892 115.682 75.5969 115.629 77.8363C115.576 80.0756 108.894 90.0233 108.894 90.0233L102.978 84.9469Z" fill="white"/>
<path d="M108.866 90.5145C108.758 90.5141 108.654 90.4762 108.572 90.4075L102.683 85.3132C102.637 85.275 102.599 85.2274 102.573 85.1735C102.547 85.1196 102.533 85.0608 102.531 85.0009C102.528 84.941 102.536 84.8809 102.556 84.8243C102.576 84.7676 102.607 84.7155 102.647 84.6708L105.81 81.2895C105.761 79.8832 105.896 78.4765 106.211 77.1052C106.505 76.2131 107.271 74.5982 108.037 74.3484C108.139 74.3151 108.246 74.3067 108.352 74.3237C108.457 74.3408 108.557 74.3829 108.643 74.4466C109.008 74.7053 109.035 75.2763 109.079 76.1506C109.079 76.5967 109.142 77.6584 109.338 77.8011C109.453 77.8224 109.572 77.8183 109.686 77.789C109.8 77.7597 109.906 77.706 109.997 77.6316C110.202 77.5202 110.381 77.3676 110.523 77.1833C110.666 76.999 110.769 76.7871 110.826 76.561C110.725 76.2031 110.538 75.8753 110.282 75.6064C109.899 75.0979 109.498 74.5625 109.65 74.0005C109.687 73.7279 109.787 73.4677 109.942 73.2402C110.096 73.0126 110.301 72.824 110.54 72.689C110.838 72.5911 111.155 72.5651 111.465 72.6132C111.774 72.6613 112.068 72.782 112.322 72.9656C114.826 74.3306 116.126 76.0436 116.073 77.926C116.011 80.2189 109.952 89.3279 109.266 90.3539C109.231 90.4066 109.185 90.4513 109.131 90.4851C109.078 90.519 109.017 90.5411 108.955 90.5502L108.866 90.5145ZM103.618 84.9117L108.777 89.3726C111.449 85.3935 115.111 79.3267 115.155 77.8368C115.209 75.9097 113.374 74.5179 111.877 73.6882C111.28 73.367 110.986 73.3938 110.897 73.4473C110.808 73.5009 110.603 73.8399 110.514 74.17C110.469 74.3127 110.799 74.7499 110.995 75.0086C111.387 75.4164 111.639 75.938 111.716 76.4986C111.656 76.872 111.512 77.2268 111.294 77.536C111.077 77.8452 110.791 78.1006 110.46 78.2829C110.246 78.4468 109.993 78.5519 109.726 78.5879C109.459 78.6239 109.187 78.5895 108.937 78.4881C108.278 78.158 108.233 77.1052 108.189 76.0792C108.189 75.8294 108.188 75.4815 108.126 75.2495C107.656 75.8658 107.292 76.5563 107.048 77.2926C106.775 78.6245 106.658 79.9839 106.701 81.343C106.701 81.4594 106.657 81.5715 106.576 81.6553L103.618 84.9117Z" fill="#35342E"/>
<path d="M57.4886 86.9721C57.6668 86.9721 60.1614 78.5232 60.4375 77.7916C60.8967 76.342 61.55 74.9614 62.3797 73.6877C62.754 73.1297 63.2431 72.6582 63.8141 72.3048C63.8677 72.2669 63.9293 72.2416 63.994 72.2308C64.0588 72.2199 64.1252 72.2239 64.1883 72.2424C64.2316 72.2686 64.269 72.3035 64.2982 72.345C64.3273 72.3864 64.3475 72.4335 64.3575 72.4832C64.4228 72.6769 64.4486 72.8818 64.4333 73.0856C64.418 73.2894 64.3619 73.4881 64.2684 73.6698C64.6515 72.9561 65.0346 71.5732 66.1393 71.7071C67.449 71.8676 67.1193 73.3843 66.6472 74.1248C66.6472 74.1248 67.7073 71.9301 68.7141 72.6706C68.8497 72.7558 68.9662 72.8682 69.0562 73.0008C69.1462 73.1334 69.2078 73.2832 69.2371 73.4408C69.2664 73.5984 69.2628 73.7604 69.2264 73.9165C69.1901 74.0726 69.1218 74.2195 69.0259 74.3479C69.0259 74.3479 69.7208 72.6528 70.7186 73.4557C71.7164 74.2587 71.1551 75.4631 70.7186 76.275C70.2821 77.0868 66.8343 81.4317 66.8343 81.4317C66.8343 81.4317 69.9079 78.8533 70.5315 79.4778C71.1551 80.1024 65.881 85.723 64.5981 88.5244L57.4886 86.9721Z" fill="white"/>
<path d="M64.5955 88.9264H64.5064L57.3792 87.4186C57.3218 87.4069 57.2674 87.384 57.2189 87.3512C57.1704 87.3184 57.1288 87.2764 57.0966 87.2275C57.0643 87.1786 57.042 87.1239 57.0308 87.0663C57.0197 87.0088 57.02 86.9497 57.0317 86.8923C57.0479 86.8171 57.0815 86.7468 57.1297 86.6871C57.397 86.1339 58.5997 82.2262 59.259 80.0493C59.6243 78.827 59.9183 77.8724 59.9984 77.6494C60.4694 76.1614 61.1407 74.7446 61.9941 73.4383C62.4025 72.8225 62.9446 72.3071 63.5799 71.9306C63.6929 71.8553 63.8225 71.8086 63.9575 71.7947C64.0926 71.7807 64.229 71.7998 64.355 71.8503C64.4528 71.8944 64.5385 71.9618 64.6044 72.0466C64.7655 71.7823 64.9987 71.5696 65.2765 71.4337C65.5544 71.2977 65.8652 71.2441 66.1724 71.2793C66.4182 71.2936 66.6557 71.373 66.8608 71.5093C67.0658 71.6457 67.231 71.8342 67.3395 72.0555C67.3844 72.1561 67.4202 72.2606 67.4464 72.3677C67.6054 72.2517 67.7832 72.1642 67.972 72.109C68.1419 72.0694 68.3183 72.0672 68.489 72.1026C68.6598 72.1381 68.8208 72.2103 68.961 72.3142C69.1987 72.4879 69.3937 72.7137 69.5311 72.9744C69.6402 72.9096 69.7569 72.8586 69.8786 72.8227C70.0657 72.7722 70.2623 72.7677 70.4515 72.8097C70.6408 72.8516 70.8171 72.9387 70.9655 73.0636C72.3553 74.1075 71.402 75.874 71.0902 76.4539C70.4518 77.4355 69.7619 78.3825 69.0233 79.291C69.7895 78.8984 70.4577 78.7557 70.8051 79.1304C71.3842 79.7103 70.6269 80.7631 68.3551 83.734C67.079 85.275 65.9458 86.9294 64.9697 88.6766C64.935 88.7477 64.8821 88.8084 64.8164 88.8523C64.7506 88.8962 64.6744 88.9217 64.5955 88.9264ZM58.1097 86.6514L64.3461 87.9718C65.3321 86.2914 66.4461 84.6897 67.678 83.1808C68.5605 82.103 69.3615 80.9608 70.0746 79.7638C68.9945 80.2681 67.9948 80.9295 67.1079 81.7266C67.027 81.8025 66.9203 81.8447 66.8094 81.8447C66.6986 81.8447 66.5919 81.8025 66.511 81.7266C66.4358 81.6471 66.3939 81.5417 66.3939 81.4322C66.3939 81.3227 66.4358 81.2173 66.511 81.1378C67.4642 79.9333 70.0033 76.6769 70.3508 76.0524C70.9833 74.8747 71.0189 74.2056 70.4755 73.7952C70.2973 73.6614 70.1993 73.6882 70.1637 73.6971C69.9303 73.81 69.7419 73.9987 69.6291 74.2324C69.5749 74.3764 69.4999 74.5117 69.4064 74.6338C69.3448 74.7231 69.2517 74.7857 69.1459 74.8089C69.0401 74.832 68.9294 74.8141 68.8362 74.7588C68.7408 74.7073 68.668 74.6222 68.6317 74.52C68.5955 74.4178 68.5985 74.3057 68.6402 74.2056C68.6889 74.0787 68.7485 73.9563 68.8184 73.8398C68.8549 73.6889 68.8407 73.5301 68.7779 73.3882C68.715 73.2462 68.6071 73.129 68.4709 73.0547C68.4394 73.0249 68.4004 73.0042 68.358 72.9948C68.3157 72.9853 68.2716 72.9875 68.2304 73.0012C67.8919 73.0815 67.482 73.6257 67.2326 74.045C67.1732 74.1699 67.1108 74.2859 67.0455 74.393C66.9818 74.4872 66.8852 74.5541 66.7748 74.5805C66.6643 74.6069 66.5479 74.5909 66.4486 74.5357C66.3497 74.4809 66.2759 74.3899 66.2427 74.2817C66.2094 74.1736 66.2194 74.0568 66.2704 73.9558C66.2704 73.9558 66.3506 73.7952 66.4397 73.6346C66.6317 73.2732 66.6794 72.8523 66.5733 72.457C66.5733 72.3588 66.4308 72.2161 66.11 72.1804C65.5755 72.1179 65.2191 72.6622 64.9073 73.4473C64.8271 73.6168 64.7559 73.7684 64.6846 73.9023C64.6574 73.9547 64.6201 74.0012 64.5748 74.039C64.5295 74.0769 64.4772 74.1053 64.4208 74.1228C64.3644 74.1402 64.3052 74.1462 64.2465 74.1405C64.1878 74.1349 64.1308 74.1175 64.0788 74.0896C63.9763 74.0314 63.9005 73.9355 63.8673 73.8224C63.834 73.7092 63.846 73.5875 63.9006 73.4829C64.0161 73.264 64.0508 73.0113 63.9986 72.7692C63.5068 73.0771 63.0873 73.488 62.7691 73.9736C61.9577 75.2119 61.3221 76.5571 60.8804 77.9706C60.8002 78.1936 60.5152 79.1304 60.1499 80.3259C59.0006 83.9749 58.4483 85.777 58.1097 86.6514Z" fill="#35342E"/>
<path d="M61.5965 82.6368C61.5965 82.6368 38.2815 71.1635 27.9915 83.9751C17.7016 96.7866 13.737 136.729 16.7037 141.752C16.7037 141.752 41.7827 143.599 53.5783 129.529L58.8258 103.817C58.8258 103.817 80.4213 122.606 92.9653 112.837C100.594 106.816 106.698 99.0801 110.783 90.2559L103.255 83.7253C103.255 83.7253 87.4506 98.794 81.1786 96.7866C74.9066 94.7792 61.5965 82.6368 61.5965 82.6368Z" fill="#FFD600"/>
<path d="M90.7905 146.177C90.7374 146.185 90.6833 146.185 90.6302 146.177C84.3938 143.875 49.996 136.22 49.6485 136.14C49.591 136.127 49.5367 136.103 49.4885 136.07C49.4403 136.036 49.3993 135.993 49.3678 135.943C49.3364 135.893 49.315 135.838 49.3051 135.78C49.2952 135.721 49.2968 135.662 49.31 135.605C49.3376 135.49 49.4088 135.39 49.5086 135.327C49.6084 135.263 49.7289 135.241 49.8445 135.266C51.261 135.587 84.6344 143.01 90.942 145.338C90.9972 145.359 91.0478 145.39 91.0907 145.431C91.1337 145.471 91.1682 145.52 91.1922 145.574C91.2163 145.628 91.2293 145.686 91.2307 145.745C91.2321 145.804 91.2218 145.863 91.2003 145.918C91.1662 145.998 91.1087 146.065 91.0356 146.111C90.9624 146.157 90.877 146.18 90.7905 146.177Z" fill="white"/>
<path d="M60.934 161.745C60.8158 161.745 60.7025 161.698 60.619 161.614C60.5355 161.531 60.4885 161.417 60.4885 161.299C60.4885 161.181 60.5355 161.067 60.619 160.984C60.7025 160.9 60.8158 160.853 60.934 160.853L81.9237 160.362C82.0404 160.36 82.1533 160.403 82.2383 160.483C82.3232 160.564 82.3734 160.674 82.3781 160.791C82.3805 160.91 82.3361 161.025 82.2545 161.112C82.1729 161.199 82.0605 161.25 81.9415 161.254L60.9518 161.745H60.934Z" fill="white"/>
<path d="M119.923 73.9561C118.328 73.9561 108.617 75.9099 108.617 75.9099L108.697 77.0965C108.697 77.0965 119.165 75.4281 120.083 75.2229C121.001 75.0177 121.526 73.9561 119.923 73.9561Z" fill="white"/>
<path d="M108.697 77.5418C108.596 77.5405 108.499 77.506 108.421 77.4436C108.372 77.4042 108.332 77.3555 108.303 77.3003C108.274 77.2451 108.256 77.1846 108.251 77.1224L108.18 75.9359C108.172 75.8281 108.203 75.721 108.269 75.6354C108.335 75.5497 108.43 75.4915 108.536 75.4719C108.928 75.3916 118.336 73.5092 119.922 73.5092C121.161 73.5092 121.365 74.1069 121.392 74.4013C121.455 74.9634 120.92 75.5344 120.172 75.7039C119.281 75.9091 109.196 77.4882 108.768 77.5775L108.697 77.5418ZM109.089 76.266V76.5782C111.156 76.2481 119.183 74.9634 119.967 74.7939C120.173 74.7545 120.355 74.636 120.475 74.4638C120.288 74.4185 120.096 74.3975 119.904 74.4013C118.737 74.4013 112.537 75.579 109.089 76.266Z" fill="#35342E"/>
<path d="M71.429 112.515H71.2865C61.1747 109.178 49.9048 96.3488 49.4058 95.8046C49.3237 95.7197 49.2777 95.6061 49.2777 95.4879C49.2777 95.3696 49.3237 95.2561 49.4058 95.1712C49.4494 95.1324 49.5002 95.1027 49.5554 95.0839C49.6106 95.0652 49.6689 95.0576 49.7271 95.0618C49.7852 95.0659 49.8419 95.0817 49.8938 95.1081C49.9458 95.1346 49.9919 95.1712 50.0295 95.2158C50.1453 95.3496 61.6113 108.402 71.527 111.667C71.5825 111.685 71.6338 111.714 71.6778 111.753C71.7219 111.791 71.7578 111.838 71.7836 111.89C71.8093 111.942 71.8243 111.999 71.8277 112.058C71.8311 112.116 71.8228 112.174 71.8032 112.229C71.7756 112.308 71.7254 112.378 71.6589 112.428C71.5924 112.479 71.5124 112.509 71.429 112.515Z" fill="#35342E"/>
<path d="M146.187 153.938L173.448 145.73L173.751 149.834L144.619 158.051L146.187 153.938Z" fill="#35342E"/>
<path d="M144.619 158.471C144.557 158.472 144.496 158.46 144.439 158.435C144.382 158.411 144.331 158.374 144.289 158.328C144.237 158.267 144.201 158.192 144.185 158.113C144.17 158.033 144.175 157.95 144.2 157.873L145.768 153.752C145.792 153.688 145.831 153.631 145.88 153.585C145.929 153.538 145.989 153.504 146.053 153.484L173.324 145.276C173.389 145.259 173.456 145.256 173.522 145.267C173.588 145.278 173.651 145.302 173.707 145.338C173.761 145.378 173.806 145.428 173.838 145.487C173.871 145.546 173.89 145.611 173.894 145.677L174.197 149.781C174.203 149.882 174.175 149.982 174.116 150.065C174.058 150.148 173.973 150.208 173.876 150.236L144.744 158.471H144.619ZM146.526 154.278L145.35 157.356L173.279 149.549L173.048 146.364L146.526 154.278Z" fill="#35342E"/>
<path d="M135.932 73.8755H135.843L122.132 70.9403C122.068 70.928 122.008 70.9017 121.955 70.8632C121.903 70.8248 121.86 70.7751 121.829 70.7178C121.798 70.6606 121.781 70.5971 121.778 70.5322C121.775 70.4673 121.786 70.4025 121.811 70.3425L123.014 67.327C123.057 67.2169 123.143 67.1288 123.252 67.082C123.36 67.0351 123.483 67.0334 123.593 67.0772C123.703 67.1209 123.791 67.2066 123.837 67.3154C123.884 67.4241 123.886 67.547 123.842 67.6571L122.835 70.1462L135.656 72.8852L136.858 69.8518C136.88 69.7973 136.912 69.7476 136.953 69.7055C136.994 69.6634 137.042 69.6298 137.096 69.6066C137.15 69.5834 137.208 69.5711 137.266 69.5703C137.325 69.5695 137.383 69.5803 137.437 69.602C137.493 69.6226 137.543 69.6542 137.586 69.6949C137.628 69.7356 137.662 69.7845 137.686 69.8386C137.709 69.8928 137.721 69.9512 137.721 70.0102C137.722 70.0692 137.71 70.1276 137.687 70.1819L136.351 73.5632C136.321 73.6521 136.265 73.7297 136.19 73.7856C136.115 73.8415 136.025 73.8729 135.932 73.8755Z" fill="#D1D3D4"/>
<path d="M107.263 64.5436C107.213 64.5528 107.162 64.5528 107.112 64.5436C107 64.5031 106.909 64.4208 106.858 64.3142C106.806 64.2076 106.798 64.085 106.836 63.9726L110.274 54.3461L105.303 46.2452C105.241 46.1446 105.22 46.0232 105.247 45.9078C105.274 45.7923 105.345 45.6923 105.446 45.6296C105.546 45.5669 105.667 45.5467 105.783 45.5734C105.898 45.6002 105.998 45.6717 106.06 45.7723L111.165 54.0873C111.201 54.1438 111.223 54.2077 111.231 54.2741C111.239 54.3405 111.232 54.4078 111.21 54.471L107.7 64.2848C107.661 64.3665 107.599 64.4348 107.521 64.4809C107.443 64.527 107.353 64.5488 107.263 64.5436Z" fill="#D1D3D4"/>
<path d="M114.156 46.45C114.1 46.4586 114.043 46.4586 113.987 46.45C113.879 46.4044 113.792 46.3186 113.746 46.2104C113.699 46.1023 113.696 45.9803 113.738 45.8701L117.961 35.3514C118.009 35.2438 118.098 35.1589 118.207 35.1141C118.316 35.0694 118.438 35.0681 118.549 35.1105C118.603 35.132 118.652 35.1642 118.694 35.2053C118.736 35.2463 118.769 35.2954 118.791 35.3495C118.814 35.4036 118.825 35.4616 118.825 35.5202C118.824 35.5788 118.812 35.6366 118.789 35.6904L114.566 46.1556C114.538 46.2418 114.483 46.3168 114.409 46.3697C114.336 46.4226 114.247 46.4508 114.156 46.45Z" fill="#D1D3D4"/>
<path d="M59.4016 35.9848C59.2917 35.9852 59.1858 35.944 59.1049 35.8696C59.0239 35.7952 58.974 35.693 58.9651 35.5833L57.8603 24.2884C57.8497 24.1701 57.8864 24.0524 57.9624 23.9613C58.0385 23.8701 58.1475 23.8129 58.2657 23.8022C58.3838 23.7916 58.5014 23.8284 58.5924 23.9045C58.6835 23.9806 58.7406 24.0898 58.7512 24.2082L59.847 35.4941C59.8532 35.5527 59.8477 35.612 59.8308 35.6685C59.8139 35.725 59.7861 35.7776 59.7488 35.8232C59.7115 35.8688 59.6656 35.9066 59.6136 35.9343C59.5617 35.9621 59.5047 35.9792 59.4461 35.9848H59.4016Z" fill="#D1D3D4"/>
<path d="M73.6386 87.0975C73.5855 87.106 73.5313 87.106 73.4782 87.0975C73.3682 87.0536 73.2796 86.9685 73.2313 86.8601C73.1831 86.7518 73.1789 86.6289 73.2199 86.5176L84.5522 57.5399C84.6004 57.4382 84.6853 57.3586 84.7897 57.3169C84.8942 57.2753 85.0105 57.2747 85.1153 57.3154C85.2202 57.356 85.3058 57.4348 85.355 57.5361C85.4042 57.6373 85.4134 57.7534 85.3807 57.8611L74.0484 86.8388C74.0142 86.9183 73.9568 86.9857 73.8836 87.0319C73.8104 87.078 73.725 87.1009 73.6386 87.0975Z" fill="#D1D3D4"/>
<path d="M133.436 105.11H133.347L113.408 101.211C113.293 101.19 113.191 101.123 113.124 101.026C113.057 100.929 113.031 100.81 113.052 100.694C113.076 100.577 113.144 100.475 113.242 100.408C113.341 100.341 113.461 100.316 113.578 100.337L133.516 104.236C133.574 104.245 133.629 104.266 133.679 104.298C133.728 104.329 133.771 104.37 133.804 104.419C133.837 104.467 133.86 104.522 133.872 104.579C133.884 104.636 133.884 104.696 133.873 104.753C133.851 104.853 133.795 104.943 133.716 105.008C133.637 105.072 133.538 105.108 133.436 105.11Z" fill="#D1D3D4"/>
<path d="M131.459 110.294H131.379L111.431 106.395C111.374 106.386 111.319 106.365 111.27 106.333C111.221 106.301 111.179 106.26 111.146 106.212C111.113 106.163 111.091 106.109 111.08 106.051C111.07 105.994 111.071 105.935 111.084 105.878C111.106 105.762 111.172 105.66 111.269 105.593C111.366 105.526 111.485 105.5 111.601 105.521L131.548 109.402C131.606 109.411 131.661 109.433 131.71 109.464C131.759 109.496 131.801 109.537 131.833 109.585C131.866 109.634 131.888 109.689 131.899 109.746C131.91 109.803 131.908 109.862 131.895 109.919C131.88 110.024 131.828 110.12 131.747 110.189C131.667 110.258 131.565 110.295 131.459 110.294Z" fill="#D1D3D4"/>
<path d="M128.565 115.192H128.475L108.537 111.302C108.421 111.278 108.318 111.21 108.252 111.111C108.185 111.013 108.16 110.892 108.181 110.775C108.192 110.718 108.215 110.663 108.248 110.615C108.281 110.566 108.323 110.525 108.371 110.492C108.42 110.46 108.475 110.438 108.532 110.427C108.59 110.415 108.649 110.416 108.706 110.427L128.645 114.317C128.763 114.328 128.872 114.385 128.948 114.476C129.024 114.568 129.061 114.685 129.05 114.804C129.039 114.922 128.982 115.031 128.891 115.107C128.8 115.183 128.683 115.22 128.565 115.21V115.192Z" fill="#D1D3D4"/>
<path d="M89.7835 41.1417H89.7122L74.3263 38.4652C74.2612 38.4565 74.199 38.4326 74.1449 38.3954C74.0907 38.3582 74.046 38.3088 74.0145 38.2511C73.986 38.1912 73.9712 38.1257 73.9712 38.0593C73.9712 37.9929 73.986 37.9274 74.0145 37.8675L79.6361 23.0396C79.678 22.9301 79.7614 22.8415 79.8681 22.7931C79.9749 22.7446 80.0963 22.7403 80.2063 22.7809C80.2612 22.8007 80.3116 22.8314 80.3544 22.871C80.3973 22.9107 80.4318 22.9585 80.4559 23.0117C80.48 23.065 80.4932 23.1225 80.4947 23.1809C80.4962 23.2394 80.4859 23.2975 80.4646 23.3519L75.039 37.6801L89.5341 40.1693L95.1557 25.8946C95.2013 25.7858 95.2865 25.6985 95.3941 25.6504C95.5017 25.6024 95.6235 25.5972 95.7347 25.6358C95.7892 25.6575 95.8388 25.6896 95.8808 25.7305C95.9229 25.7714 95.9564 25.8201 95.9796 25.874C96.0027 25.9279 96.0151 25.9858 96.0159 26.0444C96.0167 26.1031 96.0059 26.1613 95.9842 26.2158L90.2379 40.8563C90.2022 40.946 90.1389 41.022 90.0572 41.0733C89.9756 41.1246 89.8797 41.1486 89.7835 41.1417Z" fill="#D1D3D4"/>
<path d="M81.8787 19.2387H81.7628L62.4747 15.8128C62.4162 15.8022 62.3604 15.7803 62.3104 15.7481C62.2603 15.7159 62.2171 15.6742 62.1832 15.6254C62.1493 15.5765 62.1253 15.5214 62.1127 15.4632C62.1 15.4051 62.0989 15.345 62.1095 15.2864C62.12 15.2278 62.1419 15.1719 62.174 15.1218C62.2062 15.0717 62.2478 15.0285 62.2966 14.9945C62.3454 14.9605 62.4004 14.9365 62.4585 14.9239C62.5166 14.9112 62.5766 14.9101 62.6351 14.9206L81.9588 18.4001C82.077 18.4107 82.1861 18.4679 82.2621 18.5591C82.3381 18.6503 82.3748 18.768 82.3642 18.8863C82.3536 19.0046 82.2964 19.1139 82.2054 19.19C82.1143 19.2661 81.9968 19.3029 81.8787 19.2923V19.2387Z" fill="#D1D3D4"/>
<path d="M134.659 69.9681C134.593 69.9689 134.527 69.9548 134.467 69.9271C134.407 69.8993 134.354 69.8584 134.312 69.8075L125.892 59.5208C125.819 59.4295 125.784 59.3126 125.795 59.1957C125.807 59.0788 125.864 58.9712 125.955 58.8963C126 58.8583 126.053 58.8297 126.109 58.8123C126.166 58.7948 126.225 58.7888 126.284 58.7946C126.343 58.8004 126.4 58.818 126.452 58.8461C126.504 58.8743 126.55 58.9126 126.587 58.9587L134.998 69.2544C135.035 69.2998 135.064 69.3524 135.081 69.409C135.099 69.4657 135.105 69.5252 135.099 69.5842C135.093 69.6431 135.076 69.7004 135.048 69.7525C135.019 69.8046 134.981 69.8506 134.935 69.8878C134.854 69.9438 134.757 69.972 134.659 69.9681Z" fill="#D1D3D4"/>
</svg>
