<svg width="400" height="113" viewBox="0 0 400 113" fill="none" xmlns="http://www.w3.org/2000/svg">
<mask id="mask0_537_42" style="mask-type:luminance" maskUnits="userSpaceOnUse" x="22" y="18" width="74" height="73">
<path fill-rule="evenodd" clip-rule="evenodd" d="M40.1438 18.0332L43.2673 18L75.7568 18.0133C76.2501 18.0177 76.5575 18.0243 76.8628 18.0332C78.4732 18.0752 80.0992 18.1681 81.6919 18.4535C83.2874 18.7227 84.8342 19.2266 86.282 19.9489C87.7243 20.6745 89.0472 21.6212 90.1909 22.7561C91.335 23.8855 92.293 25.1891 93.029 26.6184C93.7811 28.0718 94.2523 29.5605 94.5421 31.1577C94.8297 32.7327 94.9248 34.3387 94.9668 35.9315C94.9889 36.6615 94.9978 37.3915 95 38.1237L95.0044 39.4266V68.266C95.0044 69.1332 95.0044 70.0025 95 70.8719C94.9956 71.6019 94.9889 72.3319 94.9668 73.0619C94.9226 74.6546 94.8297 76.2628 94.5421 77.8357C94.2691 79.4163 93.759 80.9467 93.029 82.3749C92.2926 83.8047 91.3347 85.109 90.1909 86.2395C89.0428 87.3739 87.7238 88.3212 86.282 89.0467C84.8342 89.7691 83.2874 90.273 81.6919 90.5421C80.0992 90.8252 78.4732 90.9182 76.8628 90.9624L72.0094 91L41.2477 90.9823C40.8797 90.9783 40.5117 90.9709 40.1438 90.9602C38.5334 90.9204 36.9075 90.8252 35.3148 90.5421C33.72 90.2728 32.1739 89.7689 30.7268 89.0467C27.8302 87.5889 25.4675 85.2541 23.9754 82.3749C23.2465 80.9462 22.7364 79.416 22.4623 77.8357C22.1748 76.2628 22.0818 74.6546 22.0398 73.0641C22.0177 72.3341 22.0111 71.6019 22.0066 70.8719L22 69.5645V40.7295C22 39.8624 22 38.993 22.0066 38.1259C22.0111 37.3959 22.0199 36.6659 22.0398 35.9337C22.0841 34.3409 22.177 32.7349 22.4623 31.1599C22.7363 29.5795 23.2463 28.0493 23.9754 26.6206C25.4653 23.7406 27.8276 21.4054 30.7246 19.9489C32.1725 19.2266 33.7193 18.7226 35.3148 18.4535C36.9075 18.1703 38.5334 18.0774 40.1438 18.0332Z" fill="white"/>
</mask>
<g mask="url(#mask0_537_42)">
<path d="M22 18H95V91H22V18Z" fill="#4A4A4A"/>
<path fill-rule="evenodd" clip-rule="evenodd" d="M22 18H95V41.9507L22 30.546V18Z" fill="#8C8C8C"/>
<path fill-rule="evenodd" clip-rule="evenodd" d="M22 83.0128L95 71.6082V90.9978H22V83.0128Z" fill="#767676"/>
<path fill-rule="evenodd" clip-rule="evenodd" d="M22 29.1038L47.4813 33.0853C50.6532 31.0769 54.4267 29.9753 58.4989 29.9753C64.1393 29.9753 69.209 32.0877 72.8985 35.7949C73.363 36.2638 73.801 36.7526 74.2146 37.2614L95 40.5085V43.395L76.3248 40.4753C77.7225 43.1473 78.4547 46.1172 78.4593 49.1328C78.4593 53.0434 77.5856 56.9431 75.7762 60.8582L75.7231 60.9776L74.9534 62.6233H73.1396C69.3882 62.6233 66.902 63.7447 65.274 65.7332C63.9977 67.2926 63.2589 69.3984 63.0112 71.6943L63.0024 71.7651L62.967 72.1323L62.9515 72.2916L62.9205 72.6034C62.8254 73.6298 62.7635 74.4991 62.7303 75.2069L95 70.1637V73.0503L22 84.4571V81.5706L54.3051 76.523L54.2918 75.8749L54.2874 75.6935L54.283 75.5984L54.2785 75.4546C54.2498 74.6694 54.1768 73.663 54.0618 72.442L54.0397 72.2097L53.9998 71.8094C53.7698 69.5001 53.0421 67.37 51.7658 65.7863C50.1577 63.7845 47.6959 62.6454 43.9732 62.6233H42.0444L41.2769 60.9776C39.4321 57.0227 38.5385 53.0833 38.5385 49.1328C38.5385 44.1648 40.5536 39.3605 44.1015 35.7949L44.4112 35.4918L22 31.9882V29.1038Z" fill="white"/>
<path fill-rule="evenodd" clip-rule="evenodd" d="M58.4998 32.8265C68.6924 32.8265 75.609 40.67 75.609 49.1328C75.609 52.5303 74.868 56.0649 73.1383 59.7721C63.1117 59.7721 60.6365 66.952 60.1676 71.4731L60.1367 71.7718C59.9796 73.3865 59.8867 74.6804 59.8624 75.6537L57.1461 76.0784V75.9899C57.1083 74.5524 57.0109 73.1171 56.8542 71.6877L56.8475 71.6081C56.414 67.098 53.9919 59.7721 43.8636 59.7721C42.1316 56.0649 41.3906 52.5303 41.3906 49.1328C41.3906 40.67 48.3095 32.8265 58.4998 32.8265Z" fill="#D5D5D5"/>
</g>
<path fill-rule="evenodd" clip-rule="evenodd" d="M141.298 18C123.625 18 110.374 28.5085 110.485 46.7585H126.91C126.684 39.4585 131.44 32.3775 141.298 32.3775C148.772 32.3775 153.531 37.2442 153.531 43.4388C153.531 49.8558 148.316 53.3946 139.939 57.3783C128.951 62.5752 122.381 65.0085 110.485 68.8775V89.8946H171.652V75.5136H132.688C138.364 73.2019 143.891 70.6643 148.887 68.3248C162.138 62.1337 169.952 55.1639 169.952 42.667C169.952 27.6221 158.401 18 141.298 18ZM196.573 33.483H228.29V19.1054H180.715V89.8946H196.573V33.483ZM253.21 19.1054H237.352V89.8946H253.096L282.661 44.6554V89.8946H298.519V19.1054H282.661L253.21 64.3446V19.1054ZM378.152 63.3469H361.727C359.234 71.2031 351.646 76.6225 342.698 76.6225C329.669 76.6225 321.173 65.6725 321.173 54.5C321.173 43.3275 329.443 32.3775 343.15 32.3775C352.212 32.3775 359.234 37.8004 361.727 45.6531H378.152C375.774 29.8364 362.975 18 342.698 18C320.27 18 305.315 33.3752 305.315 54.5C305.315 75.6248 320.27 91 342.698 91C362.975 91 375.774 79.3895 378.152 63.3469Z" fill="#262626"/>
</svg>
