<svg width="211" height="211" viewBox="0 0 211 211" fill="none" xmlns="http://www.w3.org/2000/svg">
<path d="M162.68 129.511C162.68 129.511 174.749 76.1707 168.841 72.4993C162.933 68.8279 122.379 65.6629 117.273 72.4993C112.167 79.3357 108.453 121.831 108.453 121.831L162.68 129.511Z" fill="#6C5D0F"/>
<path d="M162.681 129.807H162.639L108.412 122.084C108.243 122.042 108.159 121.916 108.159 121.747C108.327 120.017 111.872 79.0826 117.021 72.2884C120.312 67.9418 136.095 67.984 142.763 68.2372C154.536 68.6592 166.057 70.3894 169.011 72.2462C175.046 76.002 163.483 127.402 162.977 129.596C162.934 129.723 162.808 129.849 162.681 129.807ZM108.792 121.578L162.47 129.174C165.846 114.193 173.4 75.6222 168.716 72.7104C163.103 69.2078 122.633 65.8318 117.527 72.626C112.674 79.0826 109.087 117.864 108.792 121.578Z" fill="#231F20"/>
<path d="M36.5038 140.737C43.509 128.541 71.7408 119.426 105.501 119.426C139.261 119.426 167.493 128.541 174.498 140.737H176.186V146.645C176.186 161.71 144.536 173.906 105.501 173.906C66.4658 173.906 34.8158 161.71 34.8158 146.645V140.737H36.5038Z" fill="#231F20"/>
<path d="M105.5 174.202C66.3808 174.202 34.5198 161.837 34.5198 146.645V140.737C34.5198 140.568 34.6464 140.442 34.8152 140.442H36.3344C39.837 134.491 48.5724 129.09 60.8948 125.207C73.4282 121.241 89.2954 119.088 105.5 119.088C121.705 119.088 137.572 121.241 150.106 125.207C162.428 129.048 171.163 134.491 174.666 140.442H176.185C176.354 140.442 176.481 140.568 176.481 140.737V146.645C176.481 161.837 144.62 174.202 105.5 174.202ZM35.1106 141.032V146.645C35.1106 161.499 66.6762 173.611 105.5 173.611C144.324 173.611 175.89 161.542 175.89 146.645V141.032H174.497C174.413 141.032 174.286 140.99 174.244 140.864C167.197 128.583 138.29 119.679 105.5 119.679C72.7108 119.679 43.8038 128.583 36.7564 140.864C36.7142 140.948 36.5876 141.032 36.5032 141.032H35.1106Z" fill="#231F20"/>
<path d="M111.957 37.7267C111.957 37.7267 116.81 35.3635 120.017 39.5835C123.225 43.8035 121.283 48.6143 128.457 51.6105C135.631 54.6067 129.808 63.2999 135.041 66.5071C135.041 66.5071 131.074 69.3345 127.74 70.2207L125.335 68.2795L125.503 70.4317C125.503 70.4317 104.741 79.8001 96.1321 73.8499L95.0349 71.2757L93.4313 73.0903L88.1141 69.5877C88.1141 69.5877 92.2497 67.4355 91.0259 63.2577C89.8021 59.0799 87.1013 55.4507 92.1653 50.0913C97.2293 44.7319 93.3469 41.3981 99.5925 38.9927C103.559 37.5579 107.779 37.1359 111.957 37.7267Z" fill="white"/>
<path d="M104.023 76.1288C100.647 76.1288 97.9458 75.4537 96.0046 74.1033C95.9624 74.0611 95.9202 74.0189 95.9202 73.9767L95.034 71.8245L93.7258 73.2593C93.6414 73.3859 93.4726 73.3858 93.346 73.3014L88.0288 69.7988C87.9444 69.7566 87.9022 69.6301 87.9022 69.5457C87.9022 69.4613 87.9866 69.3347 88.071 69.2924C88.2398 69.208 91.9534 67.1824 90.814 63.3C90.603 62.6248 90.3498 61.9075 90.1388 61.2323C88.9572 57.8985 87.6912 54.438 92.0378 49.8382C94.2744 47.475 94.7386 45.576 95.1184 43.888C95.5826 41.8202 96.0046 40.0478 99.5916 38.6974C105.415 36.4608 111.239 37.3048 112.041 37.3892C112.716 37.0938 117.316 35.3214 120.396 39.3726C121.578 40.8918 122.042 42.4954 122.548 44.0568C123.392 46.7998 124.236 49.4162 128.71 51.3152C132.761 53.0032 132.845 56.548 132.93 59.6708C133.014 62.3294 133.056 64.8192 135.335 66.2118C135.419 66.254 135.462 66.3385 135.462 66.4651C135.462 66.5495 135.419 66.6761 135.335 66.7183C135.166 66.8449 131.284 69.5879 127.95 70.4741C127.866 70.5163 127.739 70.474 127.697 70.4319L125.84 68.9127L125.967 70.3475C125.967 70.474 125.924 70.6007 125.798 70.6428C122.084 72.2464 118.244 73.5547 114.277 74.6097C110.817 75.5381 107.441 76.0444 104.023 76.1288ZM96.3844 73.6391C104.36 79.0407 123.097 71.1493 125.207 70.2208L125.038 68.2797C125.038 68.1109 125.165 67.9843 125.334 67.9843C125.418 67.9843 125.46 67.9843 125.545 68.0264L127.823 69.8833C130.482 69.1237 133.478 67.1825 134.533 66.5073C132.381 64.9037 132.297 62.2872 132.212 59.713C132.128 56.5058 132.043 53.4252 128.372 51.8638C123.603 49.8804 122.717 47.0108 121.873 44.2256C121.409 42.7064 120.903 41.145 119.805 39.7102C116.809 35.7434 112.167 37.8956 112.125 37.9378C112.083 37.98 111.998 37.98 111.956 37.98C111.914 37.98 105.837 36.8828 99.7604 39.2038C96.4688 40.4698 96.1312 41.9046 95.667 43.9724C95.245 46.3356 94.1056 48.4878 92.4598 50.218C88.3664 54.5224 89.5058 57.6874 90.6874 60.979C90.9406 61.6542 91.1938 62.3716 91.3626 63.0468C92.3754 66.5916 89.759 68.7861 88.7462 69.4613L93.4726 72.5841L94.9074 70.9804C94.9918 70.896 95.0762 70.8539 95.1606 70.8961C95.245 70.8961 95.3294 70.9804 95.3716 71.0648L96.3844 73.6391Z" fill="#231F20"/>
<path d="M116.515 71.6554C116.515 71.6554 134.914 71.4866 142.848 76.635C150.781 81.7834 146.393 99.001 145.295 104.74C144.198 110.479 139.303 132.719 139.303 132.719L97.6517 135.124C97.6517 135.124 90.3089 98.6212 89.7603 87.9868C89.6337 85.7502 92.2501 77.4368 94.0225 76.1708C99.8883 71.9086 108.202 71.3178 116.515 71.6554Z" fill="#FFD600"/>
<path d="M120.819 76.9727L116.599 111.872L105.796 83.9357C105.796 83.9357 116.684 81.2771 120.819 76.9727Z" fill="#231F20"/>
<path d="M116.556 112.167C116.43 112.167 116.303 112.083 116.261 111.956L105.5 84.0623C105.458 83.9779 105.458 83.8935 105.5 83.8091C105.542 83.7247 105.626 83.6825 105.669 83.6403C105.795 83.5981 116.556 80.9395 120.565 76.7617C120.692 76.6351 120.861 76.6351 120.987 76.7617C121.072 76.8461 121.072 76.9305 121.072 77.0149L116.852 111.914C116.852 112.041 116.725 112.167 116.556 112.167ZM106.175 84.1467L116.43 110.648L120.439 77.7745C116.345 81.3615 107.947 83.6825 106.175 84.1467Z" fill="#231F20"/>
<path d="M105.501 167.998C144.539 167.998 176.186 155.793 176.186 140.737C176.186 125.681 144.539 113.476 105.501 113.476C66.4625 113.476 34.8158 125.681 34.8158 140.737C34.8158 155.793 66.4625 167.998 105.501 167.998Z" fill="white"/>
<path d="M105.5 168.294C66.3808 168.294 34.5198 155.929 34.5198 140.737C34.5198 125.545 66.3386 113.18 105.5 113.18C144.662 113.18 176.481 125.545 176.481 140.737C176.481 155.929 144.62 168.294 105.5 168.294ZM105.5 113.771C66.6762 113.771 35.1106 125.84 35.1106 140.737C35.1106 155.634 66.6762 167.703 105.5 167.703C144.324 167.703 175.89 155.634 175.89 140.737C175.89 125.84 144.324 113.771 105.5 113.771Z" fill="#231F20"/>
<path d="M89.6759 116.388L117.528 127.36L71.0657 144.324L45.8301 130.694L89.6759 116.388Z" fill="white"/>
<path d="M71.065 144.577C71.0228 144.577 70.9806 144.577 70.9384 144.535L45.7028 130.905C45.6184 130.862 45.534 130.736 45.534 130.609C45.534 130.483 45.6184 130.398 45.745 130.356L89.5908 116.05C89.6752 116.008 89.7174 116.008 89.8018 116.05L117.654 127.022C117.823 127.064 117.865 127.233 117.823 127.402C117.78 127.486 117.738 127.529 117.654 127.571L71.1916 144.535C71.1494 144.577 71.1072 144.62 71.065 144.577ZM46.589 130.736L71.1072 143.987L116.683 127.318L89.6752 116.683L46.589 130.736Z" fill="#D1D3D4"/>
<path d="M94.0642 116.05L121.916 127.022L75.4962 143.986L50.2606 130.398L94.0642 116.05Z" fill="white"/>
<path d="M75.4958 144.282C75.4536 144.282 75.4114 144.282 75.3692 144.24L50.1336 130.609C50.007 130.525 49.9226 130.356 50.007 130.187C50.0492 130.103 50.0914 130.06 50.1758 130.06L94.0216 115.755C94.106 115.712 94.1482 115.712 94.2326 115.755L122.085 126.727C122.253 126.769 122.296 126.938 122.253 127.106C122.211 127.191 122.169 127.233 122.085 127.275L75.6224 144.24C75.538 144.282 75.4958 144.282 75.4958 144.282ZM51.0198 130.44L75.538 143.691L121.114 127.022L94.106 116.388L51.0198 130.44Z" fill="#D1D3D4"/>
<path d="M98.6632 116.641L126.473 127.613L80.053 144.577L54.8174 130.947L98.6632 116.641Z" fill="white"/>
<path d="M80.0541 144.873C80.0119 144.873 79.9697 144.873 79.9275 144.83L54.6919 131.2C54.6075 131.158 54.5231 131.031 54.5231 130.904C54.5231 130.778 54.6075 130.693 54.7341 130.651L98.5799 116.345C98.6643 116.303 98.7065 116.303 98.7909 116.345L126.643 127.317C126.769 127.36 126.812 127.486 126.854 127.613C126.854 127.739 126.769 127.824 126.643 127.866L80.1807 144.83C80.0963 144.873 80.0541 144.873 80.0541 144.873ZM55.5781 130.989L80.0963 144.24L125.672 127.571L98.6643 116.936L55.5781 130.989Z" fill="#231F20"/>
<path d="M74.9058 138.627C74.7792 138.627 74.6947 138.542 74.6525 138.416C74.6103 138.247 74.6526 138.078 74.8214 138.036L111.493 124.068C111.662 124.025 111.831 124.11 111.873 124.236C111.915 124.363 111.831 124.532 111.704 124.616L75.0324 138.584C74.948 138.627 74.948 138.627 74.9058 138.627Z" fill="#D1D3D4"/>
<path d="M112.083 129.765C112.04 129.765 111.998 129.765 111.956 129.723L92.4597 121.325C92.2909 121.24 92.2487 121.072 92.2909 120.945C92.3331 120.776 92.5441 120.734 92.6707 120.776L112.167 129.174C112.336 129.216 112.378 129.427 112.336 129.554C112.294 129.723 112.209 129.807 112.083 129.765Z" fill="#D1D3D4"/>
<path d="M105.838 132.297C105.543 132.297 103.77 131.453 85.9197 122.38C85.7509 122.338 85.7087 122.127 85.7509 122C85.7931 121.873 86.0041 121.789 86.1307 121.831C86.1307 121.831 86.1729 121.831 86.1729 121.873C91.4057 124.532 105.121 131.453 105.796 131.748C105.88 131.748 105.923 131.833 105.965 131.875C106.049 132.001 106.007 132.212 105.88 132.297C105.88 132.297 105.88 132.297 105.838 132.297Z" fill="#D1D3D4"/>
<path d="M97.4829 135.462C97.4407 135.462 97.3985 135.462 97.3563 135.419L77.6067 125.756C77.4801 125.671 77.4379 125.502 77.5223 125.334C77.6067 125.207 77.7333 125.165 77.8599 125.207L97.6095 134.871C97.7361 134.955 97.8205 135.124 97.7361 135.251C97.6939 135.377 97.5673 135.462 97.4829 135.462Z" fill="#D1D3D4"/>
<path d="M80.9825 141.75C80.9403 141.75 80.8981 141.75 80.8559 141.708L60.4311 131.2C60.3045 131.158 60.2623 131.031 60.2623 130.904C60.2623 130.778 60.3467 130.693 60.4733 130.651L98.2001 118.709C98.2845 118.666 98.3267 118.666 98.4111 118.709L118.709 126.895C118.836 126.938 118.878 127.064 118.878 127.149C118.878 127.275 118.794 127.36 118.667 127.402L81.0669 141.708C81.0247 141.75 80.9825 141.75 80.9825 141.75ZM61.3173 130.989L80.9825 141.117L117.781 127.149L98.2845 119.299L61.3173 130.989Z" fill="#D1D3D4"/>
<path d="M105.247 72.2042L105.627 82.4166C105.627 82.4166 106.513 86.1724 113.181 84.6954C116.768 83.978 119.553 81.1084 120.271 77.5214C119.638 73.9766 118.583 56.8434 117.865 52.4124L113.645 53.172C113.561 51.1886 113.223 49.2474 112.717 47.3484C111.999 48.8254 111.577 50.4712 111.493 52.117L103.855 52.9188C103.686 52.961 103.517 52.9188 103.391 52.8766C103.264 52.75 103.18 52.6234 103.137 52.4546L102.462 50.429L101.914 52.8766C101.914 53.383 101.492 53.805 100.985 53.8472C100.943 53.8472 100.901 53.8472 100.859 53.8472L97.7779 54.016C97.3559 54.016 96.8917 54.1004 96.5119 54.3114C95.3725 55.1132 95.9633 59.713 96.0477 60.9368C96.2165 63.4688 96.8073 65.9586 97.7779 68.3218C99.7613 73.0904 105.247 72.2042 105.247 72.2042Z" fill="white"/>
<path d="M110.312 85.3281C109.046 85.3703 107.822 85.0327 106.767 84.3575C106.092 83.8933 105.627 83.2603 105.374 82.5007L104.994 72.5415C103.728 72.6259 99.2975 72.6681 97.4829 68.4059C96.5123 66.0005 95.9215 63.4685 95.7527 60.8943L95.7105 60.4723C95.4151 57.5183 95.2885 54.7331 96.3435 54.0157C96.7655 53.7625 97.2719 53.6359 97.7783 53.6781L100.859 53.5093C101.028 53.5093 101.239 53.4671 101.365 53.3827C101.534 53.2139 101.618 53.0029 101.618 52.7919L102.167 50.3865C102.209 50.2599 102.294 50.1755 102.42 50.1755C102.547 50.1755 102.673 50.2599 102.716 50.3865L103.391 52.4121C103.433 52.4965 103.475 52.6231 103.517 52.6653C103.602 52.7075 103.728 52.7075 103.813 52.6653L111.24 51.8635C111.367 50.2599 111.789 48.6985 112.464 47.2215C112.506 47.0949 112.633 47.0527 112.759 47.0527C112.886 47.0527 112.97 47.1371 113.012 47.2637C113.519 49.0783 113.814 50.9351 113.941 52.8341L117.823 52.1167C117.908 52.1167 117.992 52.1167 118.034 52.1589C118.119 52.2011 118.161 52.2855 118.161 52.3699C118.498 54.5643 118.92 59.7549 119.342 64.8189C119.764 70.1783 120.229 75.7065 120.566 77.4789C119.891 81.2347 117.021 84.2309 113.266 84.9905C112.295 85.1593 111.282 85.2859 110.312 85.3281ZM105.248 71.9085C105.332 71.9085 105.374 71.9507 105.416 71.9929C105.501 72.0351 105.543 72.1195 105.543 72.2039L105.923 82.4163C105.965 82.5007 106.809 85.8345 113.097 84.3997C116.557 83.7245 119.258 80.9815 119.933 77.5211C119.596 75.6643 119.174 70.3893 118.709 64.8189C118.33 60.0081 117.908 55.0285 117.57 52.7075L113.645 53.4249C113.477 53.4671 113.35 53.3405 113.308 53.2139V53.1717C113.223 51.4837 113.012 49.8379 112.633 48.2343C112.126 49.4581 111.873 50.8085 111.789 52.1167C111.789 52.2433 111.662 52.3699 111.535 52.4121L103.855 53.2139C103.644 53.2561 103.391 53.2139 103.18 53.1295C102.969 53.0029 102.842 52.7919 102.8 52.5387L102.462 51.5259L102.125 52.9185C102.125 53.5937 101.534 54.1423 100.859 54.1001C100.817 54.1001 100.817 54.1001 100.774 54.1001L97.6939 54.2689C97.3141 54.2689 96.9343 54.3533 96.5967 54.5221C95.7105 55.1129 96.0903 59.1219 96.2169 60.4301L96.2591 60.8943C96.4279 63.3841 97.0187 65.8739 97.9471 68.1949C99.8461 72.7103 104.91 71.9507 105.121 71.9507L105.248 71.9085Z" fill="#231F20"/>
<path d="M105.459 77.5637C107.822 77.4371 109.974 76.1711 111.198 74.1455C113.35 70.6851 112.548 68.4485 112.548 68.4485C112.548 68.4485 109.679 71.9933 105.248 72.2043L105.459 77.5637Z" fill="#231F20"/>
<path d="M105.458 77.8589C105.289 77.8589 105.163 77.7323 105.163 77.5635L104.952 72.2041C104.952 72.0353 105.078 71.9087 105.247 71.9087C109.467 71.6977 112.337 68.3217 112.337 68.2795C112.421 68.1529 112.632 68.1529 112.759 68.2373C112.801 68.2795 112.843 68.3217 112.843 68.3639C112.885 68.4483 113.645 70.7693 111.451 74.3141C110.185 76.4241 107.948 77.7323 105.458 77.8589ZM105.543 72.4573L105.711 77.2259C107.864 77.0149 109.763 75.7911 110.944 73.9765C112.379 71.6555 112.463 69.9253 112.379 69.0813C111.451 70.0519 109.003 72.2041 105.543 72.4573Z" fill="#231F20"/>
<path d="M104.445 57.2231C104.445 57.2231 103.432 62.5403 104.445 63.2577C105.458 63.9751 107.23 62.6247 107.23 62.6247" fill="white"/>
<path d="M105.121 63.7219C104.826 63.7219 104.488 63.6375 104.235 63.4687C103.138 62.6669 103.982 58.0671 104.151 57.1387C104.193 56.9699 104.32 56.8855 104.488 56.8855C104.657 56.9277 104.742 57.0543 104.742 57.2231C104.277 59.6707 104.066 62.5825 104.615 62.9623C105.29 63.4265 106.598 62.6669 107.063 62.3293C107.189 62.2027 107.358 62.2027 107.485 62.3293C107.611 62.4559 107.611 62.6247 107.485 62.7513L107.442 62.7935C107.358 62.8779 106.176 63.7219 105.121 63.7219Z" fill="#231F20"/>
<path d="M109 59.5235C109.46 59.4432 109.737 58.8384 109.621 58.1727C109.505 57.5069 109.038 57.0323 108.579 57.1126C108.12 57.193 107.842 57.7977 107.958 58.4635C108.075 59.1292 108.541 59.6038 109 59.5235Z" fill="#231F20"/>
<path d="M100.097 60.5755C100.556 60.4952 100.834 59.8904 100.718 59.2247C100.601 58.5589 100.135 58.0843 99.6755 58.1646C99.2163 58.245 98.9385 58.8498 99.055 59.5155C99.1714 60.1812 99.638 60.6558 100.097 60.5755Z" fill="#231F20"/>
<path d="M108.116 60.43C107.103 60.43 106.217 59.6704 106.09 58.6576L105.71 55.6192C105.71 55.4504 105.795 55.3238 105.964 55.2816L114.024 54.2688C114.193 54.2688 114.319 54.3532 114.361 54.522L114.741 57.5604C114.868 58.6576 114.108 59.7126 112.969 59.8392L108.369 60.43H108.116ZM106.343 55.8302L106.681 58.5732C106.765 59.375 107.483 59.9236 108.285 59.8392L112.884 59.2484C113.264 59.2062 113.602 58.9952 113.855 58.6998C114.108 58.4044 114.193 58.0246 114.15 57.6448L113.813 54.9018L106.343 55.8302Z" fill="#231F20"/>
<path d="M96.5109 62.034C95.4981 62.034 94.6119 61.2744 94.4853 60.2616L94.1055 57.2232C94.0633 57.0544 94.1899 56.9278 94.3587 56.8856L102.419 55.8728C102.588 55.8728 102.714 55.9572 102.756 56.126L103.136 59.1644C103.263 60.2616 102.503 61.2744 101.406 61.4432L96.8063 62.034C96.6797 62.034 96.5953 62.034 96.5109 62.034ZM94.7385 57.4342L95.0761 60.1772C95.1605 60.979 95.8779 61.5276 96.6797 61.4432C96.6797 61.4432 96.6797 61.4432 96.7219 61.4432L101.322 60.8524C102.123 60.768 102.672 60.0506 102.588 59.2488L102.25 56.5058L94.7385 57.4342Z" fill="#231F20"/>
<path d="M120.059 57.5185L114.32 56.9699C114.151 56.9277 114.067 56.8011 114.067 56.6323C114.109 56.5057 114.236 56.3792 114.362 56.3792L120.059 56.8855C120.228 56.8855 120.355 57.0121 120.355 57.1809C120.355 57.3497 120.186 57.4763 120.059 57.5185Z" fill="#231F20"/>
<path d="M115.672 60.4722C115.672 59.9236 115.798 59.375 116.136 58.9108C116.516 58.1512 117.064 57.476 117.697 56.8852C118.33 56.2944 119.174 55.999 120.06 55.9568C121.748 55.9568 123.183 57.5604 123.268 59.2484C123.352 60.9364 122.339 62.54 120.947 63.4684C119.807 64.228 118.33 64.5234 117.064 64.0592" fill="white"/>
<path d="M118.371 64.6083C117.907 64.6083 117.401 64.5239 116.979 64.3551C116.81 64.3129 116.768 64.1019 116.81 63.9753C116.852 63.8065 117.063 63.7643 117.19 63.8065C118.414 64.2285 119.764 64.0175 120.777 63.2579C122.169 62.4139 122.971 60.9369 122.971 59.2911C122.887 57.6875 121.494 56.2949 120.059 56.2949C119.258 56.3371 118.498 56.6325 117.907 57.1389C117.274 57.6875 116.768 58.3627 116.388 59.0801C116.093 59.4599 115.966 59.9663 115.966 60.4305C115.966 60.5993 115.882 60.7259 115.713 60.7681C115.544 60.7681 115.417 60.6837 115.375 60.5149C115.333 59.9241 115.502 59.2911 115.882 58.7847C116.304 57.9829 116.852 57.2655 117.527 56.6747C118.245 56.0417 119.131 55.7041 120.059 55.7041C121.832 55.7041 123.435 57.3499 123.562 59.2489C123.689 60.9369 122.718 62.7093 121.114 63.7221C120.313 64.2707 119.342 64.5661 118.371 64.6083Z" fill="#231F20"/>
<path d="M102.714 57.5188C102.63 57.5188 102.546 57.4766 102.503 57.4344C102.377 57.3078 102.419 57.139 102.546 57.0124C103.643 55.9152 105.373 55.9152 106.47 57.0124C106.597 57.139 106.597 57.3078 106.47 57.4344C106.344 57.561 106.175 57.561 106.048 57.4344C106.006 57.3922 104.656 55.9995 102.925 57.4765C102.841 57.4765 102.757 57.5188 102.714 57.5188Z" fill="#231F20"/>
<path d="M102.041 67.6042C101.872 67.6042 101.746 67.4776 101.746 67.3088C101.746 67.14 101.872 67.0134 102.041 67.0134C102.083 67.0134 108.076 66.9712 111.367 63.553C111.494 63.4264 111.663 63.4264 111.789 63.553C111.916 63.6796 111.916 63.8484 111.789 63.975C108.329 67.562 102.294 67.6042 102.041 67.6042Z" fill="#231F20"/>
<path d="M99.0015 158.967L127.275 146.771L104.698 138.5L87.2277 145.716L73.3439 146.181L99.0015 158.967Z" fill="white"/>
<path d="M99.0011 159.263C98.9589 159.263 98.9167 159.263 98.8745 159.221L73.1747 146.434C73.0481 146.35 72.9637 146.181 73.0481 146.054C73.0903 145.97 73.2169 145.885 73.3013 145.885L87.1851 145.421L104.572 138.247C104.656 138.205 104.698 138.205 104.783 138.247L127.36 146.476C127.486 146.518 127.528 146.645 127.571 146.729C127.571 146.856 127.486 146.983 127.402 147.025L99.1699 159.221C99.0855 159.263 99.0433 159.263 99.0011 159.263ZM74.5251 146.434L99.0433 158.672L126.473 146.814L104.698 138.838L87.3539 146.012C87.3117 146.012 87.2695 146.012 87.2695 146.012L74.5251 146.434Z" fill="#231F20"/>
<path d="M127.276 146.771L127.572 149.641L98.6647 162.428L98.0317 156.098L107.4 155.338L127.276 146.771Z" fill="white"/>
<path d="M98.6642 162.723C98.622 162.723 98.5798 162.723 98.4954 162.681C98.411 162.639 98.3688 162.554 98.3266 162.47L97.6936 156.14C97.6936 156.055 97.6936 155.971 97.778 155.929C97.8202 155.887 97.9046 155.844 97.989 155.844L107.357 155.127L127.149 146.56C127.234 146.518 127.318 146.518 127.402 146.56C127.487 146.603 127.529 146.687 127.529 146.771L127.824 149.641C127.824 149.768 127.782 149.894 127.656 149.936L98.7486 162.681C98.7064 162.681 98.6642 162.723 98.6642 162.723ZM98.3266 156.351L98.8752 161.963L127.234 149.43L127.023 147.193L107.526 155.633C107.484 155.633 107.484 155.633 107.442 155.633L98.3266 156.351Z" fill="#231F20"/>
<path d="M98.6639 162.428L73.8925 151.582L73.3439 146.181L98.0309 156.098L98.6639 162.428Z" fill="white"/>
<path d="M98.6648 162.723C98.6226 162.723 98.5804 162.723 98.5382 162.681L73.7668 151.878C73.6824 151.835 73.598 151.751 73.598 151.624L73.0494 146.223C73.0494 146.138 73.0916 146.012 73.176 145.97C73.2604 145.927 73.387 145.885 73.4714 145.927L98.1584 155.844C98.2428 155.887 98.3272 155.971 98.3272 156.098L98.9602 162.428C98.9602 162.512 98.918 162.639 98.8336 162.681C98.7914 162.681 98.707 162.723 98.6648 162.723ZM74.1466 151.413L98.285 161.963L97.7364 156.309L73.6824 146.645L74.1466 151.413Z" fill="#231F20"/>
<path d="M97.8624 154.663C97.8202 154.663 97.778 154.663 97.7358 154.663L81.5732 148.038C81.4044 147.953 81.3622 147.785 81.4044 147.658C81.4466 147.574 81.531 147.489 81.6576 147.489L88.494 146.814C88.5362 146.814 88.5784 146.814 88.6206 146.814L104.53 153.482C104.699 153.566 104.741 153.735 104.699 153.861C104.657 153.946 104.572 154.03 104.446 154.03L97.8624 154.663ZM82.8814 147.911L97.9046 154.072L103.264 153.524L88.494 147.363L82.8814 147.911Z" fill="#D1D3D4"/>
<path d="M107.99 153.27C107.737 153.228 96.2162 148.417 91.2788 146.35C91.1522 146.307 91.11 146.181 91.11 146.096C91.11 145.97 91.1944 145.885 91.2788 145.843L104.994 140.188C105.078 140.146 105.163 140.146 105.205 140.188L121.958 146.814C122.127 146.898 122.169 147.067 122.127 147.194C122.085 147.278 122.043 147.32 121.958 147.362C109.256 152.933 108.201 153.27 107.99 153.27ZM92.165 146.096C97.6932 148.417 107.104 152.3 108.032 152.68C108.876 152.384 116.008 149.304 121.114 147.109L105.12 140.779L92.165 146.096Z" fill="#D1D3D4"/>
<path d="M112.59 151.118C112.548 151.118 112.506 151.118 112.464 151.076L96.0058 144.408C95.837 144.408 95.7104 144.282 95.7104 144.113C95.7104 143.944 95.837 143.817 96.0058 143.817C96.048 143.817 96.1324 143.86 96.1746 143.902L112.633 150.569C112.801 150.612 112.844 150.78 112.801 150.949C112.801 151.076 112.675 151.118 112.59 151.118Z" fill="#D1D3D4"/>
<path d="M117.949 148.797C117.907 148.797 117.865 148.797 117.823 148.755C117.527 148.628 106.935 144.408 101.365 142.214C101.196 142.172 101.154 142.003 101.196 141.834C101.238 141.665 101.449 141.623 101.576 141.665C102.251 141.918 117.738 148.037 118.076 148.206C118.202 148.291 118.287 148.459 118.202 148.586C118.16 148.713 118.076 148.797 117.949 148.797Z" fill="#D1D3D4"/>
<path d="M95.1194 147.953C94.9506 147.953 94.824 147.826 94.824 147.658C94.824 147.531 94.9084 147.447 94.9928 147.404L109.256 141.876C109.425 141.834 109.594 141.876 109.636 142.045C109.678 142.214 109.636 142.383 109.467 142.425L95.2038 147.911C95.2038 147.911 95.1616 147.953 95.1194 147.953Z" fill="#D1D3D4"/>
<path d="M101.787 150.696C101.618 150.696 101.492 150.57 101.492 150.401C101.492 150.274 101.576 150.19 101.66 150.148C107.104 148.038 115.333 144.83 116.008 144.366C116.051 144.282 116.135 144.24 116.219 144.24C116.388 144.24 116.515 144.366 116.515 144.535C116.515 144.788 116.515 145.041 101.871 150.654C101.871 150.696 101.829 150.738 101.787 150.696Z" fill="#D1D3D4"/>
<path d="M132.72 134.745C132.635 135.04 123.267 138.078 123.267 138.078C123.267 138.078 116.853 135.167 112.844 135.673C108.37 136.264 104.235 137.403 100.943 140.695C100.69 140.948 100.395 141.328 100.521 141.708C100.648 142.087 101.154 142.172 101.534 142.172C103.56 142.003 105.079 140.146 107.062 139.724C106.007 140.273 104.994 140.906 104.066 141.623C103.138 142.383 102.462 143.396 102.125 144.535C102.04 144.746 102.04 144.999 102.167 145.21C102.336 145.548 102.842 145.548 103.18 145.463C105.079 145.041 106.387 143.353 108.075 142.383C107.104 143.1 106.176 143.902 105.374 144.788C104.572 145.717 104.108 146.898 104.108 148.08C104.108 148.544 104.404 149.093 104.826 148.966C104.952 148.924 105.037 148.839 105.121 148.755C106.471 147.489 107.737 146.096 108.919 144.619C108.286 145.674 107.991 146.898 108.117 148.08C108.159 148.882 108.539 149.683 109.172 150.19C109.847 150.612 110.945 150.443 111.24 149.683C111.409 149.261 111.282 148.755 111.282 148.291C111.367 146.392 114.236 145.59 115.755 145.801C118.372 146.139 124.238 147.489 125.672 147.531C127.107 147.573 138.543 142.341 138.543 142.341" fill="white"/>
<path d="M110.016 150.78C109.679 150.78 109.299 150.696 109.003 150.485C108.117 149.894 107.864 148.797 107.822 148.164C107.737 147.531 107.78 146.898 107.948 146.265C107.104 147.193 106.218 148.122 105.332 149.008C105.205 149.135 105.079 149.219 104.91 149.261C104.699 149.346 104.488 149.303 104.277 149.177C103.982 148.924 103.771 148.502 103.771 148.122C103.771 147.025 104.108 145.97 104.741 145.126C104.277 145.421 103.728 145.632 103.18 145.759C102.547 145.885 102.083 145.759 101.829 145.379C101.703 145.083 101.661 144.788 101.787 144.493C102.04 143.522 102.547 142.678 103.222 141.961C102.673 142.214 102.083 142.383 101.492 142.467C100.985 142.509 100.352 142.34 100.141 141.834C99.9305 141.328 100.479 140.695 100.648 140.526C104.277 136.939 108.792 135.926 112.759 135.42C116.557 134.955 122.381 137.403 123.225 137.783C126.601 136.686 131.918 134.913 132.467 134.576C132.551 134.491 132.678 134.449 132.804 134.491C132.973 134.533 133.057 134.702 132.973 134.871C132.931 135.04 132.804 135.335 123.309 138.374C123.225 138.416 123.183 138.416 123.098 138.374C123.056 138.331 116.684 135.504 112.844 136.01C109.003 136.517 104.615 137.487 101.112 140.948C100.817 141.243 100.69 141.454 100.732 141.623C100.774 141.792 101.154 141.918 101.45 141.876C102.462 141.792 103.349 141.243 104.319 140.652C105.121 140.104 106.007 139.682 106.978 139.429C107.104 139.386 107.273 139.471 107.315 139.597C107.358 139.724 107.315 139.893 107.189 139.977C106.134 140.484 105.163 141.117 104.235 141.876C103.349 142.594 102.716 143.564 102.378 144.661C102.336 144.788 102.336 144.957 102.378 145.126C102.462 145.294 102.842 145.294 103.095 145.252C104.235 144.999 105.163 144.282 106.134 143.522C106.682 143.058 107.273 142.636 107.906 142.256C108.033 142.172 108.202 142.214 108.286 142.34C108.37 142.467 108.328 142.636 108.244 142.762C107.273 143.438 106.387 144.239 105.627 145.126C104.868 145.97 104.446 147.109 104.404 148.248C104.404 148.459 104.488 148.67 104.657 148.839C104.699 148.839 104.741 148.839 104.741 148.839C104.826 148.797 104.868 148.755 104.91 148.713C106.26 147.447 107.526 146.054 108.708 144.619C108.792 144.493 109.003 144.45 109.13 144.535C109.257 144.619 109.299 144.788 109.214 144.915C108.624 145.885 108.328 147.067 108.455 148.206C108.497 148.713 108.708 149.641 109.383 150.063C109.721 150.274 110.101 150.316 110.438 150.19C110.691 150.105 110.902 149.936 110.987 149.725C111.071 149.472 111.071 149.219 111.029 148.966C111.029 148.797 111.029 148.628 111.029 148.459C111.071 147.784 111.409 147.193 111.957 146.771C113.097 145.927 114.447 145.548 115.84 145.716C117.021 145.885 118.878 146.223 120.693 146.603C122.803 147.025 124.955 147.447 125.715 147.447C126.77 147.447 133.901 144.366 138.417 142.256C138.586 142.172 138.754 142.256 138.797 142.383C138.839 142.509 138.797 142.72 138.67 142.762C137.488 143.311 127.149 148.037 125.672 147.995C124.871 147.953 122.761 147.573 120.566 147.151C118.752 146.814 116.895 146.434 115.755 146.307C114.532 146.181 113.308 146.518 112.337 147.236C111.915 147.531 111.662 147.995 111.62 148.502C111.62 148.67 111.62 148.797 111.62 148.966C111.662 149.303 111.62 149.641 111.535 149.979C111.367 150.401 111.029 150.696 110.607 150.823C110.438 150.738 110.227 150.78 110.016 150.78Z" fill="#231F20"/>
<path d="M144.325 78.112C144.325 78.112 172.81 114.657 164.074 125.503C155.339 136.348 129.133 146.645 129.133 146.645L122.634 134.618C122.634 134.618 147.701 122.549 148.249 120.101L129.808 98.4524C129.85 98.4524 134.239 76.2552 144.325 78.112Z" fill="#FFD600"/>
<path d="M147.996 119.721C147.912 119.721 147.828 119.679 147.785 119.637L133.775 103.601C133.648 103.474 133.691 103.306 133.817 103.179C133.944 103.052 134.113 103.095 134.239 103.221L148.25 119.257C148.376 119.384 148.334 119.553 148.207 119.679C148.165 119.679 148.081 119.721 147.996 119.721Z" fill="#231F20"/>
<path d="M111.576 110.142C111.492 110.142 111.408 110.1 111.365 110.058C111.281 109.973 104.191 102.63 102.757 101.027C101.322 99.4233 104.191 95.8785 105.078 94.8657C104.107 94.1483 100.731 91.5741 100.309 91.2365C100.098 91.0677 99.6339 90.6879 104.234 81.8681C104.318 81.7415 104.487 81.6571 104.613 81.7415C104.74 81.8259 104.824 81.9947 104.74 82.1213C102.799 85.8771 100.773 90.0549 100.731 90.8145C101.491 91.4053 105.626 94.5703 105.668 94.5703C105.753 94.6125 105.795 94.6969 105.795 94.7813C105.795 94.8657 105.795 94.9501 105.711 94.9923C104.656 96.1739 102.166 99.4233 103.179 100.605C104.571 102.208 111.703 109.551 111.787 109.636C111.914 109.762 111.914 109.931 111.787 110.058C111.703 110.1 111.661 110.142 111.576 110.142Z" fill="#231F20"/>
<path d="M123.308 109.298C123.14 109.298 123.013 109.171 123.013 109.002C123.013 108.96 123.013 108.876 123.055 108.834C125.376 105.669 131.453 97.0599 131.453 95.3297C131.453 93.6839 126.811 91.0253 125.039 90.1391C124.954 90.0969 124.912 90.0125 124.912 89.8859C124.912 89.7593 124.954 89.6749 125.081 89.6327C125.123 89.5905 131.073 86.3411 132.381 84.6953C132.424 84.6109 132.466 84.5687 132.424 84.4843C132.128 83.0073 126.389 79.5469 121.62 76.9727L121.578 76.9305C121.452 76.8461 121.367 76.6773 121.452 76.5085C121.536 76.3819 121.705 76.2975 121.874 76.3819L121.916 76.4241C125.123 78.1121 132.592 82.2899 133.057 84.3155C133.099 84.5687 133.057 84.8219 132.888 85.0329C131.706 86.5099 127.36 89.0419 125.883 89.8437C127.528 90.6877 132.128 93.3041 132.128 95.3297C132.128 97.5663 124.49 107.99 123.646 109.171C123.519 109.298 123.393 109.298 123.308 109.298Z" fill="#231F20"/>
<path d="M97.4822 128.794L95.2034 129.512L90.1394 111.45L92.376 110.775L97.4822 128.794Z" fill="white"/>
<path d="M95.2034 129.765C95.0768 129.765 94.9502 129.681 94.9502 129.554L89.844 111.535C89.8018 111.366 89.8862 111.239 90.055 111.155L92.2916 110.48C92.376 110.437 92.4604 110.48 92.5026 110.522C92.587 110.564 92.6292 110.606 92.6292 110.691L97.7354 128.71C97.7776 128.879 97.6932 129.048 97.5244 129.09L95.2878 129.765C95.2878 129.765 95.2456 129.765 95.2034 129.765ZM90.477 111.661L95.4144 129.132L97.1024 128.626L92.165 111.155L90.477 111.661Z" fill="#231F20"/>
<path d="M97.4829 128.794L95.2041 129.512L97.4407 133.056L97.4829 128.794Z" fill="white"/>
<path d="M97.4401 133.352C97.3557 133.352 97.2291 133.31 97.1869 133.226L94.9503 129.639C94.9081 129.554 94.9081 129.47 94.9081 129.385C94.9503 129.301 95.0347 129.217 95.1191 129.217L97.3557 128.541C97.4401 128.499 97.5245 128.541 97.6089 128.584C97.6933 128.626 97.7355 128.71 97.7355 128.837V133.099C97.7355 133.226 97.6511 133.352 97.5245 133.394C97.4823 133.352 97.4823 133.352 97.4401 133.352ZM95.6677 129.639L97.1447 132.002V129.174L95.6677 129.639Z" fill="#231F20"/>
<path d="M80.2658 118.54C80.2658 118.54 73.0496 120.143 71.5726 123.984C71.5726 123.984 83.0932 129.427 84.9922 129.892C86.8912 130.356 98.9182 129.638 98.9604 127.486C99.0026 125.334 98.1586 122.591 97.2724 121.789C96.3862 120.987 92.5882 121.072 92.5882 121.072C92.5038 120.312 92.335 119.553 91.9974 118.835C90.436 118.962 84.6968 120.27 80.2658 118.54Z" fill="white"/>
<path d="M87.0586 130.313C86.3412 130.356 85.6238 130.271 84.9064 130.187C82.9652 129.723 71.8666 124.49 71.4024 124.279C71.2758 124.194 71.1914 124.068 71.2336 123.899C72.7528 119.932 79.8424 118.329 80.1378 118.286C80.18 118.286 80.2644 118.286 80.3066 118.286C83.8514 119.679 88.2824 119.046 90.6456 118.751C91.1942 118.666 91.6162 118.624 91.9116 118.582C92.0382 118.582 92.1226 118.624 92.207 118.751C92.5024 119.426 92.7134 120.101 92.7978 120.818C93.7262 120.818 96.638 120.861 97.4398 121.62C98.4104 122.506 99.2544 125.334 99.2122 127.528C99.17 127.866 99.0012 128.203 98.7058 128.414C97.06 129.723 90.6456 130.313 87.0586 130.313ZM71.9088 123.857C73.639 124.659 83.3028 129.216 85.033 129.638C86.7632 130.06 96.3426 129.512 98.3682 127.95C98.537 127.866 98.6214 127.697 98.6636 127.528C98.7058 125.334 97.8196 122.76 97.06 122.042C96.4692 121.494 94.0216 121.367 92.5868 121.409C92.418 121.409 92.2914 121.283 92.2914 121.156C92.207 120.481 92.0804 119.848 91.8272 119.215C91.574 119.257 91.1942 119.299 90.7722 119.341C88.3668 119.679 83.8936 120.27 80.2222 118.877C79.4626 119.046 73.4702 120.565 71.9088 123.857Z" fill="#231F20"/>
<path d="M90.7308 113.729C90.562 113.729 90.4354 113.602 90.4354 113.433C90.4354 113.307 90.5198 113.222 90.6042 113.18L92.7986 112.336C92.9252 112.252 93.1362 112.336 93.1784 112.463C93.2628 112.589 93.1784 112.8 93.0518 112.843H93.0096L90.8152 113.687C90.8152 113.687 90.773 113.729 90.7308 113.729Z" fill="#231F20"/>
<path d="M95.7516 130.651C95.625 130.651 95.4984 130.566 95.4562 130.398C95.414 130.229 95.5406 130.102 95.7094 130.06L97.3974 129.765C97.5662 129.722 97.735 129.807 97.7772 129.976C97.8194 130.144 97.735 130.313 97.5662 130.355H97.524L95.7516 130.651Z" fill="#231F20"/>
<path d="M93.9807 76.2129C93.9807 76.2129 42.3279 112.842 48.3625 118.582C54.3971 124.321 78.5777 128.836 78.5777 128.836L84.1059 118.202L72.2899 112.336C75.6659 110.142 93.9807 98.3679 93.9807 98.3679V76.2129Z" fill="#FFD600"/>
<path d="M92.3347 108.159C92.1659 108.159 92.0393 108.032 92.0393 107.905L89.4229 86.9742C89.4229 86.8054 89.5073 86.6788 89.6761 86.6366C89.8449 86.5944 89.9715 86.721 90.0137 86.8898L92.6301 107.821C92.6723 107.99 92.5457 108.116 92.3347 108.159C92.3769 108.159 92.3769 108.159 92.3347 108.159Z" fill="#231F20"/>
<path d="M89.1695 138.627C89.1273 138.627 89.0851 138.627 89.0429 138.584L69.0401 128.456C68.8713 128.414 68.8291 128.245 68.8713 128.077C68.9135 127.908 69.0823 127.866 69.2511 127.908C69.2933 127.908 69.2933 127.908 69.2933 127.95L89.2961 138.078C89.4227 138.162 89.5071 138.331 89.4227 138.458C89.4227 138.542 89.2961 138.627 89.1695 138.627Z" fill="#D1D3D4"/>
<path d="M147.109 146.392L129.132 154.579L142.425 160.698L160.528 151.667L147.109 146.392Z" fill="white"/>
<path d="M142.426 160.993C142.383 160.993 142.341 160.993 142.299 160.951L129.006 154.874C128.837 154.789 128.795 154.621 128.879 154.494C128.922 154.452 128.964 154.367 129.006 154.367L146.983 146.138C147.068 146.096 147.152 146.096 147.194 146.138L160.614 151.413C160.74 151.456 160.783 151.54 160.783 151.667C160.783 151.793 160.74 151.878 160.614 151.962L142.51 160.951C142.51 160.951 142.468 160.993 142.426 160.993ZM129.85 154.578L142.426 160.36L159.812 151.709L147.11 146.687L129.85 154.578Z" fill="#D1D3D4"/>
<path d="M141.75 147.151L123.773 155.38L137.066 161.457L155.169 152.426L141.75 147.151Z" fill="white"/>
<path d="M137.067 161.752C137.024 161.752 136.982 161.753 136.94 161.71L123.647 155.633C123.478 155.549 123.436 155.38 123.52 155.254C123.563 155.169 123.605 155.127 123.647 155.127L141.624 146.898C141.709 146.856 141.793 146.856 141.835 146.898L155.297 152.215C155.424 152.258 155.466 152.342 155.466 152.468C155.466 152.595 155.424 152.68 155.297 152.764L137.193 161.795C137.151 161.752 137.109 161.752 137.067 161.752ZM124.491 155.38L137.067 161.162L154.453 152.511L141.751 147.489L124.491 155.38Z" fill="#D1D3D4"/>
<path d="M138.122 158.756C138.079 158.756 138.037 158.756 137.995 158.714L129.428 154.874C129.26 154.789 129.217 154.621 129.26 154.494C129.344 154.325 129.513 154.283 129.639 154.325L138.206 158.208C138.375 158.292 138.417 158.461 138.375 158.587C138.333 158.714 138.206 158.756 138.122 158.756Z" fill="#D1D3D4"/>
<path d="M141.287 157.153C141.245 157.153 141.203 157.153 141.161 157.11L132.594 153.228C132.425 153.144 132.383 152.975 132.425 152.848C132.467 152.722 132.678 152.637 132.805 152.679L141.372 156.562C141.54 156.646 141.583 156.815 141.54 156.942C141.498 157.11 141.414 157.153 141.287 157.153Z" fill="#D1D3D4"/>
<path d="M144.409 155.76C144.367 155.76 144.325 155.76 144.283 155.718L135.716 151.836C135.547 151.751 135.505 151.583 135.547 151.456C135.632 151.287 135.8 151.245 135.927 151.287L144.494 155.17C144.62 155.254 144.705 155.423 144.662 155.549C144.62 155.676 144.536 155.76 144.409 155.76Z" fill="#D1D3D4"/>
<path d="M147.7 153.819C147.658 153.819 147.615 153.819 147.573 153.777L139.007 149.894C138.88 149.81 138.838 149.641 138.88 149.472C138.964 149.346 139.091 149.303 139.218 149.346L147.784 153.228C147.953 153.312 147.995 153.481 147.953 153.608C147.953 153.777 147.826 153.819 147.7 153.819Z" fill="#D1D3D4"/>
</svg>
