<svg width="182" height="208" viewBox="0 0 182 208" fill="none" xmlns="http://www.w3.org/2000/svg">
<path d="M175.594 114.652H7.17603V123.959H175.594V114.652Z" fill="white"/>
<path d="M175.595 124.352H7.17651C6.95225 124.352 6.78406 124.184 6.78406 123.959V114.653C6.78406 114.428 6.95225 114.26 7.17651 114.26H175.595C175.819 114.26 175.987 114.428 175.987 114.653V123.959C175.987 124.184 175.819 124.352 175.595 124.352ZM7.56896 123.567H175.202V115.045H7.56896V123.567Z" fill="#D1D3D4"/>
<path d="M170.774 123.959H11.9985V182.042H170.774V123.959Z" fill="white"/>
<path d="M170.773 182.435H11.9978C11.7735 182.435 11.6053 182.267 11.6053 182.042V123.959C11.6053 123.735 11.7735 123.567 11.9978 123.567H170.773C170.997 123.567 171.165 123.735 171.165 123.959V182.042C171.165 182.211 170.997 182.435 170.773 182.435ZM12.3903 181.65H170.381V124.352H12.3903V181.65Z" fill="#D1D3D4"/>
<path d="M67.838 176.268H20.7436C20.5194 176.268 20.3512 176.099 20.3512 175.875V130.126C20.3512 129.902 20.5194 129.734 20.7436 129.734H67.838C68.0622 129.734 68.2304 129.902 68.2304 130.126V175.875C68.2304 176.099 68.0622 176.268 67.838 176.268ZM21.1922 175.483H67.5016V130.519H21.1922V175.483Z" fill="#D1D3D4"/>
<path d="M114.932 176.268H67.838C67.6137 176.268 67.4456 176.099 67.4456 175.875V130.126C67.4456 129.902 67.6137 129.734 67.838 129.734H114.932C115.157 129.734 115.325 129.902 115.325 130.126V175.875C115.325 176.099 115.157 176.268 114.932 176.268ZM68.2305 175.483H114.54V130.519H68.2305V175.483Z" fill="#D1D3D4"/>
<path d="M161.971 176.268H114.932C114.708 176.268 114.54 176.099 114.54 175.875V130.126C114.54 129.902 114.708 129.734 114.932 129.734H162.027C162.251 129.734 162.419 129.902 162.419 130.126V175.875C162.419 176.099 162.251 176.268 161.971 176.268C162.027 176.268 162.027 176.268 161.971 176.268ZM115.325 175.483H161.634V130.519H115.325V175.483Z" fill="#D1D3D4"/>
<path d="M121.234 99.2678L120.921 101.091L133.961 103.33L134.274 101.507L121.234 99.2678Z" fill="white"/>
<path d="M133.995 103.72H133.939L120.932 101.477C120.82 101.477 120.764 101.421 120.652 101.309C120.596 101.197 120.54 101.141 120.596 101.029L120.876 99.2348C120.932 99.0106 121.1 98.8984 121.324 98.8984L134.388 101.141C134.5 101.141 134.556 101.197 134.668 101.309C134.724 101.421 134.78 101.477 134.724 101.59L134.388 103.384C134.331 103.608 134.163 103.72 133.995 103.72ZM121.381 100.749L133.659 102.879L133.827 101.814L121.549 99.6833L121.381 100.749Z" fill="#D1D3D4"/>
<path d="M124.912 102.542L114.092 100.692C113.475 100.58 113.082 100.02 113.195 99.4028L113.363 98.3937C113.475 97.777 114.036 97.3845 114.652 97.4966L125.473 99.3468C126.09 99.4589 126.482 100.02 126.37 100.636L126.202 101.645C126.09 102.206 125.529 102.655 124.912 102.542Z" fill="white"/>
<path d="M124.744 102.879C124.632 102.879 124.519 102.879 124.407 102.823L114.484 101.141C113.419 100.973 112.69 99.9635 112.858 98.8422V98.7301C113.026 97.6649 114.091 96.936 115.157 97.1042L125.08 98.7862C126.145 98.9543 126.874 99.9635 126.706 101.085V101.197C126.538 102.15 125.697 102.879 124.744 102.879ZM114.82 97.8891C114.26 97.8891 113.755 98.3376 113.643 98.8983V99.0104C113.587 99.3468 113.643 99.6271 113.867 99.9074C114.035 100.188 114.316 100.356 114.652 100.412L124.576 102.094C125.248 102.206 125.865 101.758 125.977 101.141V101.029C126.033 100.692 125.977 100.412 125.753 100.132C125.585 99.8514 125.304 99.6832 124.968 99.6271L115.045 97.9452C114.988 97.8891 114.932 97.8891 114.82 97.8891Z" fill="#D1D3D4"/>
<path d="M165.279 114.652H128.108C127.379 114.652 126.818 114.092 126.818 113.363V110.728C126.818 109.999 127.379 109.438 128.108 109.438H165.279C166.008 109.438 166.568 109.999 166.568 110.728V113.363C166.568 114.092 166.008 114.652 165.279 114.652Z" fill="white"/>
<path d="M164.775 115.045H128.613C127.435 115.045 126.426 114.092 126.426 112.858V111.232C126.426 110.055 127.379 109.046 128.613 109.046H164.775C165.952 109.046 166.961 109.999 166.961 111.232V112.858C166.961 114.092 165.952 115.045 164.775 115.045ZM128.613 109.887C127.828 109.887 127.211 110.504 127.211 111.288V112.914C127.211 113.699 127.828 114.316 128.613 114.316H164.775C165.559 114.316 166.176 113.699 166.176 112.914V111.288C166.176 110.504 165.559 109.887 164.775 109.887H128.613Z" fill="#D1D3D4"/>
<path d="M159.112 109.439L156.421 105.57H154.795L156.421 109.439H159.112Z" fill="white"/>
<path d="M159.112 109.831H156.421C156.253 109.831 156.141 109.719 156.085 109.607L154.459 105.738C154.347 105.514 154.459 105.29 154.683 105.234C154.739 105.234 154.795 105.178 154.851 105.178H156.477C156.589 105.178 156.701 105.234 156.814 105.346L159.505 109.214C159.617 109.383 159.617 109.663 159.392 109.775C159.28 109.831 159.224 109.831 159.112 109.831ZM156.701 109.046H158.383L156.253 105.963H155.412L156.701 109.046Z" fill="#D1D3D4"/>
<path d="M133.826 109.495L136.013 106.299H137.358L136.013 109.495H133.826Z" fill="white"/>
<path d="M136.013 109.887H133.77C133.602 109.887 133.49 109.831 133.434 109.663C133.378 109.55 133.378 109.382 133.434 109.27L135.676 106.074C135.732 105.962 135.845 105.906 136.013 105.906H137.358C137.47 105.906 137.639 105.962 137.695 106.074C137.751 106.187 137.807 106.299 137.751 106.467L136.405 109.663C136.349 109.775 136.181 109.887 136.013 109.887ZM134.555 109.102H135.788L136.798 106.747H136.237L134.555 109.102Z" fill="#D1D3D4"/>
<path d="M147.282 106.299H145.656V109.495H147.282V106.299Z" fill="white"/>
<path d="M147.282 109.887H145.656C145.432 109.887 145.264 109.719 145.264 109.494V106.355C145.264 106.131 145.432 105.962 145.656 105.962H147.282C147.506 105.962 147.675 106.131 147.675 106.355V109.494C147.675 109.719 147.506 109.887 147.282 109.887ZM146.049 109.102H146.89V106.747H146.049V109.102Z" fill="#D1D3D4"/>
<path d="M159.841 106.299H133.042C132.033 106.299 131.248 105.458 131.248 104.505V99.459H161.691V104.505C161.691 105.514 160.85 106.299 159.841 106.299Z" fill="white"/>
<path d="M159.168 106.691H133.827C132.201 106.691 130.856 105.346 130.856 103.72V99.4027C130.856 99.1784 131.024 99.0103 131.248 99.0103H161.691C161.915 99.0103 162.084 99.1784 162.084 99.4027V103.72C162.084 105.402 160.794 106.691 159.168 106.691ZM131.64 99.7952V103.72C131.64 104.897 132.594 105.906 133.827 105.906H159.168C160.346 105.906 161.355 104.953 161.355 103.72V99.7952H131.64Z" fill="#D1D3D4"/>
<path d="M20.8561 97.1602H51.5795V112.017C51.5795 113.475 50.4022 114.652 48.9445 114.652H23.4911C22.0334 114.652 20.8561 113.475 20.8561 112.017V97.1602Z" fill="white"/>
<path d="M47.8799 115.045H24.5009C22.2583 115.045 20.4082 113.251 20.4082 110.952V97.16C20.4082 96.9358 20.5764 96.7676 20.8007 96.7676H51.5802C51.8044 96.7676 51.9726 96.9358 51.9726 97.16V111.008C51.9726 113.251 50.1225 115.045 47.8799 115.045ZM21.2492 97.5525V111.008C21.2492 112.802 22.7069 114.316 24.557 114.316H47.936C49.73 114.316 51.2438 112.858 51.2438 111.008V97.5525H21.2492Z" fill="#D1D3D4"/>
<path d="M36.2178 91.1055C26.7989 91.1055 20.8561 93.8526 20.8561 97.2165H51.5795C51.5795 93.7966 45.6367 91.1055 36.2178 91.1055Z" fill="white"/>
<path d="M51.5799 97.5527H20.8564C20.6322 97.5527 20.464 97.3845 20.464 97.1602C20.464 93.3478 26.9675 90.6567 36.2182 90.6567C45.4688 90.6567 51.9723 93.3478 51.9723 97.1602C51.9723 97.3845 51.8041 97.5527 51.5799 97.5527ZM21.2489 96.7678H51.1314C50.6829 94.0767 45.581 91.4416 36.2182 91.4416C26.8554 91.4416 21.7535 94.0767 21.2489 96.7678Z" fill="#D1D3D4"/>
<path d="M18.1096 98.4497H20.8567V99.7953H18.1096C17.8292 99.7953 17.605 99.571 17.605 99.2907V98.8982C17.605 98.674 17.8292 98.5058 18.1096 98.4497Z" fill="white"/>
<path d="M20.8558 100.244H18.3329C17.7162 100.244 17.2677 99.7392 17.2677 99.1785C17.2677 98.5618 17.7723 98.1133 18.3329 98.1133H20.8558C21.0801 98.1133 21.2483 98.2815 21.2483 98.5057V99.8513C21.2483 100.076 21.0801 100.244 20.8558 100.244ZM18.2769 98.8421C18.1087 98.8421 17.9965 98.9543 17.9965 99.1224C17.9965 99.2906 18.1087 99.4028 18.2769 99.4028H20.4073V98.8421H18.2769Z" fill="#D1D3D4"/>
<path d="M51.58 98.4497H54.3271C54.6074 98.4497 54.8317 98.674 54.8317 98.9543V99.3467C54.8317 99.6271 54.6074 99.8513 54.3271 99.8513H51.58V98.4497Z" fill="white"/>
<path d="M54.1583 100.244H51.5793C51.3551 100.244 51.1869 100.076 51.1869 99.8513V98.5057C51.1869 98.2815 51.3551 98.1133 51.5793 98.1133H54.1583C54.775 98.1133 55.2235 98.6179 55.2235 99.1785C55.2235 99.7392 54.719 100.244 54.1583 100.244ZM51.9718 99.4588H54.1583C54.3265 99.4588 54.4386 99.3467 54.4386 99.1785C54.4386 99.0103 54.3265 98.8982 54.1583 98.8982H51.9718V99.4588Z" fill="#D1D3D4"/>
<path d="M40.4785 93.0115H31.9567C31.7324 93.0115 31.5642 92.8433 31.5642 92.619V91.2735C31.5642 89.3673 33.078 87.8535 34.9841 87.8535H37.3949C39.3011 87.8535 40.8149 89.4233 40.8149 91.2735V92.619C40.8709 92.8433 40.7028 93.0115 40.4785 93.0115ZM32.3491 92.2266H40.086V91.2735C40.086 89.8158 38.9087 88.6384 37.451 88.5824H35.0402C33.5825 88.5824 32.4052 89.7597 32.4052 91.2735L32.3491 92.2266Z" fill="#D1D3D4"/>
<path d="M73.4449 28.2003C73.0524 27.6958 72.4357 27.3594 71.7629 27.3594C71.4826 27.3594 71.2023 27.4715 70.978 27.6397C70.7538 27.92 70.5856 28.2564 70.5856 28.6489C70.4174 29.602 70.4174 30.6111 70.6417 31.5642C70.8659 32.5173 71.4266 33.4144 72.2115 34.0311C73.0524 34.7038 74.2298 34.816 74.6783 33.6386C75.4072 31.6203 74.7904 29.7141 73.4449 28.2003Z" fill="white"/>
<path d="M73.5011 34.8723C72.9404 34.8723 72.3798 34.6481 71.9873 34.3117C71.1464 33.6389 70.5857 32.6858 70.3054 31.6206C70.0811 30.6114 70.0251 29.5462 70.2493 28.537C70.3054 28.0885 70.4736 27.696 70.7539 27.3597C71.0342 27.0793 71.4267 26.9111 71.8191 26.9111C72.6041 26.9111 73.3329 27.3036 73.8375 27.9203C75.3512 29.7144 75.7997 31.7888 75.0709 33.751C74.9027 34.2556 74.5102 34.6481 74.0057 34.8163C73.7814 34.8163 73.6132 34.8723 73.5011 34.8723ZM71.8191 27.696C71.5949 27.696 71.3706 27.7521 71.2024 27.8642C71.0342 28.0885 70.9221 28.3688 70.9221 28.5931C70.7539 29.4901 70.7539 30.4432 70.9782 31.3402C71.2024 32.2373 71.707 33.0222 72.3798 33.5828C72.7162 33.9192 73.2208 34.0313 73.6693 33.9753C73.9496 33.8632 74.1739 33.6389 74.2299 33.3586C75.0709 31.116 73.8935 29.2658 73.1086 28.3128C72.7722 28.0324 72.3237 27.7521 71.8191 27.696Z" fill="#231F20"/>
<path d="M119.699 183.051C119.867 183.5 124.688 191.237 124.688 191.237C124.688 191.237 129.846 192.694 133.659 189.218L129.454 179.295L119.699 183.051Z" fill="white"/>
<path d="M127.323 192.021C126.426 192.021 125.473 191.909 124.576 191.685C124.464 191.685 124.408 191.629 124.352 191.517C123.23 189.667 119.474 183.724 119.306 183.219C119.25 182.995 119.362 182.827 119.53 182.715L129.341 179.014C129.566 178.958 129.734 179.014 129.846 179.239L134.051 189.162C134.107 189.33 134.107 189.498 133.939 189.611C132.145 191.18 129.79 192.021 127.323 192.021ZM124.968 190.956C125.809 191.124 130.014 191.909 133.21 189.218L129.285 179.911L120.259 183.331C120.988 184.509 123.343 188.377 124.968 190.956Z" fill="#231F20"/>
<path d="M77.2583 191.068L64.868 200.375C64.9802 203.963 72.7171 202.842 79.8373 200.992C86.9575 199.142 88.3031 197.628 88.3031 197.628L88.0228 191.461L77.2583 191.068Z" fill="#231F20"/>
<path d="M69.3525 203.179C67.5584 203.179 66.2129 202.898 65.428 202.282C64.8112 201.833 64.4749 201.16 64.4749 200.431C64.4749 200.319 64.5309 200.207 64.643 200.095L77.0333 190.788C77.0894 190.732 77.2015 190.676 77.2576 190.732L88.022 191.125C88.2463 191.125 88.4145 191.293 88.4145 191.517L88.6948 197.684C88.6948 197.796 88.6387 197.908 88.5827 197.965C88.5266 198.021 87.0129 199.59 79.8926 201.441C75.4635 202.562 71.9315 203.179 69.3525 203.179ZM65.2598 200.6C65.3158 201.048 65.5401 201.385 65.8765 201.665C67.5584 202.898 72.4921 202.562 79.7244 200.656C85.5552 199.142 87.4614 197.852 87.9099 197.46L87.6296 191.797L77.3697 191.405L65.2598 200.6Z" fill="#231F20"/>
<path d="M87.4055 180.809L88.0222 191.405C88.0222 191.405 81.7991 194.32 77.2578 191.012L75.0713 178.566L87.4055 180.809Z" fill="white"/>
<path d="M82.4723 193.031C80.5101 193.087 78.6038 192.47 77.034 191.349C76.978 191.293 76.9219 191.18 76.8658 191.124L74.6793 178.678C74.6793 178.566 74.6793 178.398 74.7914 178.342C74.9036 178.229 75.0157 178.229 75.1278 178.229L87.5181 180.472C87.6863 180.528 87.8545 180.64 87.8545 180.808L88.4712 191.405C88.4712 191.573 88.4152 191.741 88.247 191.797C86.3968 192.582 84.4346 193.031 82.4723 193.031ZM77.5947 190.844C81.4071 193.535 86.4529 191.685 87.6303 191.18L87.0696 181.145L75.5203 179.07L77.5947 190.844Z" fill="#231F20"/>
<path d="M67.7271 104.785L102.543 97.1602L132.258 182.827C128.557 185.967 123.455 186.864 118.858 185.294L88.0225 127.379L89.4802 185.967C83.1449 189.106 75.0155 185.854 75.0155 185.854C69.1287 168.474 64.0829 104.785 64.0829 104.785" fill="#231F20"/>
<path d="M83.032 187.705C80.2288 187.648 77.4816 187.144 74.8466 186.191C74.7344 186.135 74.6784 186.079 74.6223 185.967C68.7916 168.755 63.7458 105.458 63.6897 104.841C63.6897 104.617 63.8579 104.448 64.0261 104.448C64.2503 104.448 64.4185 104.617 64.4185 104.785C64.4746 105.402 69.4644 168.25 75.2951 185.574C76.4724 186.023 83.4805 188.377 89.0309 185.742L87.5732 127.435C87.5732 127.211 87.7414 127.043 87.9657 127.043C88.1339 127.043 88.246 127.099 88.3021 127.267L119.082 185.013C123.399 186.471 128.164 185.63 131.752 182.771L102.262 97.6646L67.7824 105.177C67.5582 105.233 67.39 105.065 67.3339 104.897C67.2778 104.673 67.39 104.505 67.6142 104.448L102.43 96.8237C102.599 96.7676 102.823 96.8797 102.879 97.0479L132.593 182.715C132.649 182.883 132.593 183.051 132.481 183.163C128.613 186.359 123.399 187.312 118.689 185.686C118.633 185.63 118.521 185.574 118.465 185.518L88.4142 129.061L89.8158 185.967C89.8158 186.135 89.7598 186.247 89.5916 186.303C87.5733 187.256 85.3307 187.761 83.032 187.705Z" fill="#231F20"/>
<path d="M124.744 191.293C124.744 191.293 126.146 196.955 126.651 197.572C127.155 198.189 145.937 201.945 146.89 199.702C147.843 197.46 133.715 189.274 133.715 189.274C133.715 189.274 128.669 191.966 124.744 191.293Z" fill="#231F20"/>
<path d="M144.087 200.824C138.705 200.824 127.044 198.637 126.371 197.852C125.81 197.18 124.577 192.358 124.352 191.405C124.296 191.181 124.408 191.013 124.633 190.956C124.689 190.956 124.745 190.956 124.801 190.956C128.557 191.573 133.491 188.994 133.547 188.994C133.659 188.938 133.827 188.938 133.939 188.994C137.303 190.956 148.292 197.628 147.283 199.927C147.115 200.375 146.61 200.6 145.713 200.768C145.152 200.768 144.592 200.824 144.087 200.824ZM125.249 191.741C125.866 194.32 126.651 197.011 126.931 197.348C127.772 197.908 142.742 200.824 146.049 199.871C146.33 199.815 146.442 199.703 146.498 199.646C146.89 198.749 142.069 194.713 133.659 189.779C132.762 190.172 128.725 192.078 125.249 191.741Z" fill="#231F20"/>
<path d="M92.844 31.7888C93.5728 29.7144 93.741 27.4718 93.2925 25.2853C92.5076 22.0335 88.0785 18.5575 84.9389 18.7818C81.7993 19.006 73.5577 22.8184 73.1653 23.9958C72.7728 25.1732 72.1001 34.2556 73.8381 35.433C75.6321 36.6664 91.6666 35.6012 92.844 31.7888Z" fill="white"/>
<path d="M77.5375 36.3298C75.6313 36.3298 74.1176 36.1616 73.613 35.8253C71.4825 34.4236 72.4356 24.9487 72.772 23.9395C73.2205 22.5379 81.7424 18.6695 84.882 18.4452C88.1898 18.2209 92.7871 21.753 93.6281 25.229C94.0766 27.4716 93.9645 29.7703 93.1796 31.9568C92.8432 32.966 91.7219 33.8069 89.7596 34.5358C86.4518 35.7131 81.1817 36.3298 77.5375 36.3298ZM85.2744 19.2301H84.9941C81.8545 19.4544 73.8933 23.2668 73.5569 24.1638C73.2205 26.0139 73.1084 27.8641 73.1084 29.7703C73.1084 34.1433 73.8373 34.9843 74.0615 35.1525C75.1828 35.8813 84.4895 35.601 89.4793 33.7509C91.2173 33.1341 92.2265 32.4053 92.4507 31.6765C93.1235 29.6581 93.2917 27.5277 92.8432 25.3972C92.1704 22.4258 88.1337 19.2301 85.2744 19.2301Z" fill="#231F20"/>
<path d="M75.1837 17.9407C75.1837 17.9407 73.3336 19.7348 70.194 17.9407C67.0544 16.1467 67.7271 12.5025 68.6242 11.213C69.5212 9.92349 72.2123 7.45664 74.7352 8.07336C77.2581 8.69007 78.0991 9.36284 78.0991 9.36284C78.0991 9.36284 80.1735 8.12942 84.7708 8.01729C89.3681 7.90516 90.8819 10.3159 90.8819 10.3159C90.8819 10.3159 94.5821 8.85826 96.8247 10.9327C98.843 12.6707 99.1794 15.6982 97.5536 17.8286C96.1519 19.5106 90.3212 19.062 90.3212 19.062L75.1837 17.9407Z" fill="white"/>
<path d="M92.003 19.5665C91.162 19.5665 90.4892 19.5105 90.2649 19.5105L75.3517 18.3892C74.8472 18.7816 72.941 20.015 70.0817 18.277C68.8482 17.6043 68.0073 16.4269 67.6709 15.0253C67.3906 13.6237 67.6148 12.166 68.3437 10.9886C69.2968 9.64308 72.1561 7.00804 74.9032 7.68082C76.0806 7.90507 77.1458 8.35359 78.211 8.91424C78.8838 8.57785 80.9582 7.68082 84.8267 7.62475C88.6951 7.56869 90.4892 9.19456 91.0499 9.86734C92.003 9.53095 95.0304 8.74605 97.1609 10.7083C99.3474 12.6145 99.6838 15.8663 97.8897 18.1649C96.8245 19.3423 93.9092 19.5665 92.003 19.5665ZM75.1836 17.5482L90.321 18.7256C91.8908 18.8377 96.2078 18.8938 97.273 17.6043C98.7868 15.642 98.5065 12.8388 96.6003 11.2129C94.5259 9.30669 91.0499 10.6522 91.0499 10.6522C90.8817 10.7083 90.6574 10.6522 90.5453 10.484C90.4892 10.3719 89.0876 8.29753 84.7706 8.35359C80.2854 8.46572 78.3232 9.64308 78.2671 9.64308C78.0989 9.69914 77.9307 9.69915 77.8186 9.58702C77.8186 9.58702 76.9776 8.91424 74.6229 8.35359C72.2682 7.79295 69.7453 10.1477 68.9043 11.325C68.2876 12.3342 68.1194 13.5676 68.3437 14.745C68.5679 15.9223 69.3528 16.8754 70.362 17.4921C73.1652 19.1741 74.8472 17.6043 74.8472 17.6043C74.9593 17.6043 75.0714 17.5482 75.1836 17.5482Z" fill="#231F20"/>
<path d="M78.2673 40.7589L76.8096 48.3837C76.8096 48.3837 79.2764 53.1492 84.2662 51.8597C89.2559 50.5702 90.0408 46.7017 90.0408 46.7017L90.3772 38.5724L90.6015 33.5826C90.7136 33.078 90.7136 32.5734 90.6576 32.0128C90.4894 31.5082 89.8726 31.1158 89.5363 30.7233C89.0877 30.1066 88.6392 29.4338 88.3028 28.705C87.574 27.3034 87.0694 25.8457 86.733 24.2759C84.8268 24.4441 82.9206 23.8834 81.4069 22.7061C80.8462 23.6592 82.5282 24.5562 82.4721 25.6775C80.622 25.3972 78.2673 24.7804 77.0338 23.4349C76.4171 23.3788 73.8942 27.864 73.5578 29.602C73.0532 31.9007 72.9972 34.3114 73.3896 36.6101C74.0624 40.4786 78.2673 40.7589 78.2673 40.7589Z" fill="white"/>
<path d="M82.6396 52.4208C78.6029 52.4208 76.5285 48.5523 76.5285 48.5523C76.4725 48.4963 76.4724 48.3841 76.4724 48.3281L77.818 41.1518C76.6406 40.9275 73.6131 40.0866 72.9964 36.7227C72.604 34.368 72.6601 31.9011 73.1646 29.5464C73.5571 28.2008 74.1177 26.8553 74.8466 25.6779C76.3603 22.9868 76.8649 23.0429 77.0892 23.099C77.2013 23.099 77.2574 23.155 77.3134 23.2111C78.2105 24.1081 79.7803 24.7809 82.0229 25.2294C81.9107 25.0052 81.7425 24.7248 81.5743 24.5006C81.1819 23.9399 80.6773 23.2671 81.1258 22.5383C81.1819 22.4262 81.294 22.3701 81.4061 22.3701C81.5183 22.3701 81.6304 22.3701 81.7425 22.4262C83.2002 23.4914 84.9943 24.0521 86.7884 23.8839C87.0126 23.8839 87.1808 23.996 87.1808 24.2202C87.4611 25.734 87.9657 27.1917 88.6946 28.5372C89.0309 29.21 89.4234 29.8828 89.8719 30.4995C89.984 30.6677 90.0962 30.7798 90.2644 30.8919C90.6008 31.1723 90.8811 31.5087 91.0493 31.9011C91.1614 32.2936 91.1614 32.7421 91.0493 33.1906C91.0493 33.3588 90.9932 33.4709 90.9932 33.5831L90.4326 46.7583C90.4326 46.8143 89.6477 50.907 84.3776 52.3087C83.8169 52.3647 83.2002 52.4208 82.6396 52.4208ZM77.2574 48.272C77.6498 49.0008 79.9485 52.5329 84.2094 51.4116C88.9188 50.1782 89.7037 46.5901 89.7037 46.534L90.2083 33.4709C90.2083 33.3588 90.2644 33.1906 90.2644 32.9663C90.3204 32.686 90.3204 32.3496 90.3204 32.0693C90.2083 31.789 89.984 31.5647 89.7598 31.3405C89.5916 31.1723 89.4234 31.0041 89.3113 30.8359C88.8067 30.1631 88.4142 29.4903 88.0218 28.7615C87.349 27.4159 86.8444 26.0143 86.508 24.5566C84.8822 24.6127 83.2563 24.1642 81.8547 23.3232C81.9668 23.4914 82.0789 23.7157 82.2471 23.8839C82.6956 24.3324 82.9199 24.9491 82.9199 25.5658C82.9199 25.6779 82.8638 25.7901 82.7517 25.8461C82.6396 25.9022 82.5835 25.9583 82.4714 25.9022C79.9485 25.5097 78.0983 24.7809 76.977 23.7717C76.3043 24.4445 74.2859 27.9205 73.9495 29.5464C73.445 31.789 73.3889 34.1437 73.7813 36.4424C74.3981 39.9744 78.2665 40.2548 78.3226 40.2548C78.4347 40.2548 78.5468 40.3108 78.6029 40.4229C78.659 40.5351 78.715 40.6472 78.659 40.7593L77.2574 48.272Z" fill="#231F20"/>
<path d="M77.5383 44.7399C79.2763 45.0763 81.1265 44.4595 82.3599 43.17C84.5464 40.9835 84.3222 39.1895 84.3222 39.1895C84.3222 39.1895 81.575 41.3199 78.2672 40.7032L77.5383 44.7399Z" fill="#231F20"/>
<path d="M78.4349 45.2445C78.0985 45.2445 77.7621 45.2445 77.4257 45.1324C77.2015 45.0763 77.0893 44.9081 77.1454 44.6839L77.8742 40.7033C77.9303 40.479 78.0985 40.3669 78.3227 40.3669C81.4063 40.9275 84.0413 38.9092 84.0413 38.9092C84.2095 38.7971 84.4338 38.7971 84.602 38.9653C84.6581 39.0213 84.6581 39.0774 84.6581 39.1335C84.6581 39.1895 84.8823 41.1518 82.5837 43.3944C81.5184 44.6278 80.0047 45.2445 78.4349 45.2445ZM77.9864 44.4596C79.5001 44.6278 81.0138 44.0672 82.0791 42.9459C82.92 42.161 83.5368 41.1518 83.8732 40.0305C82.3033 40.9836 80.4532 41.3761 78.6031 41.2079L77.9864 44.4596Z" fill="#231F20"/>
<path d="M82.1356 28.3125C82.1356 28.3125 79.4445 32.181 80.0612 32.9098C80.6779 33.6386 82.4159 33.1901 82.4159 33.1901" fill="white"/>
<path d="M81.2949 33.6949C80.7343 33.751 80.1736 33.5267 79.7251 33.1343C79.0524 32.3493 80.454 29.9386 81.7995 28.0884C81.9117 27.9202 82.1359 27.8642 82.3602 27.9763C82.5284 28.0884 82.5844 28.3688 82.4723 28.537C81.2389 30.331 80.2297 32.2933 80.3418 32.6297C80.6782 33.0221 81.7995 32.8539 82.3041 32.7418C82.5284 32.6857 82.6966 32.7979 82.7526 33.0221C82.8087 33.2464 82.6966 33.4706 82.4723 33.4706C82.1359 33.6388 81.6874 33.6388 81.2949 33.6949Z" fill="#231F20"/>
<path d="M85.3333 28.9823C85.7039 28.9568 85.9768 28.5354 85.9428 28.0412C85.9087 27.547 85.5807 27.167 85.21 27.1925C84.8393 27.2181 84.5664 27.6394 84.6005 28.1337C84.6345 28.6279 84.9626 29.0078 85.3333 28.9823Z" fill="#231F20"/>
<path d="M79.766 28.1661C79.879 27.6838 79.6774 27.224 79.3156 27.1392C78.9539 27.0545 78.569 27.3767 78.4559 27.8591C78.3429 28.3414 78.5445 28.8012 78.9062 28.886C79.268 28.9707 79.6529 28.6485 79.766 28.1661Z" fill="#231F20"/>
<path d="M80.7896 39.0211C80.0608 39.0772 79.388 38.7968 78.8834 38.2362C77.706 36.8346 78.1546 34.5359 78.2106 34.4238C78.2667 34.2556 78.3788 34.0874 78.6031 34.0874C84.602 34.2556 84.6581 34.3117 84.7702 34.4799C84.8263 34.592 84.8823 34.7041 84.8263 34.8162C84.7141 35.7133 84.3217 36.6103 83.8171 37.3952C83.1443 38.3483 82.0791 38.965 80.9017 39.0211H80.7896ZM78.8834 34.8723C78.8273 35.489 78.7713 36.8346 79.444 37.6755C79.8365 38.0119 80.3411 38.2362 80.8457 38.1801C81.7988 38.1241 82.6397 37.6195 83.2004 36.8906C83.5928 36.33 83.8732 35.7133 83.9853 35.0405C83.0322 35.0405 80.6214 34.9284 78.8834 34.8723Z" fill="#231F20"/>
<path d="M83.4806 37.1148C82.135 38.9088 79.9485 38.9088 79.1075 37.9557C79.4439 37.1708 80.1167 36.6102 80.9577 36.442C81.8547 36.3859 82.7517 36.6102 83.4806 37.1148Z" fill="#231F20"/>
<path d="M80.7902 39.0213C80.0614 39.0774 79.3886 38.741 78.884 38.2364C78.7719 38.1242 78.7719 37.9561 78.828 37.7879C79.4447 36.7226 80.1174 36.162 80.9584 36.0499C81.9676 35.9938 82.9207 36.2181 83.7056 36.7787C83.8177 36.8348 83.8738 36.9469 83.8738 37.059C83.8738 37.1712 83.8738 37.2833 83.8177 37.3393C83.1449 38.2924 82.0797 38.9092 80.9024 38.9652H80.7902V39.0213ZM79.6689 37.9C80.0053 38.1243 80.4538 38.2364 80.8463 38.2364C81.6312 38.1803 82.36 37.8439 82.9207 37.2833C82.36 36.9469 81.6873 36.8348 81.0706 36.8908C80.4538 36.9469 79.9493 37.3393 79.6689 37.9Z" fill="#231F20"/>
<path d="M89.0308 31.6765C88.9748 30.0506 90.6006 27.752 92.3947 28.7611C93.0114 29.1536 93.4599 29.8263 93.6281 30.5552C94.5252 33.9751 91.8341 35.1525 90.04 35.9935" fill="white"/>
<path d="M90.0963 36.3861C89.9281 36.3861 89.816 36.3301 89.7038 36.1619C89.5917 35.9937 89.6478 35.7694 89.872 35.6573C91.7222 34.7603 94.0208 33.695 93.2359 30.6675C93.1238 30.0508 92.7313 29.4902 92.2268 29.0977C91.7782 28.8174 91.1615 28.8174 90.713 29.1538C89.9281 29.7144 89.4235 30.6675 89.4235 31.6767C89.4235 31.901 89.2553 32.0692 89.0871 32.0692C88.8629 32.0692 88.6947 31.957 88.6947 31.7328C88.6947 31.7328 88.6947 31.7328 88.6947 31.6767C88.6386 30.3872 89.2553 29.2099 90.3206 28.481C90.9933 28.0325 91.8904 27.9764 92.6192 28.3689C93.3481 28.8174 93.8526 29.5462 94.0208 30.3872C94.9739 34.0875 92.0586 35.433 90.3206 36.274C90.2084 36.3301 90.1524 36.3861 90.0963 36.3861Z" fill="#231F20"/>
<path d="M74.0621 16.3148C74.0621 16.3148 73.109 22.4819 73.1651 24.0518C75.5198 22.6501 78.267 21.8652 81.0142 21.7531C85.3311 21.7531 91.4982 24.3321 93.2923 25.2852L92.0028 15.6981C92.0028 15.6981 89.0314 14.0722 82.584 14.689C76.1365 15.3057 74.0621 16.3148 74.0621 16.3148Z" fill="white"/>
<path d="M93.2927 25.6778C93.2366 25.6778 93.1805 25.6778 93.1245 25.6217C91.4986 24.7247 85.2754 22.1457 81.0706 22.1457H81.0145C78.3234 22.2018 75.7444 22.9867 73.4458 24.3322C73.3336 24.3883 73.1655 24.3883 73.0533 24.3322C72.9412 24.2762 72.8291 24.164 72.8291 23.9958C72.773 22.426 73.67 16.4271 73.7261 16.1468C73.7261 16.0347 73.8382 15.9225 73.9504 15.8665C74.0625 15.8104 76.1929 14.8573 82.5843 14.1845C88.9757 13.5118 92.1153 15.1376 92.2274 15.2498C92.3396 15.3058 92.3956 15.4179 92.4517 15.5301L93.7412 25.2293C93.7412 25.3975 93.6851 25.5096 93.573 25.6217C93.4609 25.6778 93.3487 25.6778 93.2927 25.6778ZM80.9584 21.3608H81.0145C84.9951 21.3608 90.4334 23.4913 92.7881 24.6126L91.6668 15.9225C90.938 15.5861 88.0226 14.5209 82.6404 15.0255C77.4264 15.5301 75.0717 16.315 74.4549 16.5392C74.2867 17.4923 73.7261 21.4729 73.614 23.3231C75.8566 22.1457 78.3795 21.4729 80.9584 21.3608Z" fill="#231F20"/>
<path d="M74.0059 12.9512C74.0059 12.9512 74.8468 17.2121 78.0986 17.3242C81.3503 17.4363 85.1627 15.1377 85.1627 15.1377C85.1627 15.1377 92.0026 18.3334 94.918 14.6331" fill="white"/>
<path d="M78.2671 17.7164H78.0989C74.5669 17.6043 73.6698 13.2312 73.6138 13.063C73.5577 12.8388 73.7259 12.6706 73.9502 12.6145C74.1744 12.5584 74.3426 12.7266 74.3987 12.8948C74.3987 12.9509 75.1836 16.8754 78.0989 16.9315C81.2386 17.0436 84.9388 14.801 84.9388 14.801C85.051 14.745 85.2192 14.745 85.3313 14.801C85.3874 14.8571 91.9469 17.8285 94.638 14.4086C94.7502 14.2404 95.0305 14.1843 95.1987 14.3525C95.3669 14.4646 95.4229 14.745 95.2547 14.9132C92.3954 18.5574 86.3965 16.1466 85.2192 15.642C84.3782 15.9784 81.1825 17.7164 78.2671 17.7164Z" fill="#231F20"/>
<path d="M91.9467 42.9453L84.8825 44.0106L82.1354 46.9259L80.958 43.8984L75.9683 42.3286L75.4637 46.8699L65.8766 52.4763C65.8766 52.4763 60.8308 95.1976 62.737 107.7C62.737 107.7 96.7122 108.933 107.252 102.878C107.252 102.878 100.581 71.3141 101.534 65.4273C102.15 61.2224 102.487 57.0176 102.543 52.8127L92.4513 46.982L91.9467 42.9453Z" fill="#FFD600"/>
<path d="M42.6662 49.1128C42.6662 49.1128 46.5907 43.6185 46.9271 42.4411C47.2635 41.2638 47.0953 36.6104 46.7589 36.4422C46.4225 36.274 44.8527 36.9468 44.5163 37.6756C44.236 38.6287 44.1239 39.5818 44.0678 40.5349C43.2268 40.4789 42.4419 40.7031 41.7692 41.2077C41.7692 41.2077 40.76 38.4605 40.7039 38.1802C40.6479 37.8999 42.498 35.7134 42.498 35.7134C42.498 35.7134 43.7875 36.6665 45.077 36.274C46.3665 35.8815 46.5347 35.5452 45.974 34.6481C45.4134 33.7511 40.76 32.9101 40.76 32.9101L37.6764 35.9376C37.6764 35.9376 37.2279 31.5085 37.6764 30.5554C38.125 29.6023 39.022 27.1355 38.5735 26.3506C38.125 25.5656 37.0597 25.902 36.4991 26.6869C35.9384 27.4718 34.5929 30.163 34.5368 31.0039C34.4808 31.8449 34.5368 35.8815 34.5368 35.8815C34.5368 35.8815 32.9109 32.4055 33.0791 31.7328C33.2473 31.06 34.9293 27.7522 34.2565 27.0233C33.5837 26.2945 30.5002 30.219 30.2198 31.7328C29.9395 33.2465 31.8457 37.5635 31.8457 37.5635C31.8457 37.5635 29.2107 35.3209 29.2107 34.8724C29.2107 34.4239 29.3789 30.8357 28.9864 30.3311C28.594 29.8266 27.4727 29.9387 27.3045 31.7328C27.1363 33.5268 27.1923 36.1619 27.6969 37.2271C28.2015 38.2923 32.6306 45.7489 32.7988 46.5899C32.967 47.4309 32.4064 51.6357 32.4064 51.6357L41.657 52.0282L42.6662 49.1128Z" fill="white"/>
<path d="M41.7127 52.3643L32.462 51.9718C32.3499 51.9718 32.2378 51.9157 32.1817 51.8597C32.1256 51.7476 32.0696 51.6354 32.1256 51.5233C32.3499 49.8974 32.6863 47.1503 32.5181 46.5896C32.3499 46.029 30.4437 42.6651 29.1542 40.4225C28.3132 38.9087 27.6405 37.7314 27.4162 37.3389C26.7995 36.1055 26.7995 33.2462 26.9677 31.6203C27.0798 30.2187 27.7526 29.8263 28.145 29.6581C28.5936 29.4899 29.0421 29.6581 29.3785 29.9945C29.6588 30.3308 29.827 31.2279 29.7148 34.4796C29.7148 34.6478 29.7148 34.76 29.7148 34.816C30.1073 35.2645 30.4998 35.657 30.9483 36.0494C30.3876 34.5918 29.7709 32.6295 29.9391 31.6203C30.2194 30.2187 32.6302 26.9109 33.8636 26.5184C34.144 26.4063 34.4243 26.5184 34.6485 26.6866C35.2653 27.3594 34.7046 28.9853 33.9197 30.8915C33.8076 31.1718 33.6954 31.5082 33.5833 31.7885C33.6954 32.5174 33.9197 33.2462 34.2561 33.919C34.2561 32.7416 34.2561 31.3961 34.3122 30.9476C34.3682 29.9945 35.8259 27.2473 36.3305 26.4624C36.6669 25.9017 37.2836 25.5653 37.9564 25.5093C38.4049 25.5093 38.7973 25.7335 39.0216 26.126C39.6944 27.1912 38.4049 30.1626 38.1246 30.7233C37.8442 31.2839 37.9003 33.4144 38.0685 35.0963L40.5353 32.6295C40.6475 32.5174 40.7596 32.5174 40.8717 32.5174C41.993 32.7416 45.6933 33.5265 46.3661 34.4236C46.6464 34.76 46.8146 35.2085 46.7024 35.657C46.6464 35.8252 46.5343 35.9373 46.4221 36.0494C46.5903 35.9934 46.8146 35.9934 46.9828 36.1055C47.8237 36.4419 47.5434 41.8802 47.3752 42.5529C47.0388 43.7303 43.6189 48.5519 43.1143 49.2807L42.1612 52.0839C41.993 52.2521 41.8809 52.3643 41.7127 52.3643ZM32.8545 51.1308L41.3763 51.5233L42.2733 48.9443C42.2733 48.8883 42.3294 48.8883 42.3294 48.8322C43.8992 46.6457 46.31 43.1136 46.5343 42.2726C46.8146 41.2635 46.7024 37.5632 46.4782 36.7783C46.0857 36.8343 45.0766 37.2829 44.8523 37.7874C44.6281 38.6845 44.4599 39.5815 44.4599 40.5346C44.4599 40.6467 44.4038 40.7589 44.3477 40.8149C44.2917 40.871 44.1795 40.9271 44.0674 40.9271C43.3386 40.871 42.6097 41.0953 41.993 41.4877C41.8248 41.5998 41.6006 41.5998 41.4324 41.4316C41.4324 41.3756 41.3763 41.3756 41.3763 41.3195C41.152 40.6467 40.3671 38.5163 40.3111 38.236C40.255 38.0678 40.1989 37.7874 42.2173 35.4327C42.3294 35.2645 42.6097 35.2645 42.7219 35.3767C42.7219 35.3767 43.8992 36.2176 44.9644 35.8812C45.7493 35.657 45.8615 35.4888 45.8615 35.4327C45.8615 35.3767 45.8615 35.2645 45.6372 34.8721C45.413 34.4796 42.9461 33.7508 40.8717 33.3023L37.9564 36.2176C37.7882 36.3858 37.5639 36.3858 37.3957 36.2176C37.3396 36.1616 37.2836 36.0494 37.2836 35.9934C37.2275 35.2085 36.8351 31.3961 37.3396 30.3869C37.9003 29.2656 38.5731 27.0791 38.2367 26.5745C38.1806 26.4063 38.0124 26.2942 37.7882 26.2942C37.3957 26.3502 37.0593 26.5745 36.8351 26.9109C36.3305 27.6958 34.9849 30.3308 34.9289 31.0036C34.8728 31.7885 34.9289 35.7691 34.9289 35.8252C34.9289 35.9934 34.8167 36.1616 34.5925 36.2176C34.4243 36.2737 34.2 36.1616 34.144 35.9934C33.6394 34.9281 32.5181 32.2931 32.6863 31.5643C32.7984 31.2279 32.9105 30.8915 33.0787 30.5551C33.3591 29.8263 34.3122 27.5837 33.9758 27.1912C33.4151 27.1912 30.8922 30.3869 30.6119 31.7325C30.3876 32.8538 31.6771 36.1616 32.2378 37.3389C32.2938 37.5071 32.2378 37.7314 32.1256 37.8435C31.9574 37.9556 31.7892 37.9556 31.621 37.8435C28.8739 35.4888 28.8739 35.0403 28.8739 34.8721C28.8739 34.816 28.8739 34.7039 28.8739 34.5357C28.986 31.5082 28.8178 30.7794 28.7057 30.6112C28.5936 30.499 28.4814 30.499 28.3132 30.499C27.9768 30.6112 27.7526 31.0597 27.6965 31.7885C27.5283 33.6387 27.5844 36.1055 28.0329 37.0586C28.2011 37.4511 28.9299 38.6845 29.7148 40.1422C31.621 43.5621 33.0227 45.9729 33.1348 46.5335C33.4151 47.0942 33.0787 49.9535 32.8545 51.1308ZM41.096 38.1238C41.2081 38.4602 41.5445 39.5254 41.937 40.5907C42.4976 40.3104 43.1143 40.1982 43.675 40.1422C43.731 39.2451 43.8431 38.3481 44.1235 37.5071C44.2917 37.1707 44.572 36.8904 44.9084 36.6661C44.0674 36.7783 43.2264 36.6101 42.5537 36.2176C42.0491 36.7783 41.5445 37.4511 41.096 38.1238Z" fill="#231F20"/>
<path d="M35.9946 40.2544C35.9946 40.2544 38.4615 42.3288 38.1812 45.5245C38.91 43.7865 40.1434 42.2727 41.7693 41.2636" fill="white"/>
<path d="M38.1805 45.8609H38.0684C37.9002 45.8048 37.732 45.6366 37.788 45.4123C38.0684 42.497 35.7697 40.5347 35.7697 40.5347C35.6015 40.3665 35.6015 40.1423 35.7136 39.9741C35.8258 39.8059 36.1061 39.8059 36.2743 39.918C37.4516 40.9832 38.2366 42.3848 38.5169 43.9546C39.3018 42.7212 40.311 41.656 41.5444 40.815C41.7126 40.7029 41.9929 40.759 42.105 40.9272C42.2172 41.0953 42.1611 41.3757 41.9929 41.4878C40.4791 42.497 39.3018 43.8986 38.5729 45.5805C38.4608 45.7487 38.3487 45.8609 38.1805 45.8609Z" fill="#231F20"/>
<path d="M31.1722 37.9559C31.1722 37.9559 34.424 36.1058 36.3863 35.9937L31.1722 37.9559Z" fill="white"/>
<path d="M31.1728 38.3482C31.0607 38.3482 30.8925 38.236 30.8364 38.1239C30.7243 37.9557 30.7803 37.6754 30.9485 37.5632C30.9485 37.5632 30.9485 37.5632 31.0046 37.5632C31.1167 37.5072 34.3685 35.6571 36.4429 35.5449C36.6671 35.5449 36.8353 35.7131 36.8353 35.8813C36.8353 36.1056 36.6671 36.2738 36.4429 36.2738C34.5367 36.3859 31.3971 38.18 31.3971 38.18C31.341 38.2921 31.2289 38.3482 31.1728 38.3482Z" fill="#231F20"/>
<path d="M126.258 44.4593C126.538 43.394 126.594 42.2727 126.482 41.1514C126.258 39.6938 126.594 36.5541 126.146 35.3768C125.697 34.1994 121.549 31.0037 121.829 30.331C122.109 29.6582 123.455 29.2097 124.352 29.6021C125.249 29.9946 128.781 33.5827 128.781 33.5827L137.695 28.5369L144.647 28.0884C144.647 28.0884 138.592 36.1056 137.919 37.4512C137.247 38.7967 136.181 41.8242 135.004 42.6091C134.387 43.0016 133.771 43.338 133.098 43.6183L131.977 46.0851L126.258 44.4593Z" fill="white"/>
<path d="M131.977 46.4775H131.865L126.146 44.8516C125.922 44.7955 125.81 44.5713 125.866 44.347C126.146 43.3379 126.202 42.2726 126.09 41.2074C125.978 40.3104 125.978 39.4694 125.978 38.5724C126.034 37.5632 125.978 36.498 125.754 35.4888C125.585 35.0403 124.52 33.975 123.623 33.1341C121.829 31.3961 121.212 30.7233 121.437 30.1626C121.829 29.3217 123.399 28.761 124.464 29.2656C125.305 29.6581 127.94 32.2931 128.781 33.1341L137.415 28.2004C137.471 28.1443 137.527 28.1443 137.583 28.1443L144.535 27.6958C144.76 27.6958 144.928 27.864 144.928 28.0883C144.928 28.2004 144.928 28.2564 144.872 28.3686C142.797 31.1157 138.705 36.6101 138.2 37.6193C138.032 37.8996 137.864 38.292 137.695 38.7405C137.023 40.3104 136.126 42.2726 135.173 42.9454C134.612 43.3379 133.995 43.6742 133.322 43.9546L132.257 46.2532C132.257 46.4214 132.145 46.5335 131.977 46.4775ZM126.707 44.1788L131.753 45.6365L132.762 43.506C132.818 43.3939 132.874 43.3378 132.986 43.2818C133.603 43.0015 134.219 42.7211 134.78 42.3287C135.565 41.8241 136.462 39.8058 137.023 38.5163C137.247 38.0678 137.415 37.6753 137.527 37.3389C138.088 36.2176 142.293 30.6112 143.75 28.5928L137.751 28.9853L128.893 34.0311C128.725 34.1432 128.557 34.0872 128.389 33.975C127.043 32.6295 124.744 30.3308 124.128 30.0505C123.455 29.8263 122.67 29.9945 122.165 30.499C122.726 31.2839 123.399 31.9567 124.128 32.6295C125.417 33.8629 126.258 34.7039 126.482 35.3206C126.707 36.3858 126.819 37.5071 126.707 38.6284C126.707 39.4694 126.707 40.3104 126.819 41.0953C126.987 42.1044 126.931 43.1697 126.707 44.1788Z" fill="#231F20"/>
<path d="M132.426 33.1904C132.426 33.1904 135.846 33.5829 138.088 34.9845L132.426 33.1904Z" fill="white"/>
<path d="M138.088 35.377C138.032 35.377 137.976 35.377 137.92 35.3209C135.733 33.9753 132.425 33.5829 132.369 33.5829C132.145 33.5829 131.977 33.3586 132.033 33.1344C132.033 32.9101 132.257 32.7419 132.481 32.798C132.593 32.798 136.013 33.1904 138.312 34.6481C138.48 34.7602 138.536 35.0406 138.424 35.2088C138.368 35.3209 138.256 35.377 138.088 35.377Z" fill="#231F20"/>
<path d="M134.052 33.8629C133.94 33.8629 133.828 33.8069 133.771 33.6947C133.603 33.5265 133.659 33.3023 133.828 33.1341L139.714 28.3125C139.883 28.2004 140.107 28.2004 140.275 28.3686C140.387 28.5368 140.387 28.761 140.219 28.9292L134.332 33.6947C134.22 33.8069 134.164 33.8629 134.052 33.8629Z" fill="#231F20"/>
<path d="M136.518 34.5918C136.406 34.5918 136.294 34.5358 136.238 34.4797C136.07 34.3115 136.07 34.0872 136.238 33.919L141.957 28.2565C142.125 28.0883 142.349 28.0883 142.517 28.2565C142.685 28.4247 142.685 28.649 142.517 28.8172L136.799 34.4797C136.743 34.5358 136.63 34.5918 136.518 34.5918Z" fill="#231F20"/>
<path d="M128.782 33.6948C128.782 33.6948 131.809 37.2269 131.193 40.0301L128.782 33.6948Z" fill="white"/>
<path d="M131.192 40.3665H131.136C130.912 40.3104 130.8 40.0862 130.856 39.918C131.416 37.339 128.557 33.9751 128.501 33.919C128.333 33.7508 128.389 33.5266 128.557 33.3584C128.725 33.1902 128.95 33.2463 129.118 33.4145C129.23 33.5826 132.313 37.1147 131.641 40.0862C131.529 40.2543 131.36 40.3665 131.192 40.3665Z" fill="#231F20"/>
<path d="M65.8202 52.4766L43.4504 65.4276L43.5065 50.0098L30.8919 50.4022C30.8919 50.4022 24.9491 74.3418 28.5372 80.3408C32.1253 86.3397 58.0272 78.0982 67.7825 69.7445L65.8202 52.4766Z" fill="#FFD600"/>
<path d="M102.543 52.813L116.671 59.0362L125.361 41.8804L135.509 44.3472C135.509 44.3472 129.566 74.2858 122.334 73.8933C115.101 73.5009 88.863 65.3715 88.863 65.3715L102.543 52.813Z" fill="#FFD600"/>
<path d="M67.727 105.177C67.5028 105.177 67.3346 105.009 67.3346 104.785C67.2224 92.4506 69.5772 58.7557 69.6332 58.4193C69.6332 58.3072 69.6893 58.1951 69.8014 58.0829L81.6871 51.187L81.7432 46.87C81.7432 46.6457 81.9114 46.4775 82.1356 46.4775C82.3599 46.4775 82.5281 46.6457 82.5281 46.87L82.472 51.4112C82.472 51.5234 82.416 51.6916 82.2478 51.7476L70.3621 58.6436C70.1378 61.5029 68.0073 92.8991 68.1195 104.729C68.1195 105.009 67.9513 105.177 67.727 105.177Z" fill="#231F20"/>
<path d="M75.6322 62.0638C76.4373 62.0638 77.0899 61.4112 77.0899 60.6061C77.0899 59.8011 76.4373 59.1484 75.6322 59.1484C74.8272 59.1484 74.1746 59.8011 74.1746 60.6061C74.1746 61.4112 74.8272 62.0638 75.6322 62.0638Z" fill="#231F20"/>
<path d="M87.0696 62.12C87.8747 62.12 88.5273 61.4673 88.5273 60.6623C88.5273 59.8572 87.8747 59.2046 87.0696 59.2046C86.2646 59.2046 85.6119 59.8572 85.6119 60.6623C85.6119 61.4673 86.2646 62.12 87.0696 62.12Z" fill="#231F20"/>
<path d="M131.248 48.6082C132.053 48.6082 132.706 47.9556 132.706 47.1506C132.706 46.3455 132.053 45.6929 131.248 45.6929C130.443 45.6929 129.79 46.3455 129.79 47.1506C129.79 47.9556 130.443 48.6082 131.248 48.6082Z" fill="#231F20"/>
<path d="M74.3423 80.7332C75.1474 80.7332 75.8 80.0806 75.8 79.2755C75.8 78.4705 75.1474 77.8179 74.3423 77.8179C73.5373 77.8179 72.8846 78.4705 72.8846 79.2755C72.8846 80.0806 73.5373 80.7332 74.3423 80.7332Z" fill="#231F20"/>
<path d="M40.2555 54.7191C41.0606 54.7191 41.7132 54.0665 41.7132 53.2614C41.7132 52.4563 41.0606 51.8037 40.2555 51.8037C39.4505 51.8037 38.7979 52.4563 38.7979 53.2614C38.7979 54.0665 39.4505 54.7191 40.2555 54.7191Z" fill="#231F20"/>
<path d="M83.9291 80.7894C84.7342 80.7894 85.3868 80.1368 85.3868 79.3317C85.3868 78.5267 84.7342 77.874 83.9291 77.874C83.1241 77.874 82.4714 78.5267 82.4714 79.3317C82.4714 80.1368 83.1241 80.7894 83.9291 80.7894Z" fill="#231F20"/>
<path d="M72.829 98.5057C73.6341 98.5057 74.2867 97.8531 74.2867 97.048C74.2867 96.243 73.6341 95.5903 72.829 95.5903C72.024 95.5903 71.3713 96.243 71.3713 97.048C71.3713 97.8531 72.024 98.5057 72.829 98.5057Z" fill="#231F20"/>
<path d="M84.0419 98.5057C84.847 98.5057 85.4996 97.8531 85.4996 97.048C85.4996 96.243 84.847 95.5903 84.0419 95.5903C83.2368 95.5903 82.5842 96.243 82.5842 97.048C82.5842 97.8531 83.2368 98.5057 84.0419 98.5057Z" fill="#231F20"/>
<path d="M62.3443 96.4875C62.1201 96.4875 61.9519 96.3193 61.9519 96.0951C61.6155 84.77 64.9233 59.3166 64.9794 59.0924C65.0354 58.8681 65.2036 58.6999 65.4279 58.756C65.6521 58.812 65.8203 58.9802 65.7643 59.2045C65.7082 59.4288 62.4004 84.8261 62.7368 96.0951C62.7368 96.3193 62.5686 96.4875 62.3443 96.4875Z" fill="#231F20"/>
<path d="M122.278 74.2299C117.568 74.2299 94.3015 67.39 93.2923 67.1096C93.068 67.0536 92.9559 66.8293 93.068 66.6051C93.1241 66.4369 93.3484 66.3247 93.5166 66.3808C93.7408 66.4369 117.624 73.4449 122.222 73.4449C122.446 73.4449 122.614 73.6131 122.614 73.8374C122.614 74.0617 122.558 74.2299 122.278 74.2299C122.334 74.2299 122.334 74.2299 122.278 74.2299Z" fill="#231F20"/>
<path d="M30.7237 56.9619C30.4995 56.9619 30.3313 56.7937 30.3313 56.5695C30.3313 56.3452 30.4995 56.177 30.7237 56.177L42.217 55.7285C42.4413 55.7285 42.6095 55.8967 42.6095 56.121C42.6095 56.3452 42.4413 56.5134 42.217 56.5134L30.7237 56.9619Z" fill="#231F20"/>
<path d="M113.756 65.4273C113.532 65.4273 113.364 65.2591 113.364 65.0349C113.364 64.9788 113.364 64.9228 113.42 64.8667L123.399 44.9077C123.512 44.7395 123.736 44.6273 123.904 44.7395C124.072 44.8516 124.184 45.0759 124.072 45.244L114.093 65.2031C114.037 65.3713 113.925 65.4273 113.756 65.4273Z" fill="#231F20"/>
<path d="M132.65 51.6358H132.538L123.623 49.2251C123.399 49.169 123.287 49.0008 123.343 48.7765C123.399 48.5523 123.567 48.4402 123.791 48.4962H123.847L132.762 50.907C132.986 50.9631 133.098 51.1873 133.042 51.4116C132.986 51.5237 132.818 51.6358 132.65 51.6358Z" fill="#231F20"/>
<path d="M110.783 24.8369C110.783 24.8369 114.876 26.3507 115.1 29.7145L153.112 29.8827C153.336 26.5189 157.485 25.0612 157.485 25.0612L110.783 24.8369Z" fill="white"/>
<path d="M153.056 30.2751L115.044 30.1069C114.82 30.1069 114.652 29.9387 114.652 29.7144C114.483 26.6869 110.671 25.2292 110.615 25.1732C110.391 25.1171 110.335 24.8368 110.391 24.6686C110.447 24.5004 110.615 24.4443 110.727 24.4443L157.373 24.6686C157.597 24.6686 157.765 24.8368 157.765 25.061C157.765 25.2292 157.653 25.3974 157.485 25.4535C157.429 25.4535 153.616 26.9112 153.392 29.9387C153.448 30.1069 153.28 30.2751 153.056 30.2751ZM115.436 29.322L152.719 29.4902C153 27.4718 154.57 26.1823 155.747 25.4535L112.409 25.2292C113.642 25.9581 115.156 27.3036 115.436 29.322Z" fill="#231F20"/>
<path d="M134.554 11.1009C135.7 11.1009 136.629 10.1722 136.629 9.02654C136.629 7.88088 135.7 6.95215 134.554 6.95215C133.409 6.95215 132.48 7.88088 132.48 9.02654C132.48 10.1722 133.409 11.1009 134.554 11.1009Z" fill="white"/>
<path d="M134.555 11.4933C133.209 11.4933 132.088 10.372 132.088 9.02642C132.088 7.68086 133.209 6.55957 134.555 6.55957C135.9 6.55957 137.021 7.68086 137.021 9.02642C137.021 10.372 135.9 11.4933 134.555 11.4933ZM134.555 7.28841C133.602 7.28841 132.873 8.01725 132.873 8.97035C132.873 9.92345 133.602 10.6523 134.555 10.6523C135.003 10.6523 135.452 10.4841 135.732 10.1477C136.405 9.47494 136.405 8.40971 135.732 7.793C135.452 7.45661 135.003 7.28841 134.555 7.28841Z" fill="#231F20"/>
<path d="M154.906 25.1171C153.168 16.1468 144.758 9.3069 134.666 9.25084C124.575 9.19477 116.109 15.9225 114.259 24.9489L154.906 25.1171Z" fill="white"/>
<path d="M154.906 25.5095L114.259 25.2853C114.147 25.2853 114.035 25.2292 113.979 25.1171C113.923 25.0049 113.867 24.8928 113.923 24.7807C115.829 15.53 124.519 8.80225 134.611 8.80225H134.723C144.871 8.85831 153.505 15.6421 155.355 25.0049C155.355 25.1171 155.355 25.2292 155.299 25.3413C155.13 25.4535 155.018 25.5095 154.906 25.5095ZM114.764 24.5564L154.458 24.7807C152.551 16.0346 144.31 9.75535 134.723 9.69928H134.555C125.024 9.64322 116.782 15.8664 114.764 24.5564Z" fill="#231F20"/>
<path d="M110.787 23.7169L110.778 25.623L157.424 25.8591L157.433 23.9529L110.787 23.7169Z" fill="white"/>
<path d="M157.428 26.2381L110.783 26.0139C110.67 26.0139 110.558 25.9578 110.502 25.9017C110.446 25.8457 110.39 25.7335 110.39 25.6214V23.7152C110.39 23.491 110.558 23.3228 110.783 23.3228L157.428 23.547C157.653 23.547 157.821 23.7152 157.821 23.9395V25.8457C157.821 26.0699 157.653 26.2381 157.428 26.2381ZM111.175 25.229L157.036 25.4532V24.3319L111.175 24.1077V25.229Z" fill="#231F20"/>
</svg>
