<svg width="197" height="180" viewBox="0 0 197 180" fill="none" xmlns="http://www.w3.org/2000/svg">
<path d="M160.31 168.141C160.31 169.883 145.474 171.309 123.878 171.309C102.283 171.309 37.92 170.2 37.92 168.405C37.92 166.609 99.5376 164.973 121.133 164.973C142.728 164.973 160.31 166.398 160.31 168.141Z" fill="#D1D3D4"/>
<path d="M37.9207 168.405H114.85C117.543 168.458 119.708 166.293 119.761 163.6C119.761 163.494 119.761 163.336 119.761 163.23L112.052 16.4464C111.894 13.5424 109.518 11.272 106.561 11.272H29.6311C26.9383 11.272 24.7735 13.384 24.7207 16.0768C24.7207 16.1824 24.7207 16.3408 24.7207 16.4464L32.4295 163.23C32.6407 166.134 35.0167 168.405 37.9207 168.405Z" fill="black"/>
<path d="M114.849 168.721H37.9197C34.8573 168.721 32.3229 166.293 32.1117 163.23L24.4029 16.4463C24.1917 13.5951 26.3565 11.1135 29.2077 10.9551C29.3661 10.9551 29.4717 10.9551 29.6301 10.9551H106.56C109.622 10.9551 112.157 13.3839 112.368 16.4463L120.077 163.23C120.235 166.081 118.07 168.563 115.219 168.721C115.113 168.721 115.008 168.721 114.849 168.721ZM29.6301 11.6415C27.1485 11.5887 25.0893 13.5951 25.0365 16.1295C25.0365 16.2351 25.0365 16.3407 25.0365 16.4991L32.7453 163.283C32.9037 165.976 35.1741 168.141 37.8669 168.141H114.797C117.278 168.193 119.337 166.187 119.39 163.653C119.39 163.547 119.39 163.441 119.39 163.283L111.681 16.4991C111.523 13.8063 109.253 11.6415 106.56 11.6415H29.6301Z" fill="#231F20"/>
<path d="M43.5691 168.141H120.551C123.244 168.193 125.409 166.029 125.462 163.336C125.462 163.23 125.462 163.072 125.462 162.966L117.753 16.1822C117.595 13.2782 115.219 11.0606 112.315 11.0078H35.3323C32.6395 11.0078 30.4747 13.1198 30.4219 15.8126C30.4219 15.9182 30.4219 16.0766 30.4219 16.1822L38.1307 162.966C38.3419 165.87 40.7179 168.141 43.5691 168.141Z" fill="white"/>
<path d="M120.552 168.51H43.5699C40.5075 168.457 37.9731 166.081 37.7619 162.966L30.0531 16.1822C29.8419 13.2782 32.0595 10.7966 34.9107 10.6382C35.0691 10.6382 35.1747 10.6382 35.3331 10.6382H112.263C115.325 10.691 117.86 13.067 118.071 16.1822L125.78 162.966C125.991 165.87 123.773 168.352 120.922 168.51C120.816 168.51 120.658 168.563 120.552 168.51ZM35.3331 11.3774C32.8515 11.3246 30.8451 13.331 30.7923 15.8126C30.7923 15.9182 30.7923 16.0238 30.7923 16.1822L38.5011 162.966C38.6595 165.659 40.8771 167.771 43.5699 167.771H120.552C123.034 167.824 125.04 165.817 125.093 163.336C125.093 163.23 125.093 163.072 125.093 162.966L117.384 16.1822C117.226 13.4894 115.008 11.3774 112.316 11.3774H35.3331Z" fill="#231F20"/>
<path d="M114.69 158.953H48.5318C46.0503 158.901 43.991 157 43.8326 154.518L37.0214 25.3166C36.863 22.9934 38.6582 20.987 40.9814 20.8286C41.087 20.8286 41.1926 20.8286 41.2982 20.8286H107.457C109.938 20.8286 111.997 22.7822 112.156 25.2638L118.967 154.465C119.125 156.789 117.33 158.795 115.007 158.953C114.901 158.953 114.796 158.953 114.69 158.953ZM41.2982 21.515C39.3974 21.4622 37.8134 23.0462 37.7606 24.947C37.7606 25.0526 37.7606 25.1054 37.7606 25.211L44.5718 154.413C44.6774 156.525 46.4198 158.161 48.5318 158.161H114.69C116.591 158.214 118.175 156.63 118.228 154.729C118.228 154.624 118.228 154.571 118.228 154.465L111.417 25.2638C111.258 23.1518 109.569 21.515 107.457 21.515H41.2982Z" fill="#D1D3D4"/>
<path d="M86.8134 16.9213H72.3462C72.135 16.9213 71.9766 16.7629 71.9766 16.5517C71.9766 16.3405 72.135 16.1821 72.3462 16.1821H86.8134C87.0246 16.1821 87.183 16.3405 87.183 16.5517C87.183 16.7629 87.0246 16.9213 86.8134 16.9213Z" fill="#D1D3D4"/>
<path d="M70.2341 16.9213H67.6997C67.4885 16.9213 67.3301 16.7629 67.3301 16.5517C67.3301 16.3405 67.4885 16.1821 67.6997 16.1821H70.2341C70.4453 16.1821 70.6037 16.3405 70.6037 16.5517C70.6037 16.7629 70.4453 16.9213 70.2341 16.9213Z" fill="#D1D3D4"/>
<path d="M28.8901 46.3313C28.6789 46.3313 28.5205 46.1729 28.5205 45.9617L27.7285 30.8081C27.7285 30.5969 27.8869 30.4385 28.0981 30.4385C28.3093 30.4385 28.4677 30.5969 28.4677 30.8081L29.2597 45.9617C29.2597 46.1729 29.1013 46.3313 28.8901 46.3313Z" fill="#D1D3D4"/>
<path d="M58.2474 36.616H50.1162L36.8105 20.6704H44.9418L58.2474 36.616Z" fill="white"/>
<path d="M58.2473 36.9328H50.0633C49.9577 36.9328 49.8521 36.88 49.7993 36.8272L36.4937 20.8816C36.3881 20.776 36.3881 20.6176 36.4409 20.512C36.4937 20.4064 36.5993 20.3008 36.7577 20.3008H44.9417C45.0473 20.3008 45.1529 20.3536 45.2057 20.4064L58.5113 36.352C58.6169 36.5104 58.5641 36.7216 58.4057 36.8272C58.3529 36.88 58.3001 36.88 58.2473 36.9328ZM50.2745 36.2464H57.5609L44.7833 20.9872H37.4969L50.2745 36.2464Z" fill="#231F20"/>
<path d="M58.2485 36.6162H50.0645L50.3285 40.6818C50.4869 42.741 52.1764 44.325 54.2357 44.3778H55.0805C56.9813 44.3778 58.5125 42.8994 58.5125 41.0514C58.5125 40.9458 58.5125 40.8402 58.5125 40.6818L58.2485 36.6162Z" fill="white"/>
<path d="M55.1337 44.6414H54.2889C52.0713 44.5886 50.2232 42.899 50.012 40.6286L49.748 36.563C49.748 36.4574 49.7481 36.4046 49.8537 36.299C49.9065 36.2462 50.0121 36.1934 50.1177 36.1934H58.3017C58.4601 36.1934 58.6184 36.3518 58.6184 36.5102L58.8824 40.5758C58.9352 41.6318 58.6185 42.635 57.8793 43.427C57.1401 44.219 56.1369 44.6942 55.1337 44.6414ZM50.4873 36.9326L50.7513 40.6286C50.9097 42.5294 52.4409 44.0078 54.3417 44.0078H55.1864C56.876 44.0606 58.2489 42.6878 58.3017 40.9982C58.3017 40.8926 58.3017 40.787 58.3017 40.6814L58.0377 36.9326H50.4873Z" fill="#231F20"/>
<path d="M66.433 36.616H58.249L44.9434 20.6704H53.1274L66.433 36.616Z" fill="#FFD600"/>
<path d="M66.4317 36.9327H58.2477C58.1421 36.9327 58.0365 36.8799 57.9837 36.8271L44.6781 20.8815C44.5725 20.7231 44.6253 20.5119 44.7837 20.4063C44.8365 20.3535 44.8893 20.3535 44.9421 20.3535H53.1261C53.2317 20.3535 53.3373 20.4063 53.3901 20.4591L66.6957 36.4047C66.8013 36.5103 66.8013 36.6687 66.7485 36.7743C66.6957 36.8799 66.5373 36.9327 66.4317 36.9327ZM58.4061 36.2463H65.6925L52.9677 20.9871H45.6813L58.4061 36.2463Z" fill="#231F20"/>
<path d="M66.432 36.6162H58.248L58.512 40.6818C58.6704 42.741 60.36 44.3778 62.4192 44.3778H63.2112C65.112 44.3778 66.6432 42.8994 66.6432 41.0514C66.6432 40.9458 66.6432 40.8402 66.6432 40.6818L66.432 36.6162Z" fill="#FFD600"/>
<path d="M63.2644 44.6414H62.4196C60.202 44.5886 58.354 42.899 58.1428 40.6286L57.8788 36.563C57.8788 36.4574 57.8788 36.4046 57.9844 36.299C58.0372 36.2462 58.1428 36.1934 58.2484 36.1934H66.4324C66.5908 36.1934 66.7492 36.3518 66.7492 36.5102L67.0132 40.5758C67.066 41.6318 66.7492 42.635 66.01 43.427C65.3236 44.2718 64.3204 44.6942 63.2644 44.6414ZM58.618 36.9326L58.882 40.6286C59.0404 42.5294 60.5716 43.955 62.4724 44.0078H63.3172C65.0068 44.0606 66.3796 42.6878 66.4324 40.9982C66.4324 40.8926 66.4324 40.787 66.4324 40.6814L66.1684 36.9326H58.618Z" fill="#231F20"/>
<path d="M74.6164 36.616H66.4324L53.1268 20.6704H61.3108L74.6164 36.616Z" fill="white"/>
<path d="M74.6162 36.9328H66.4322C66.3266 36.9328 66.221 36.88 66.1682 36.8272L52.8626 20.8816C52.757 20.776 52.757 20.6176 52.8098 20.512C52.8626 20.4064 52.9682 20.3008 53.1266 20.3008H61.3106C61.4162 20.3008 61.5218 20.3536 61.5746 20.4064L74.8802 36.352C74.9858 36.5104 74.933 36.7216 74.7746 36.8272C74.7218 36.88 74.669 36.88 74.6162 36.9328ZM66.5906 36.2464H73.877L61.1522 20.9872H53.8658L66.5906 36.2464Z" fill="#231F20"/>
<path d="M74.6156 36.6162H66.4316L66.6956 40.6818C66.854 42.741 68.5436 44.3778 70.6028 44.3778H71.4476C73.3484 44.4306 74.8796 42.8994 74.8796 41.0514C74.8796 40.9458 74.8796 40.8402 74.8796 40.6818L74.6156 36.6162Z" fill="white"/>
<path d="M71.4481 44.6414H70.6033C68.3857 44.5886 66.5377 42.899 66.3265 40.6286L66.0625 36.563C66.0625 36.4574 66.0625 36.4046 66.1681 36.299C66.2209 36.2462 66.3265 36.1934 66.4321 36.1934H74.6161C74.7745 36.1934 74.9329 36.3518 74.9329 36.5102L75.1969 40.5758C75.3553 42.635 73.8241 44.4302 71.8177 44.5886C71.7121 44.6414 71.5537 44.6414 71.4481 44.6414ZM66.8017 36.9326L67.0657 40.6286C67.2241 42.5294 68.7553 43.955 70.6561 44.0078H71.5009C73.1905 44.0078 74.5633 42.6878 74.6161 40.9982C74.6161 40.8926 74.6161 40.787 74.6161 40.7342L74.3521 36.9854H66.8017V36.9326Z" fill="#231F20"/>
<path d="M82.8001 36.616H74.6161L61.3105 20.6704H69.4945L82.8001 36.616Z" fill="#FFD600"/>
<path d="M82.8002 36.9328H74.6162C74.5106 36.9328 74.405 36.88 74.3522 36.8272L61.0466 20.8816C60.941 20.776 60.941 20.6176 60.9938 20.512C61.0466 20.4064 61.1522 20.3008 61.3106 20.3008H69.4946C69.6002 20.3008 69.7058 20.3536 69.7586 20.4064L83.0642 36.352C83.1698 36.5104 83.117 36.7216 82.9586 36.8272C82.9058 36.88 82.853 36.88 82.8002 36.9328ZM74.7746 36.2464H82.061L69.3362 20.9872H62.0498L74.7746 36.2464Z" fill="#231F20"/>
<path d="M82.7992 36.6162H74.6152L74.8792 40.6818C75.0376 42.741 76.7272 44.325 78.7864 44.3778H79.6312C81.4792 44.4306 83.0632 42.8994 83.0632 41.0514C83.0632 40.9458 83.0632 40.7874 83.0632 40.6818L82.7992 36.6162Z" fill="#FFD600"/>
<path d="M79.6316 44.6414H78.7868C76.5692 44.5886 74.7212 42.8462 74.5628 40.6286L74.2988 36.563C74.2988 36.4574 74.2988 36.4046 74.4044 36.299C74.4572 36.2462 74.5628 36.1934 74.6684 36.1934H82.7996C82.958 36.1934 83.1164 36.3518 83.1164 36.5102L83.3804 40.5758C83.5388 42.635 82.0076 44.4302 80.0012 44.5886C79.8956 44.6414 79.79 44.6414 79.6316 44.6414ZM74.9852 36.9326L75.2492 40.6286C75.4076 42.5294 76.9388 43.955 78.8396 44.0078H79.6844C81.374 44.0078 82.7468 42.6878 82.7996 40.9982C82.7996 40.8926 82.7996 40.787 82.7996 40.7342L82.5356 36.9854H74.9852V36.9326Z" fill="#231F20"/>
<path d="M90.9309 36.616H82.7997L69.4941 20.6704H77.6253L90.9309 36.616Z" fill="white"/>
<path d="M90.9309 36.9328H82.7997C82.6941 36.9328 82.5885 36.88 82.5357 36.8272L69.2301 20.8816C69.1245 20.776 69.1245 20.6176 69.1773 20.512C69.2301 20.4064 69.3357 20.3008 69.4941 20.3008H77.6781C77.7837 20.3008 77.8893 20.3536 77.9421 20.4064L91.2477 36.352C91.3533 36.4576 91.3533 36.616 91.3005 36.7216C91.2477 36.88 91.0893 36.9328 90.9309 36.9328ZM82.9581 36.2464H90.2445L77.4669 20.9872H70.1805L82.9581 36.2464Z" fill="#231F20"/>
<path d="M90.932 36.6162H82.8008L83.0648 40.6818C83.2232 42.741 84.9128 44.325 86.972 44.3778H87.8168C89.6648 44.4306 91.2488 42.8994 91.2488 41.0514C91.2488 40.9458 91.2488 40.7874 91.2488 40.6818L90.932 36.6162Z" fill="white"/>
<path d="M87.8172 44.6414H86.9724C84.7548 44.5886 82.9068 42.899 82.6956 40.6286L82.4316 36.563C82.4316 36.4574 82.4316 36.4046 82.5372 36.299C82.59 36.2462 82.6956 36.1934 82.8012 36.1934H90.9852C91.1436 36.1934 91.302 36.3518 91.302 36.5102L91.566 40.5758C91.7244 42.635 90.1932 44.4302 88.1868 44.5886C88.0284 44.6414 87.9228 44.6414 87.8172 44.6414ZM83.1708 36.9326L83.4348 40.6286C83.5932 42.5294 85.1244 43.955 87.0252 44.0078H87.87C89.5596 44.0606 90.9324 42.6878 90.9852 40.9982C90.9852 40.8926 90.9852 40.787 90.9852 40.6814L90.7212 36.9326H83.1708Z" fill="#231F20"/>
<path d="M99.1148 36.616H90.9308L77.6252 20.6704H85.8092L99.1148 36.616Z" fill="#FFD600"/>
<path d="M99.1165 36.9328H90.9325C90.8269 36.9328 90.7213 36.88 90.6685 36.8272L77.3629 20.8816C77.2573 20.776 77.2573 20.6176 77.3101 20.512C77.3629 20.4064 77.4685 20.3008 77.6269 20.3008H85.8109C85.9165 20.3008 86.0221 20.3536 86.0749 20.4064L99.3805 36.352C99.4861 36.5104 99.4333 36.7216 99.2749 36.8272C99.2749 36.88 99.1693 36.88 99.1165 36.9328ZM91.1437 36.2464H98.4301L85.6525 20.9872H78.3661L91.1437 36.2464Z" fill="#231F20"/>
<path d="M99.1154 36.6162H90.9314L91.1954 40.6818C91.3538 42.741 93.0434 44.325 95.1026 44.3778H95.9474C97.7954 44.4306 99.3794 42.8994 99.3794 41.0514C99.3794 40.9458 99.3794 40.7874 99.3794 40.6818L99.1154 36.6162Z" fill="#FFD600"/>
<path d="M96.0008 44.6414H95.156C92.9384 44.5886 91.0904 42.899 90.8792 40.6286L90.6152 36.563C90.6152 36.4574 90.6152 36.4046 90.7208 36.299C90.7736 36.2462 90.8792 36.1934 90.9848 36.1934H99.1688C99.3272 36.1934 99.4856 36.3518 99.4856 36.5102L99.7496 40.5758C99.908 42.635 98.3768 44.4302 96.3176 44.5886C96.212 44.6414 96.1064 44.6414 96.0008 44.6414ZM91.3544 36.9326L91.6184 40.6286C91.7768 42.5294 93.308 43.955 95.2088 44.0078H96.0536C97.7432 44.0606 99.116 42.6878 99.1688 40.9982C99.1688 40.8926 99.1688 40.787 99.1688 40.6814L98.9048 36.9326H91.3544Z" fill="#231F20"/>
<path d="M107.298 36.616H99.1142L85.8086 20.6704H93.9926L107.298 36.616Z" fill="white"/>
<path d="M107.3 36.9328H99.1161C99.0105 36.9328 98.9049 36.88 98.8521 36.8272L85.5465 20.8816C85.4409 20.776 85.4409 20.6176 85.4937 20.512C85.5465 20.4064 85.6521 20.3008 85.8105 20.3008H93.9945C94.1001 20.3008 94.2057 20.3536 94.2585 20.4064L107.564 36.352C107.67 36.5104 107.617 36.7216 107.458 36.8272C107.406 36.88 107.353 36.88 107.3 36.9328ZM99.2745 36.2464H106.561L93.7833 20.9872H86.4969L99.2745 36.2464Z" fill="#231F20"/>
<path d="M107.299 36.6162H99.1154L99.3794 40.6818C99.5378 42.741 101.227 44.325 103.287 44.3778H104.131C105.979 44.4306 107.563 42.8994 107.563 41.0514C107.563 40.9458 107.563 40.7874 107.563 40.6818L107.299 36.6162Z" fill="white"/>
<path d="M104.132 44.6414H103.287C101.069 44.5886 99.2213 42.899 99.0101 40.6286L98.7461 36.563C98.7461 36.4574 98.7461 36.3518 98.8517 36.299C98.9045 36.2462 99.0101 36.1934 99.1157 36.1934H107.3C107.458 36.1934 107.616 36.3518 107.616 36.5102L107.88 40.5758C108.039 42.635 106.508 44.4302 104.448 44.5886C104.396 44.6414 104.237 44.6414 104.132 44.6414ZM99.4853 36.9326L99.7493 40.6286C99.9077 42.5294 101.439 43.955 103.34 44.0078H104.184C105.874 44.0606 107.247 42.6878 107.3 40.9982C107.3 40.8926 107.3 40.787 107.3 40.6814L107.036 36.9326H99.4853Z" fill="#231F20"/>
<path d="M115.484 36.616H107.3L93.9941 20.6704H102.125L115.484 36.616Z" fill="#FFD600"/>
<path d="M115.482 36.9327H107.298C107.193 36.9327 107.087 36.8799 107.034 36.8271L93.7288 20.8815C93.6232 20.7231 93.676 20.5119 93.8344 20.4063C93.8872 20.3535 93.94 20.3535 93.9928 20.3535H102.177C102.282 20.3535 102.388 20.4063 102.441 20.4591L115.746 36.4047C115.852 36.5103 115.852 36.6687 115.799 36.7743C115.694 36.8799 115.588 36.9327 115.482 36.9327ZM107.457 36.2463H114.743L101.966 20.9871H94.6792L107.457 36.2463Z" fill="#231F20"/>
<path d="M115.483 36.6162H107.299L107.563 40.6818C107.721 42.741 109.411 44.325 111.47 44.3778H112.315C114.163 44.4306 115.747 42.8994 115.747 41.0514C115.747 40.9458 115.747 40.7874 115.747 40.6818L115.483 36.6162Z" fill="#FFD600"/>
<path d="M112.315 44.6414H111.47C109.253 44.5886 107.405 42.899 107.194 40.6286L106.93 36.563C106.93 36.4574 106.982 36.3518 107.035 36.299C107.088 36.2462 107.194 36.1934 107.299 36.1934H115.483C115.642 36.1934 115.8 36.3518 115.8 36.5102L116.064 40.5758C116.222 42.635 114.691 44.4302 112.685 44.5886C112.579 44.6414 112.421 44.6414 112.315 44.6414ZM107.669 36.9326L107.933 40.6286C108.091 42.5294 109.622 43.955 111.523 44.0078H112.368C113.213 44.0078 114.058 43.691 114.638 43.0574C115.219 42.4238 115.536 41.579 115.43 40.7342L115.166 36.9854H107.669V36.9326Z" fill="#231F20"/>
<path d="M123.667 36.616H115.483L102.125 20.6704H110.309L123.667 36.616Z" fill="white"/>
<path d="M123.667 36.9328H115.483C115.378 36.9328 115.272 36.88 115.219 36.8272L101.914 20.8816C101.808 20.776 101.808 20.6176 101.861 20.512C101.914 20.4064 102.019 20.3008 102.178 20.3008H110.362C110.467 20.3008 110.573 20.3536 110.626 20.4064L123.931 36.352C124.037 36.5104 123.984 36.7216 123.826 36.8272C123.773 36.88 123.72 36.88 123.667 36.9328ZM115.642 36.2464H122.928L110.15 20.9872H102.864L115.642 36.2464Z" fill="#231F20"/>
<path d="M123.668 36.6162H115.484L115.748 40.6818C115.907 42.741 117.596 44.325 119.656 44.3778H120.5C122.348 44.4306 123.932 42.8994 123.932 41.0514C123.932 40.9458 123.932 40.7874 123.932 40.6818L123.668 36.6162Z" fill="white"/>
<path d="M120.499 44.6414H119.654C117.436 44.5886 115.588 42.899 115.377 40.6286L115.113 36.563C115.113 36.4574 115.113 36.3518 115.219 36.299C115.272 36.2462 115.377 36.1934 115.483 36.1934H123.667C123.825 36.1934 123.984 36.3518 123.984 36.5102L124.248 40.5758C124.406 42.635 122.875 44.4302 120.868 44.5886C120.71 44.6414 120.604 44.6414 120.499 44.6414ZM115.852 36.9326L116.116 40.6286C116.275 42.5294 117.806 43.955 119.707 44.0078H120.552C122.241 44.0606 123.614 42.6878 123.667 40.9982C123.667 40.8926 123.667 40.787 123.667 40.6814L123.403 36.9326H115.852Z" fill="#231F20"/>
<path d="M36.8105 20.6704L37.8665 36.616H50.1162L36.8105 20.6704Z" fill="#231F20"/>
<path d="M50.1165 36.9329H37.8669C37.7085 36.9329 37.5501 36.7745 37.5501 36.6161L36.4941 20.6705C36.4941 20.5121 36.5469 20.4065 36.7053 20.3537C36.8637 20.3009 36.9693 20.3537 37.0749 20.4593L50.3805 36.4049C50.4861 36.5105 50.4861 36.6161 50.4333 36.7217C50.3277 36.8273 50.2221 36.9329 50.1165 36.9329ZM38.1309 36.2465H49.3773L37.1805 21.6209L38.1309 36.2465Z" fill="#231F20"/>
<path d="M56.6113 130.6C56.5057 130.6 56.4001 130.547 56.3473 130.494C56.1889 130.336 56.1889 130.125 56.3473 129.966L87.6049 99.3952C87.7633 99.2368 87.9745 99.2368 88.1329 99.3952C88.2913 99.5536 88.2913 99.7648 88.1329 99.9232L56.9281 130.494C56.8225 130.547 56.7169 130.6 56.6113 130.6Z" fill="#D1D3D4"/>
<path d="M87.0237 57.4194C86.9181 57.4194 86.8125 57.3666 86.7597 57.3138C86.6013 57.1554 86.6541 56.9442 86.8125 56.7858L96.3693 48.7602C96.5277 48.6018 96.7389 48.6546 96.8973 48.813C97.0557 48.9714 97.0029 49.1826 96.8445 49.341L87.2877 57.3666C87.1821 57.3666 87.1293 57.4194 87.0237 57.4194Z" fill="#D1D3D4"/>
<path d="M59.3051 115.288C59.0939 115.288 58.9355 115.13 58.9355 114.918C58.9355 114.813 58.9883 114.707 59.0411 114.654L69.2315 105.52C69.3371 105.362 69.6011 105.309 69.7595 105.414C69.9179 105.52 69.9707 105.784 69.8651 105.942C69.8123 105.995 69.8123 106.048 69.7595 106.048L59.5691 115.182C59.4635 115.235 59.3579 115.288 59.3051 115.288Z" fill="#D1D3D4"/>
<path d="M164.27 75.2124C164.218 75.2124 164.165 75.2124 164.112 75.1596C164.006 75.1068 163.901 74.9484 163.901 74.79C163.795 73.8396 161.789 66.7116 159.888 66.8172C159.677 66.8172 159.466 66.9228 159.307 67.134C158.198 68.4012 158.41 72.7836 158.568 74.4204C158.568 74.6316 158.41 74.79 158.198 74.79C157.987 74.79 157.829 74.6844 157.829 74.4732C157.829 74.2092 157.248 68.4012 158.779 66.6588C159.043 66.342 159.413 66.1308 159.835 66.078C160.627 66.0252 161.366 66.606 162.158 67.8204C163.426 69.8796 164.851 74.526 164.587 74.9484C164.534 75.1596 164.429 75.2124 164.27 75.2124Z" fill="#231F20"/>
<path d="M161.261 97.9697C161.05 97.9697 160.944 97.8113 160.891 97.6529L158.515 76.8496C158.515 76.6384 158.621 76.48 158.832 76.4272C159.043 76.4272 159.202 76.5328 159.255 76.744L161.631 97.5472C161.631 97.7584 161.472 97.9169 161.261 97.9697Z" fill="#D1D3D4"/>
<path d="M150.121 100.134C149.963 99.8173 151.23 75.5293 151.23 75.5293L165.697 77.2717L168.865 99.7117L150.121 100.134Z" fill="white"/>
<path d="M150.12 100.504C149.962 100.504 149.856 100.399 149.804 100.293C149.751 100.187 149.645 99.9234 150.86 75.5298C150.86 75.4242 150.912 75.3186 150.965 75.2658C151.018 75.213 151.124 75.1602 151.229 75.1602L165.696 76.9026C165.855 76.9026 166.013 77.061 166.013 77.2194L169.181 99.6594C169.181 99.765 169.181 99.8706 169.076 99.9234C169.023 100.029 168.917 100.029 168.812 100.029L150.12 100.504ZM151.599 75.9522C151.124 84.7698 150.543 97.5474 150.49 99.765L168.442 99.3426L165.38 77.589L151.599 75.9522Z" fill="#D1D3D4"/>
<path d="M151.229 75.5296L153.288 72.9424L169.339 73.2592L165.696 77.272L151.229 75.5296Z" fill="#D1D3D4"/>
<path d="M165.698 77.6415L151.178 75.8991C151.072 75.8991 150.966 75.7936 150.914 75.688C150.861 75.5824 150.861 75.424 150.966 75.3184L153.026 72.7311C153.078 72.6255 153.184 72.5728 153.342 72.5728L169.394 72.8895C169.552 72.8895 169.658 72.9952 169.71 73.1008C169.763 73.2592 169.763 73.3647 169.658 73.5231L166.014 77.536C165.909 77.5888 165.803 77.6415 165.698 77.6415ZM151.97 75.2128L165.592 76.8495L168.549 73.576L153.501 73.2591L151.97 75.2128Z" fill="#D1D3D4"/>
<path d="M169.339 73.2593L173.087 97.3889L168.863 99.7121L165.695 77.2721L169.339 73.2593Z" fill="white"/>
<path d="M168.864 100.081C168.705 100.081 168.547 99.923 168.494 99.7646L165.326 77.3246C165.326 77.219 165.326 77.1134 165.432 77.0078L169.075 72.995C169.181 72.8894 169.339 72.8366 169.445 72.8894C169.603 72.9422 169.709 73.0478 169.709 73.2062L173.457 97.3358C173.51 97.4942 173.405 97.6526 173.246 97.7054L169.022 100.029C168.969 100.081 168.917 100.081 168.864 100.081ZM166.065 77.3774L169.128 99.0782L172.613 97.1246L169.075 74.1038L166.065 77.3774Z" fill="#D1D3D4"/>
<path d="M161.63 79.3841C161.419 79.3841 161.26 79.1729 161.26 79.0145C161.524 74.6321 161.102 67.6625 158.99 67.4513C158.62 67.4513 158.304 67.5569 158.04 67.7681C156.192 69.3521 155.4 75.5825 155.241 77.8529C155.241 78.0641 155.03 78.2225 154.872 78.2225C154.713 78.2225 154.502 78.0113 154.502 77.8529C154.502 77.4833 155.083 69.3521 157.564 67.2929C157.987 66.9233 158.515 66.7121 159.043 66.7649C162.58 67.0817 162.052 77.8529 162 79.1201C162 79.2257 161.788 79.3841 161.63 79.3841Z" fill="#231F20"/>
<path d="M160.099 75.16C159.941 75.16 159.835 75.0544 159.783 74.9488C159.677 74.6848 157.195 68.6656 158.251 66.2896C158.41 65.8672 158.779 65.4976 159.202 65.3392C159.994 65.0224 160.997 65.4448 162.211 66.5008C164.323 68.4016 167.227 72.8896 167.122 73.3648C167.069 73.576 166.858 73.6816 166.699 73.6288C166.541 73.576 166.435 73.4704 166.435 73.3648C166.119 72.5728 161.631 65.2864 159.519 66.0784C159.255 66.184 159.096 66.3424 158.991 66.6064C158.251 68.3488 159.835 73.048 160.522 74.6848C160.575 74.896 160.522 75.1072 160.311 75.16C160.205 75.16 160.152 75.16 160.099 75.16Z" fill="#231F20"/>
<path d="M170.871 99.0782C170.713 99.0782 170.607 98.9726 170.555 98.867L161.209 77.219C161.103 77.0606 161.156 76.7966 161.367 76.691C161.526 76.5854 161.79 76.6382 161.895 76.8494C161.895 76.8494 161.895 76.9022 161.948 76.9022L171.294 98.4974C171.399 98.7086 171.294 98.9198 171.083 98.9726C170.977 99.0254 170.924 99.0782 170.871 99.0782Z" fill="#D1D3D4"/>
<path d="M159.729 105.045C159.465 104.781 152.918 78.2222 152.918 78.2222L169.022 75.4238L179.74 98.4974L159.729 105.045Z" fill="white"/>
<path d="M159.73 105.414C159.624 105.414 159.518 105.361 159.466 105.309C159.413 105.203 159.149 104.939 152.602 78.3279C152.602 78.2223 152.602 78.1167 152.654 78.0111C152.707 77.9055 152.813 77.8527 152.918 77.8527L169.022 75.0543C169.181 75.0015 169.339 75.1071 169.445 75.2655L180.11 98.3391C180.216 98.4975 180.163 98.7615 179.952 98.8143C179.952 98.8143 179.899 98.8143 179.899 98.8671L159.888 105.361L159.73 105.414ZM153.394 78.5391C155.77 88.2543 159.307 102.299 159.941 104.569L179.213 98.2863L168.811 75.8463L153.394 78.5391Z" fill="#D1D3D4"/>
<path d="M152.918 78.2222L154.344 74.7374L171.662 69.9326L169.075 75.4238L152.918 78.2222Z" fill="#D1D3D4"/>
<path d="M152.918 78.5921C152.812 78.5921 152.707 78.5393 152.654 78.4337C152.548 78.3281 152.548 78.1697 152.601 78.0641L153.974 74.5793C154.027 74.4737 154.079 74.3681 154.238 74.3681L171.609 69.5105C171.767 69.4577 171.873 69.5105 171.979 69.6161C172.084 69.7217 172.084 69.8801 172.031 70.0385L169.391 75.5297C169.339 75.6353 169.233 75.7409 169.127 75.7409L153.076 78.5393L152.918 78.5921ZM154.607 75.0545L153.551 77.7473L168.811 75.0545L171.028 70.4609L154.607 75.0545Z" fill="#D1D3D4"/>
<path d="M171.663 69.9326L183.543 94.643L179.742 98.4974L169.076 75.4238L171.663 69.9326Z" fill="white"/>
<path d="M179.741 98.8669H179.688C179.582 98.8669 179.477 98.7613 179.424 98.6557L168.758 75.5822C168.705 75.4766 168.705 75.3709 168.758 75.2653L171.398 69.7742C171.504 69.6158 171.715 69.5101 171.926 69.6157C171.979 69.6685 172.032 69.7214 172.085 69.7742L183.912 94.4846C183.965 94.643 183.965 94.8013 183.859 94.9069L180.11 98.7614C179.952 98.8142 179.846 98.8669 179.741 98.8669ZM169.445 75.4237L179.846 97.8637L183.067 94.5901L171.662 70.7773L169.445 75.4237Z" fill="#D1D3D4"/>
<path d="M157.565 79.9118C157.406 79.9118 157.248 79.8062 157.195 79.595C157.089 79.2254 155.083 70.3022 157.037 67.2398C157.353 66.7118 157.829 66.3422 158.462 66.2366C162.317 65.4446 165.273 77.1662 165.59 78.4862C165.643 78.6974 165.485 78.8558 165.326 78.9086C165.115 78.9614 164.957 78.8558 164.904 78.6446C163.742 73.8398 160.997 66.4478 158.673 66.923C158.304 67.0286 157.934 67.2398 157.723 67.6094C156.245 69.9326 157.406 76.9022 157.987 79.3838C158.04 79.595 157.881 79.8062 157.723 79.8062L157.565 79.9118Z" fill="#231F20"/>
<path d="M124.67 79.1198C124.142 77.1662 124.565 75.2126 126.993 74.7902C130.637 74.1566 134.702 76.9022 138.134 78.011C139.349 78.3806 145.737 79.9646 145.737 79.9646C145.737 79.9646 146.741 78.1694 147.005 77.483C147.691 75.899 148.272 74.315 148.853 72.731C150.12 69.4046 151.017 66.2366 153.077 63.3326C153.499 62.7518 153.974 62.171 154.449 61.5902C155.717 60.059 157.406 58.8974 159.254 58.211C159.36 58.1582 159.518 58.1582 159.624 58.211C159.835 58.3694 159.677 58.6862 159.465 58.8974L156.984 61.0622C157.67 60.4286 158.409 59.9006 159.254 59.4782C159.624 59.267 160.838 58.475 161.208 58.8974C161.789 59.4782 160.469 59.9534 160.205 60.1646C159.518 60.6926 158.885 61.3262 158.145 61.8014C159.043 61.1678 160.046 60.6398 161.049 60.2174C161.525 60.0062 162.317 60.0062 162.422 60.4814C162.475 60.7982 162.211 61.115 161.947 61.3262L159.835 63.1214C160.416 62.6462 161.525 63.5966 161.683 64.0718C162 64.9166 161.841 65.8142 161.313 66.5534C161.208 66.7118 161.049 66.8702 160.838 66.923C160.627 67.0286 160.416 66.9758 160.257 66.8702C159.571 66.3422 160.31 65.1278 159.254 64.811C158.779 64.7054 158.357 64.9694 158.198 65.4446C158.093 65.867 158.198 66.3422 158.515 66.7118C158.779 66.9758 159.149 67.187 159.096 67.5566C159.096 67.7678 158.937 67.979 158.779 68.0846C158.251 68.4014 157.512 68.243 157.142 67.715C157.142 67.715 157.142 67.715 157.142 67.6622C156.984 67.3982 156.878 66.9758 156.561 67.0814C156.456 67.1342 156.35 67.187 156.297 67.2926C155.928 67.715 154.608 75.1598 154.344 77.6414C153.921 81.0206 153.288 88.2014 149.011 89.1518C148.905 89.2046 148.747 89.2046 148.589 89.2046C144.576 89.627 140.457 88.5182 136.709 87.251C133.593 86.195 129.95 85.3502 127.31 83.3438C126.043 82.2878 125.093 80.8094 124.67 79.1198Z" fill="white"/>
<path d="M146.899 89.6801C143.256 89.6801 139.718 88.6769 136.656 87.6209C136.075 87.4097 135.441 87.1985 134.808 87.0401C132.115 86.1953 129.369 85.2977 127.152 83.6609C125.779 82.4993 124.829 80.9681 124.353 79.2257C123.984 77.8529 124.089 76.6913 124.617 75.8465C125.145 75.0545 125.99 74.5793 126.941 74.4737C129.633 73.9985 132.432 75.2657 135.125 76.4801C136.233 76.9553 137.237 77.4305 138.24 77.7473C139.243 78.0641 144.365 79.3313 145.579 79.6481C145.843 79.1729 146.529 77.9585 146.741 77.4305C147.427 75.8465 148.061 74.2097 148.589 72.6785C148.8 72.0977 149.011 71.5169 149.222 70.9889C150.225 68.2433 151.123 65.6561 152.865 63.2273C153.288 62.5937 153.763 62.0129 154.238 61.4849C155.558 59.9009 157.248 58.6865 159.201 58.0001C159.413 57.8945 159.624 57.8945 159.835 58.0001C159.993 58.1057 160.099 58.2641 160.099 58.4225C160.099 58.5281 160.099 58.6337 160.046 58.7393C160.574 58.5281 161.102 58.3697 161.472 58.7393C161.63 58.8977 161.736 59.1089 161.683 59.3729C161.63 59.5841 161.525 59.7425 161.419 59.9009C161.736 59.8481 162.053 59.8481 162.369 60.0065C162.581 60.1121 162.739 60.3233 162.792 60.5345C162.897 61.1153 162.369 61.5905 162.211 61.7489L160.838 62.9105C161.366 63.1745 161.789 63.5969 162.105 64.1249C162.475 65.0753 162.317 66.1313 161.683 66.9233C161.525 67.1345 161.313 67.2929 161.102 67.3985C160.785 67.5569 160.469 67.5041 160.205 67.2929C159.888 66.9761 159.729 66.5537 159.729 66.1313C159.677 65.6033 159.677 65.4449 159.307 65.3393C159.043 65.2865 158.726 65.4449 158.673 65.7617C158.568 66.0785 158.673 66.4481 158.937 66.6593C158.99 66.7121 159.043 66.7649 159.096 66.8177C159.413 67.0289 159.571 67.3985 159.624 67.7681C159.624 68.0849 159.413 68.4017 159.149 68.5601C158.462 68.9825 157.512 68.7713 157.089 68.0849C157.089 68.0849 157.089 68.0321 157.037 68.0321L156.984 67.9265C156.931 67.8209 156.878 67.7153 156.773 67.6097C156.773 67.6097 156.773 67.6625 156.72 67.7153C156.403 68.2433 155.136 75.3185 154.819 77.8529L154.766 78.3281C154.344 81.9713 153.552 88.6769 149.275 89.6273C149.117 89.6801 148.958 89.6801 148.853 89.6801C148.113 89.6273 147.48 89.6801 146.899 89.6801ZM128.102 75.0545C127.733 75.0545 127.416 75.1073 127.046 75.1601C126.307 75.2129 125.621 75.6353 125.198 76.2161C124.67 77.0609 124.776 78.2225 124.987 79.0673C125.409 80.6513 126.307 82.0769 127.521 83.1329C129.633 84.7169 132.326 85.5617 134.966 86.4065C135.6 86.6177 136.233 86.8289 136.814 86.9873C140.299 88.1489 144.47 89.3105 148.536 88.9409C148.641 88.9409 148.8 88.8881 148.905 88.8881C152.707 88.0433 153.499 81.6017 153.921 78.1697L153.974 77.6945C154.185 75.8465 155.505 67.7681 156.033 67.1873C156.139 67.0289 156.297 66.9233 156.456 66.8705C156.984 66.7649 157.248 67.2929 157.353 67.5569L157.406 67.6625C157.512 67.8737 157.723 67.9793 157.934 68.0321C158.145 68.0849 158.357 68.0321 158.568 67.9265C158.673 67.8737 158.726 67.7681 158.779 67.6625C158.779 67.5569 158.621 67.3985 158.462 67.2401C158.409 67.1873 158.304 67.1345 158.251 67.0289C157.829 66.6065 157.67 66.0257 157.829 65.4449C158.04 64.8113 158.673 64.4945 159.307 64.6001C160.152 64.8113 160.205 65.5505 160.257 65.9729C160.257 66.3425 160.31 66.5537 160.469 66.6593C160.521 66.7121 160.627 66.7121 160.733 66.6593C160.891 66.6065 160.997 66.5009 161.049 66.3953C161.525 65.8145 161.63 65.0225 161.366 64.2833C161.155 63.8609 160.733 63.5441 160.31 63.3857C160.099 63.3329 160.046 63.3857 159.993 63.4385C159.835 63.5441 159.624 63.5441 159.518 63.3857C159.413 63.2273 159.413 63.0161 159.571 62.9105L161.683 61.1153C161.947 60.9041 162.105 60.6929 162.053 60.5873C162.053 60.5345 162 60.4817 162 60.4817C161.736 60.3761 161.419 60.4289 161.155 60.5345C160.152 60.9569 159.201 61.4321 158.304 62.0657C158.145 62.1185 157.934 62.0657 157.881 61.9073C157.829 61.8017 157.829 61.6433 157.934 61.5377C158.357 61.2209 158.779 60.9041 159.149 60.5873C159.413 60.3761 159.677 60.1649 159.941 59.9537C159.993 59.9009 160.152 59.8481 160.257 59.7425C160.363 59.6369 160.944 59.3729 160.944 59.2145C160.944 59.2145 160.944 59.1617 160.891 59.1617C160.838 59.1089 160.627 59.0561 159.571 59.6369L159.307 59.7425C158.726 60.0593 158.145 60.3761 157.67 60.7985L157.089 61.2737C156.931 61.3793 156.72 61.3793 156.614 61.2737C156.509 61.1153 156.509 60.9041 156.614 60.7985C156.825 60.6401 156.984 60.4817 157.195 60.3233L159.096 58.6865L159.149 58.6337C157.353 59.3201 155.769 60.4289 154.555 61.9073C154.08 62.4353 153.657 63.0161 153.235 63.5969C151.545 65.9729 150.648 68.5073 149.645 71.2001C149.433 71.7809 149.222 72.3617 149.011 72.9425C148.43 74.4737 147.797 76.1105 147.11 77.6945C146.793 78.3809 145.843 80.1233 145.79 80.2289C145.737 80.3873 145.579 80.4401 145.421 80.3873C145.157 80.3345 138.979 78.8561 137.817 78.4337C136.814 78.1169 135.758 77.6417 134.649 77.1665C132.59 76.1105 130.32 75.0545 128.102 75.0545Z" fill="#231F20"/>
<path d="M96.7926 73.2594L84.3846 76.4274L79.8438 59.5842C79.8438 59.5842 78.999 55.5714 78.0486 54.9378C76.2534 53.6178 71.343 54.4626 70.4982 56.6802C70.3926 56.997 70.3398 57.3138 70.3398 57.6306C70.3398 58.581 70.7094 59.4786 71.343 60.1122C72.1878 60.957 74.1942 60.7986 74.3526 61.749C74.4582 62.2242 73.8774 62.9634 73.8246 63.4914C73.8246 64.125 73.8774 64.7586 73.983 65.3394C74.2998 68.0322 74.6694 70.725 75.0918 73.4178C75.4614 76.0578 75.9894 78.6978 76.6758 81.285C77.0454 82.6578 77.4678 84.981 78.6822 85.9314C78.8406 86.0898 78.999 86.1426 79.2102 86.1954C82.7478 86.7234 98.1654 82.4994 98.1654 82.4994" fill="white"/>
<path d="M79.9486 86.6704C79.6846 86.6704 79.4206 86.6704 79.1566 86.6176C78.8926 86.5648 78.6814 86.4592 78.4702 86.3008C77.3086 85.456 76.8334 83.5024 76.4638 82.0768L76.3054 81.496C75.619 78.9088 75.091 76.216 74.7214 73.576C74.299 71.1472 73.9822 68.4544 73.6126 65.4976C73.6126 65.3392 73.5598 65.1808 73.5598 65.0752C73.4542 64.6 73.4542 64.072 73.4542 63.5968C73.507 63.28 73.6126 63.016 73.7182 62.752C73.8766 62.488 73.9294 62.224 73.9822 61.96C73.9294 61.6432 73.3486 61.4848 72.7678 61.3264C71.0782 61.0624 69.8638 59.5312 69.9694 57.7888C69.9694 57.4192 70.0222 57.0496 70.1806 56.68C70.5502 55.7296 71.659 54.9376 73.1902 54.4624C75.091 53.8816 77.203 54.04 78.259 54.7792C79.2094 55.4656 80.0014 58.9504 80.1598 59.6368L84.595 76.1104L96.6862 72.9952C96.8446 72.9424 97.0558 73.048 97.1086 73.2592C97.1614 73.4176 97.0558 73.6288 96.8446 73.6816L84.4366 76.8496C84.2782 76.9024 84.067 76.7968 84.0142 76.6384L79.4734 59.7952C79.1566 58.264 78.4174 55.7296 77.8366 55.3072C76.939 54.6736 75.091 54.568 73.3486 55.096C72.0286 55.4656 71.0782 56.152 70.7614 56.8912C70.6558 57.1552 70.603 57.472 70.603 57.736C70.603 58.5808 70.9198 59.3728 71.5006 60.0064C71.923 60.3232 72.3982 60.5344 72.9262 60.64C73.7182 60.8512 74.5102 61.1152 74.6158 61.8016C74.6158 62.224 74.5102 62.6464 74.299 62.9632C74.1934 63.1744 74.1406 63.3856 74.0878 63.5968C74.0878 64.0192 74.0878 64.4944 74.1934 64.9168C74.1934 65.0752 74.2462 65.2336 74.2462 65.392C74.6158 68.3488 74.9854 70.9888 75.355 73.4704C75.7246 76.1104 76.2526 78.7504 76.939 81.3376C76.9918 81.5488 77.0446 81.76 77.0974 81.9712C77.4142 83.2912 77.8894 85.0864 78.8398 85.7728C78.9454 85.8784 79.1038 85.9312 79.2094 85.984C82.6414 86.512 97.8478 82.288 98.0062 82.288C98.1646 82.2352 98.3758 82.3936 98.4286 82.552C98.4814 82.7104 98.3758 82.8688 98.2174 82.9216C97.6894 83.0272 84.5422 86.6704 79.9486 86.6704Z" fill="#231F20"/>
<path d="M120.5 65.4974L125.727 65.0222C125.727 65.0222 123.773 63.0158 124.143 61.379C124.513 59.7422 125.569 59.6366 123.721 56.7326C122.665 55.0958 121.292 53.8286 120.869 51.875C120.394 49.6046 118.969 48.6014 116.54 49.1822C115.801 49.4462 115.061 49.6046 114.269 49.6574C113.583 49.7102 112.844 49.5518 112.157 49.5518C110.151 49.5518 108.303 50.6606 107.353 52.403C106.983 53.1422 107.194 54.0398 106.825 54.6206C106.508 55.0958 105.505 55.4126 105.029 55.7822C103.868 56.6798 103.551 57.7358 103.815 59.1614C104.29 61.8542 106.825 63.1742 104.29 64.811C101.756 66.4478 101.65 68.1902 101.65 68.1902L120.5 65.4974Z" fill="white"/>
<path d="M101.704 68.507C101.598 68.507 101.545 68.4542 101.492 68.4014C101.44 68.3486 101.387 68.243 101.387 68.1374C101.387 68.0846 101.545 66.131 104.185 64.4414C105.558 63.5966 105.241 62.9102 104.502 61.643C104.027 60.851 103.71 60.0062 103.499 59.1614C103.182 57.5246 103.604 56.4158 104.819 55.4654C105.083 55.307 105.294 55.1486 105.558 55.043C105.928 54.8846 106.244 54.6734 106.508 54.4094C106.614 54.1454 106.72 53.8286 106.72 53.5118C106.72 53.0366 106.825 52.6142 107.036 52.1918C108.04 50.291 110.046 49.1294 112.158 49.1294C112.475 49.1294 112.792 49.1822 113.108 49.1822C113.478 49.235 113.9 49.235 114.27 49.235C114.851 49.1822 115.432 49.0766 115.96 48.9182L116.488 48.7598C118.283 48.0206 120.289 48.9182 120.976 50.6606C121.134 50.9774 121.187 51.347 121.24 51.6638C121.504 52.9838 122.296 53.987 123.088 55.0958C123.404 55.5182 123.721 55.9406 124.038 56.4158C125.464 58.5806 125.252 59.3198 124.83 60.323C124.672 60.6398 124.566 60.9566 124.513 61.3262C124.249 62.5406 125.516 64.1774 126.044 64.7054C126.15 64.811 126.15 64.9166 126.097 65.075C126.044 65.1806 125.939 65.2862 125.833 65.2862L120.606 65.7614L101.809 68.4542L101.704 68.507ZM112.052 49.8686C110.204 49.8686 108.462 50.9246 107.564 52.5614C107.406 52.8782 107.353 53.2478 107.353 53.6174C107.353 54.0398 107.248 54.4622 107.036 54.8318C106.72 55.2014 106.297 55.5182 105.822 55.6766C105.611 55.7822 105.4 55.8878 105.188 56.0462C104.185 56.8382 103.868 57.7358 104.132 59.1086C104.291 59.9006 104.608 60.6926 105.083 61.4318C105.769 62.699 106.403 63.9134 104.502 65.1278C102.865 66.131 102.337 67.2398 102.126 67.8206L120.448 65.1806L125.041 64.7582C124.46 64.019 123.51 62.5934 123.774 61.2734C123.88 60.9038 123.985 60.5342 124.144 60.1646C124.46 59.3726 124.672 58.8974 123.404 56.891C123.088 56.4158 122.771 55.9934 122.454 55.6238C121.662 54.515 120.817 53.4062 120.5 51.9278C120.395 50.3966 119.075 49.1822 117.544 49.2878C117.227 49.2878 116.91 49.3934 116.593 49.499L116.118 49.6574C115.537 49.8158 114.904 49.9742 114.27 50.027C113.848 50.027 113.425 50.027 113.003 49.9742C112.739 49.9214 112.422 49.9214 112.105 49.9214L112.052 49.8686Z" fill="#231F20"/>
<path d="M63.582 70.4604C63.5292 70.4604 63.4236 70.4604 63.3708 70.4076C63.2124 70.302 63.1068 70.0908 63.2124 69.8796C65.0604 66.8172 71.238 56.8908 72.9276 56.6268C73.086 56.574 73.2972 56.6796 73.4028 56.7852C74.5116 57.8412 71.3964 65.022 69.9708 68.0316C69.8652 68.2428 69.654 68.2956 69.4956 68.19C69.2844 68.0844 69.2316 67.8732 69.3372 67.7148C71.3436 63.3852 73.2444 58.3164 72.9804 57.4188C71.8716 57.9468 67.5948 64.23 63.8988 70.2492C63.846 70.3548 63.7404 70.4604 63.582 70.4604Z" fill="#231F20"/>
<path d="M62.1027 69.0876L43.9395 92.5308L46.7907 94.7484L47.9523 99.6588L70.3395 91.3692L74.6163 68.1372L62.1027 69.0876Z" fill="white"/>
<path d="M47.9526 100.029C47.7942 100.029 47.6358 99.9232 47.583 99.7648L46.4214 95.0128L43.6758 92.9008C43.5174 92.7952 43.4646 92.5312 43.623 92.3728L61.7862 68.9296C61.839 68.824 61.9446 68.7712 62.0502 68.7712L74.5638 67.8208C74.775 67.8208 74.9334 67.9792 74.9334 68.1376C74.9334 68.1904 74.9334 68.1904 74.9334 68.2432L70.6566 91.4752C70.6038 91.5808 70.551 91.6864 70.4454 91.7392L48.0582 99.976C48.0582 99.976 48.0054 100.029 47.9526 100.029ZM44.4678 92.4784L47.0022 94.4848C47.055 94.5376 47.1078 94.5904 47.1078 94.696L48.2166 99.184L70.023 91.1056L74.1414 68.56L62.2614 69.4576L44.4678 92.4784Z" fill="#D1D3D4"/>
<path d="M64.373 73.0482L61.3634 69.0882L71.4482 64.917L73.7714 67.4514L64.373 73.0482Z" fill="#D1D3D4"/>
<path d="M64.3727 73.4174C64.2671 73.4174 64.1615 73.3646 64.0559 73.259L60.9935 69.299C60.8879 69.1406 60.8879 68.9294 61.0463 68.771C61.0463 68.771 61.0991 68.7182 61.1519 68.7182L71.2895 64.5998C71.4479 64.547 71.6063 64.5998 71.7119 64.7054L74.0351 67.2398C74.0879 67.3454 74.1407 67.451 74.1407 67.5566C74.1407 67.6622 74.0351 67.7678 73.9823 67.8206L64.5839 73.4174C64.5311 73.4174 64.4255 73.4174 64.3727 73.4174ZM61.9439 69.2462L64.4783 72.5726L73.1903 67.3982L71.3423 65.3918L61.9439 69.2462Z" fill="#D1D3D4"/>
<path d="M69.4946 72.3088H69.4418C69.2306 72.256 69.125 72.0976 69.125 71.8864C69.125 71.8336 69.653 68.1376 70.445 64.4944C72.029 56.8384 72.9266 56.7856 73.4018 56.7856C73.613 56.7856 73.8242 56.8912 73.9826 57.0496C75.3554 58.4224 74.8802 67.5568 74.7746 69.4048C74.7746 69.616 74.5634 69.7744 74.405 69.7744C74.1938 69.7744 74.0354 69.616 74.0354 69.4048C74.405 63.28 74.0882 57.8416 73.4018 57.5776C72.5042 57.8416 70.8674 65.3392 69.8642 72.0448C69.8114 72.1504 69.653 72.3088 69.4946 72.3088Z" fill="#231F20"/>
<path d="M66.6971 72.2559L60.5723 98.1807L66.5387 102.141L76.9403 94.2207L78.1547 69.4575L66.6971 72.2559Z" fill="white"/>
<path d="M66.5375 102.51C66.4847 102.51 66.3791 102.51 66.3263 102.457L60.3599 98.4446C60.2543 98.339 60.1487 98.1806 60.2015 98.075L66.2735 72.203C66.3263 72.0446 66.4319 71.9918 66.5375 71.939L78.0479 69.0878C78.1535 69.035 78.2591 69.0878 78.3647 69.1406C78.4704 69.1934 78.5231 69.3518 78.5231 69.4574L77.2559 94.1678C77.2559 94.2734 77.2031 94.379 77.0975 94.4318L66.6959 102.405C66.6959 102.51 66.6431 102.51 66.5375 102.51ZM60.9935 98.0222L66.4847 101.718L76.5167 94.0094L77.7311 69.9326L66.9071 72.5726L60.9935 98.0222Z" fill="#D1D3D4"/>
<path d="M66.0625 72.0448L70.1281 74.0512L78.1537 69.4576L75.6193 67.0288L66.0625 72.0448Z" fill="#D1D3D4"/>
<path d="M70.1278 74.4208C70.075 74.4208 70.0222 74.4208 69.9694 74.368L65.9038 72.3088C65.7454 72.2032 65.6398 71.992 65.7454 71.8336C65.7982 71.7808 65.851 71.728 65.9038 71.6752L75.5134 66.6592C75.6718 66.6064 75.8302 66.6064 75.9358 66.712L78.4702 69.1408C78.5758 69.2464 78.5758 69.352 78.5758 69.4576C78.5758 69.5632 78.523 69.6688 78.4174 69.7216L70.3918 74.3152C70.2862 74.4208 70.1806 74.4208 70.1278 74.4208ZM66.8542 71.992L70.1278 73.6288L77.5726 69.352L75.5662 67.4512L66.8542 71.992Z" fill="#D1D3D4"/>
<path d="M49.3777 97.1249C49.3249 97.1249 49.2193 97.1249 49.1665 97.0721C49.0081 96.9665 48.9553 96.7553 49.0609 96.5969C49.0609 96.5969 49.0609 96.5969 49.0609 96.5441L63.6337 74.3681C63.7393 74.2097 63.9505 74.1569 64.1617 74.2625C64.3201 74.3681 64.3729 74.5793 64.2673 74.7905L49.6945 96.9665C49.5889 97.0721 49.4833 97.1249 49.3777 97.1249Z" fill="#D1D3D4"/>
<path d="M67.5415 100.715C67.2775 100.662 67.1719 100.504 67.1719 100.293L70.3927 76.4799C70.3927 76.2687 70.5511 76.1104 70.7623 76.1104C70.9735 76.1104 71.1319 76.2687 71.1319 76.4799V76.5328L67.9111 100.346C67.8583 100.61 67.6999 100.715 67.5415 100.715Z" fill="#D1D3D4"/>
<path d="M72.7153 75.3712C72.5041 75.3712 72.3457 75.2128 72.3457 75.0016C72.3985 66.976 72.7681 57.3136 74.1937 57.208H74.2465C75.4081 57.208 76.5169 62.752 77.4673 73.6288C77.4673 73.84 77.3089 73.9984 77.0977 73.9984C76.9393 73.9984 76.7809 73.8928 76.7281 73.6816C76.0945 66.6592 75.0385 59.056 74.2465 58C73.5601 59.1616 73.0849 67.3984 73.0321 75.0016C73.0849 75.2128 72.9265 75.3712 72.7153 75.3712Z" fill="#231F20"/>
<path d="M99.5377 125.214L94.4161 140.262L75.9889 131.234C75.9889 131.234 69.2305 140.21 70.4449 140.421C71.6593 140.632 75.9361 139.523 75.9361 139.523C75.9361 139.523 96.4753 154.149 98.9569 151.984C101.438 149.819 109.781 128.066 109.781 128.066" fill="white"/>
<path d="M98.2165 152.512C96.7909 152.512 93.7285 151.403 86.3365 146.81C81.4261 143.747 76.7269 140.421 75.8821 139.84C75.0373 140.051 71.5525 140.949 70.3909 140.738C70.2325 140.685 70.0741 140.579 70.0213 140.421C69.5989 139.312 73.8757 133.451 75.7765 131.022C75.8821 130.917 76.0405 130.864 76.1989 130.917L94.2565 139.787L99.2197 125.109C99.2725 124.95 99.4837 124.845 99.6421 124.898C99.8005 124.95 99.9061 125.162 99.8533 125.32L94.7845 140.368C94.7317 140.474 94.6789 140.526 94.5733 140.579C94.4677 140.632 94.3621 140.632 94.3093 140.579L76.1461 131.656C73.4533 135.246 70.7605 139.206 70.6549 140.104C71.7109 140.21 74.7733 139.47 75.8821 139.154C75.9877 139.154 76.0933 139.154 76.1461 139.206C84.0133 144.803 97.0549 153.146 98.7445 151.667C100.645 149.978 106.612 135.352 109.516 127.854C109.569 127.696 109.78 127.59 109.938 127.643C110.097 127.696 110.202 127.907 110.149 128.066C109.833 128.963 101.701 149.925 99.2197 152.142C98.9557 152.459 98.5861 152.565 98.2165 152.512Z" fill="#231F20"/>
<path d="M131.904 123.578L149.697 157.634C149.697 157.634 159.465 154.149 158.726 155.152C157.987 156.155 144.365 164.392 144.365 164.392L119.549 125.742" fill="white"/>
<path d="M144.365 164.709C144.26 164.709 144.154 164.656 144.101 164.55L119.233 125.848C119.127 125.689 119.18 125.478 119.338 125.373C119.497 125.267 119.708 125.32 119.813 125.478L144.471 163.864C149.117 161.065 156.087 156.736 157.988 155.31C155.242 156.049 152.497 156.894 149.857 157.897C149.698 157.95 149.54 157.897 149.434 157.739L131.588 123.736C131.482 123.577 131.588 123.366 131.746 123.261C131.905 123.155 132.116 123.208 132.169 123.366L149.857 157.158C158.463 154.043 158.833 154.518 158.991 154.782C159.097 154.94 159.097 155.152 158.991 155.31C158.252 156.366 145.949 163.811 144.524 164.656C144.524 164.709 144.418 164.709 144.365 164.709Z" fill="#231F20"/>
<path d="M105.397 71.7282C100.645 76.4274 101.86 85.1394 101.596 92.5314L125.039 96.1218C125.039 96.1218 126.306 75.2658 122.98 72.045C119.653 68.8242 110.149 67.029 105.397 71.7282Z" fill="#231F20"/>
<path d="M125.039 96.4387L101.543 92.8483C101.385 92.7955 101.279 92.6899 101.279 92.5315C101.332 91.0531 101.332 89.4691 101.332 87.9379C101.332 81.7603 101.279 75.3187 105.186 71.5171C109.938 66.8179 119.654 68.4019 123.244 71.8339C126.676 75.1075 125.462 95.2771 125.409 96.1747C125.409 96.2803 125.356 96.3331 125.303 96.3859C125.198 96.4387 125.092 96.4387 125.039 96.4387ZM101.913 92.2675L124.722 95.7523C124.881 93.0067 125.726 75.1075 122.769 72.3091C119.707 69.4051 110.361 67.2403 105.609 71.9923C101.913 75.6355 101.913 81.9187 101.966 87.9907C101.966 89.3635 101.966 90.8419 101.913 92.2675Z" fill="#231F20"/>
<path d="M122.664 83.9249L132.485 86.5649L135.072 75.7409L121.397 70.8833L122.664 83.9249Z" fill="#231F20"/>
<path d="M132.485 86.8814C132.432 86.8814 132.432 86.8814 132.379 86.8814L122.506 84.2414C122.4 84.1886 122.295 84.083 122.242 83.9774L121.027 70.9886C121.027 70.883 121.08 70.7774 121.133 70.7246C121.239 70.6718 121.344 70.619 121.45 70.6718L135.125 75.5294C135.283 75.5822 135.389 75.7406 135.336 75.899L132.749 86.6702C132.749 86.7758 132.696 86.8286 132.591 86.8814C132.591 86.8814 132.538 86.8814 132.485 86.8814ZM122.928 83.6606L132.274 86.1422L134.703 75.9518L121.767 71.3582L122.928 83.6606Z" fill="#231F20"/>
<path d="M111.101 68.4014L92.4102 73.3646L95.7366 84.6638L113.161 81.4958L111.154 69.6158" fill="#231F20"/>
<path d="M95.6842 84.9806C95.5258 84.9806 95.4202 84.875 95.3674 84.7694L92.0938 73.4702C92.041 73.3118 92.1466 73.1006 92.305 73.0478L110.996 68.0846C111.155 68.0318 111.366 68.1902 111.366 68.3486C111.366 68.507 111.313 68.6654 111.155 68.7182L92.833 73.5758L95.9482 84.2414L112.791 81.179L110.838 69.563C110.785 69.4046 110.943 69.2462 111.102 69.1934C111.26 69.1406 111.419 69.299 111.471 69.4574L113.478 81.3902C113.531 81.5486 113.372 81.707 113.214 81.7598L95.7898 84.9278L95.6842 84.9806Z" fill="#231F20"/>
<path d="M117.753 65.8673L118.229 70.4609C118.229 70.4609 118.017 73.0481 115.166 72.5201C113.477 72.2033 111.998 71.0945 111.153 69.5633C111.048 69.1937 111.048 68.7713 111.101 68.4017L110.942 65.7089C110.889 64.3361 110.678 62.9633 110.731 61.5905C110.784 60.2177 110.731 58.8449 110.784 57.4193C110.731 57.2609 110.837 57.1553 110.942 57.1025H110.995C111.365 57.0497 111.787 57.0497 112.157 57.1553C112.157 56.2049 112.051 55.2545 111.84 54.3569C112.632 54.9377 113.265 55.7825 113.635 56.6801C114.585 56.6273 115.536 56.6801 116.486 56.8385C116.592 56.2049 116.539 55.5185 116.222 54.9377C116.645 55.4657 116.961 55.9937 117.331 56.5217C117.806 56.6801 118.229 56.6801 118.704 56.6801C118.915 56.4689 118.862 55.1489 118.862 54.8321C119.496 55.6769 119.971 56.6273 120.129 57.6305C120.341 58.5809 120.341 62.4353 120.341 63.4385C120.341 64.9169 119.337 66.0785 117.753 65.8673Z" fill="white"/>
<path d="M115.852 72.9423C115.588 72.9423 115.324 72.8895 115.06 72.8895C113.265 72.5199 111.733 71.4111 110.836 69.7743C110.73 69.4575 110.677 69.1407 110.73 68.7711C110.73 68.6655 110.73 68.5599 110.73 68.4543L110.572 65.7615C110.572 65.3391 110.519 64.8639 110.466 64.3887C110.361 63.4911 110.308 62.5407 110.361 61.6431C110.361 61.0095 110.361 60.3231 110.361 59.6895C110.361 59.0559 110.361 58.2111 110.413 57.4719C110.413 57.3135 110.466 57.1551 110.572 56.9967C110.677 56.8911 110.783 56.8383 110.941 56.8383C111.258 56.7855 111.522 56.7855 111.839 56.7855C111.839 55.9935 111.733 55.2015 111.522 54.4623C111.469 54.3039 111.575 54.0927 111.786 54.0399C111.892 53.9871 111.997 54.0399 112.05 54.0927C112.842 54.6735 113.476 55.4655 113.898 56.3631C114.69 56.3631 115.429 56.3631 116.221 56.4687C116.274 55.9935 116.169 55.5183 115.957 55.0959C115.905 54.9375 115.957 54.7263 116.116 54.6735C116.274 54.6207 116.433 54.6207 116.538 54.7791C116.908 55.2543 117.277 55.7823 117.594 56.3103C117.911 56.3631 118.228 56.4159 118.492 56.4159C118.545 56.2047 118.545 55.5711 118.545 55.3071C118.545 55.0959 118.545 54.9375 118.545 54.8847C118.545 54.6735 118.703 54.5679 118.914 54.5679C119.02 54.5679 119.073 54.6207 119.125 54.6735C119.812 55.5183 120.287 56.5215 120.498 57.6303C120.709 59.4255 120.762 61.2207 120.709 63.0159V63.4911C120.762 64.3359 120.393 65.1279 119.812 65.6559C119.337 66.0255 118.756 66.2367 118.175 66.2367L118.597 70.4079C118.545 71.1999 118.175 71.9391 117.541 72.4143C117.013 72.7839 116.433 72.9423 115.852 72.9423ZM111.1 57.5247C111.1 58.2639 111.047 59.0031 111.047 59.6895C111.047 60.3759 111.047 61.0095 111.047 61.6959C111.047 62.5935 111.1 63.4911 111.153 64.3887C111.205 64.8639 111.205 65.2863 111.258 65.7615L111.417 68.4543C111.417 68.5599 111.417 68.6655 111.417 68.8239C111.417 69.0351 111.417 69.2991 111.469 69.5103C112.261 70.9359 113.634 71.9391 115.218 72.2559C115.852 72.4143 116.538 72.3087 117.119 71.9391C117.541 71.5695 117.858 71.0415 117.911 70.4607L117.436 65.9727C117.436 65.8671 117.489 65.7615 117.541 65.7087C117.594 65.6559 117.7 65.6031 117.805 65.6031C118.333 65.7087 118.914 65.5503 119.337 65.1807C119.812 64.7583 120.023 64.1247 120.023 63.5439V63.0159C120.023 61.6959 120.023 58.5807 119.812 57.7887C119.653 57.1551 119.442 56.5215 119.178 55.9935C119.178 56.5743 119.073 56.8383 118.914 56.9967C118.597 57.2607 117.277 56.8911 117.225 56.8911C117.119 56.8383 117.066 56.7855 117.013 56.7327C116.961 56.6271 116.908 56.5743 116.855 56.4687C116.855 56.6271 116.802 56.8383 116.802 56.9967C116.749 57.1551 116.591 57.3135 116.433 57.2607C115.535 57.1023 114.585 57.1023 113.687 57.1023C113.529 57.1023 113.423 57.0495 113.37 56.8911C113.159 56.3103 112.842 55.8351 112.42 55.3599C112.525 55.9935 112.578 56.6271 112.525 57.2079C112.525 57.3135 112.473 57.4191 112.42 57.4719C112.314 57.5247 112.209 57.5775 112.156 57.5247C111.786 57.4719 111.469 57.4719 111.1 57.5247Z" fill="#231F20"/>
<path d="M117.964 68.1378C116.856 68.2434 115.694 67.9794 114.796 67.293C114.057 66.7122 113.582 65.8674 113.529 64.917C114.849 65.6034 116.275 65.9202 117.753 65.9202L117.964 68.1378Z" fill="#231F20"/>
<path d="M117.49 68.4546C116.434 68.4546 115.43 68.1378 114.586 67.5042C113.741 66.8706 113.266 65.9202 113.213 64.8642C113.213 64.7058 113.371 64.5474 113.53 64.5474C113.582 64.5474 113.635 64.5474 113.688 64.6002C114.955 65.2338 116.328 65.5506 117.754 65.5506C117.912 65.5506 118.07 65.6562 118.123 65.8674L118.334 68.1378C118.334 68.2962 118.229 68.4546 118.07 68.5074C117.806 68.4546 117.648 68.4546 117.49 68.4546ZM113.952 65.3922C114.11 66.0258 114.48 66.5538 115.008 66.9762C115.747 67.557 116.645 67.821 117.595 67.7682L117.49 66.1314C116.275 66.1842 115.061 65.9202 113.952 65.3922Z" fill="#231F20"/>
<path d="M116.276 62.488C116.117 62.488 115.959 62.4879 115.8 62.4351C115.642 62.3823 115.536 62.224 115.589 62.0128C115.642 61.8544 115.748 61.7488 115.906 61.7488C116.223 61.8016 116.804 61.8015 116.909 61.6431C116.54 60.9039 116.117 60.2176 115.536 59.584C115.431 59.4256 115.431 59.2144 115.589 59.1088C115.748 59.0032 115.959 59.0032 116.064 59.1616C117.912 61.432 117.543 61.9072 117.437 62.0128C117.12 62.3824 116.698 62.5408 116.276 62.488Z" fill="#231F20"/>
<path d="M111.998 59.1614C111.787 58.5806 111.418 58.1054 110.995 57.683C110.52 57.2606 109.886 57.155 109.358 57.4718C108.778 57.7886 108.672 58.5806 108.725 59.2142C108.831 59.9534 109.042 60.6926 109.306 61.379C109.464 61.8014 109.728 62.171 110.045 62.435C110.415 62.7518 110.89 62.7518 111.259 62.4878" fill="white"/>
<path d="M110.785 63.0157C110.468 63.0157 110.151 62.9101 109.887 62.6989C109.518 62.3821 109.201 61.9597 109.042 61.4845C108.726 60.7453 108.514 60.0061 108.409 59.2141C108.303 58.2637 108.62 57.4717 109.201 57.1021C109.887 56.7325 110.679 56.8381 111.26 57.3661C111.735 57.7885 112.105 58.3693 112.369 58.9501C112.422 59.1085 112.369 59.3197 112.21 59.4253C112.052 59.5309 111.841 59.4253 111.735 59.2669C111.524 58.7389 111.207 58.3165 110.838 57.8941C110.521 57.5773 109.993 57.4717 109.57 57.6829C109.042 57.9997 109.095 58.8445 109.095 59.1085C109.201 59.7949 109.359 60.5341 109.676 61.1677C109.782 61.5373 109.993 61.8541 110.31 62.1181C110.521 62.3293 110.838 62.3293 111.102 62.1709C111.26 62.0653 111.471 62.0653 111.577 62.2237C111.682 62.3821 111.682 62.5933 111.524 62.6989C111.313 62.9101 111.049 63.0157 110.785 63.0157Z" fill="#231F20"/>
<path d="M143.467 163.177C143.52 163.23 150.595 158.584 150.595 158.584C150.595 158.584 150.384 156.472 150.964 155.997C151.545 155.521 159.729 153.145 160.416 154.307C161.102 155.469 144.628 166.293 144.628 166.293L143.467 163.177Z" fill="#231F20"/>
<path d="M144.629 166.61H144.523C144.418 166.557 144.365 166.504 144.312 166.398L143.151 163.336C143.098 163.178 143.151 163.019 143.309 162.914H143.362C143.784 162.702 147.639 160.168 150.279 158.426C150.226 157.739 150.173 156.208 150.807 155.733C151.44 155.258 157.935 153.304 159.994 153.674C160.258 153.726 160.522 153.832 160.733 154.096C160.944 154.466 161.314 155.099 153.024 160.96C149.011 163.811 144.893 166.504 144.84 166.504C144.787 166.61 144.682 166.61 144.629 166.61ZM143.89 163.336L144.84 165.765C152.074 161.013 159.677 155.522 160.152 154.413C160.099 154.36 159.994 154.36 159.941 154.36C158.093 153.99 151.757 155.944 151.229 156.261C150.965 156.472 150.912 157.634 150.965 158.584C150.965 158.69 150.912 158.795 150.807 158.901C146.424 161.752 144.629 162.914 143.89 163.336Z" fill="#231F20"/>
<path d="M77.9428 131.814L73.138 138.89L74.5635 140.632C74.5635 140.632 68.386 144.328 67.2772 143.43C66.1684 142.533 75.0915 130.23 75.0915 130.23L77.9428 131.814Z" fill="#231F20"/>
<path d="M67.7515 143.853C67.4875 143.853 67.2763 143.8 67.0651 143.641C65.9563 142.744 70.6555 135.721 74.8267 129.966C74.9323 129.808 75.0907 129.808 75.2491 129.861L78.1003 131.445C78.1531 131.497 78.2587 131.55 78.2587 131.656C78.2587 131.761 78.2587 131.814 78.2059 131.92L73.5067 138.784L74.7739 140.368C74.8267 140.421 74.8795 140.526 74.8267 140.632C74.8267 140.737 74.7739 140.79 74.6683 140.843C73.4011 141.688 69.5467 143.853 67.7515 143.853ZM75.1435 130.653C71.1307 136.249 67.2235 142.427 67.4875 143.219C68.0155 143.641 71.2363 142.163 74.0347 140.526L72.8731 139.048C72.7675 138.942 72.7675 138.784 72.8731 138.678L77.5195 131.92L75.1435 130.653Z" fill="#231F20"/>
<path d="M116.275 64.2303H116.064C115.166 64.1247 114.427 63.4911 113.74 62.2239C113.635 62.0655 113.688 61.8543 113.846 61.8015C114.004 61.6959 114.216 61.7487 114.268 61.9071C114.796 62.9631 115.377 63.4911 116.064 63.5967C117.067 63.7023 117.912 62.6463 117.912 62.6463C118.017 62.4879 118.228 62.4879 118.387 62.5935C118.545 62.6991 118.545 62.9103 118.44 63.0687C118.44 63.0687 117.489 64.2303 116.275 64.2303Z" fill="#231F20"/>
<path d="M113.424 58.6865C113.371 58.6865 113.265 58.6865 113.212 58.6337C113.054 58.5281 113.054 58.3169 113.16 58.1585C113.212 58.0529 113.793 57.3137 114.48 57.3665C114.849 57.4193 115.166 57.6833 115.272 58.0529C115.324 58.2113 115.272 58.4225 115.113 58.4753C114.955 58.5281 114.744 58.4753 114.691 58.3169C114.638 58.2113 114.532 58.0001 114.427 58.0001C114.321 58.0001 113.899 58.2641 113.74 58.5281C113.635 58.6865 113.529 58.6865 113.424 58.6865Z" fill="#231F20"/>
<path d="M118.546 58.792C118.44 58.792 118.282 58.7392 118.229 58.5808C118.176 58.4752 117.912 58.0528 117.648 58C117.49 57.9472 117.331 58.3696 117.331 58.3696C117.278 58.528 117.12 58.6336 116.909 58.5808C116.75 58.528 116.645 58.3696 116.698 58.1584C116.803 57.6304 117.278 57.2608 117.806 57.3136C118.282 57.472 118.651 57.7888 118.81 58.264C118.862 58.4224 118.81 58.6336 118.651 58.6864C118.651 58.792 118.598 58.792 118.546 58.792Z" fill="#231F20"/>
<path d="M100.911 89.627C100.911 89.627 98.9042 102.774 91.0898 135.51C91.0898 135.51 92.0402 140.896 108.567 141.213C125.093 141.529 139.296 129.702 139.296 129.702L126.149 92.2142L100.911 89.627Z" fill="#FFD600"/>
<path d="M107.035 95.963L106.824 69.2462L109.622 68.3486L109.675 96.4382L107.035 95.963Z" fill="#FFD600"/>
<path d="M120.024 69.3521L119.602 94.8544L122.083 95.6464L122.664 70.1969L120.024 69.3521Z" fill="#FFD600"/>
<path d="M76.4109 56.2576C75.8829 55.624 75.0381 55.2544 74.1933 55.3072C73.3485 55.36 72.5565 55.5184 71.7645 55.7824C71.6061 55.8352 71.3949 55.9408 71.4477 56.0992C71.5005 56.2576 71.6061 56.3104 71.7117 56.3632C72.6093 56.7328 73.5597 56.8912 74.5101 56.8912C73.9821 57.3664 73.9821 58.2112 74.1405 58.8976C74.2989 59.848 74.7741 60.6928 75.5133 61.3264C76.2525 61.96 77.3085 62.0656 78.1533 61.5904" fill="white"/>
<path d="M77.0445 62.2239C76.4109 62.2239 75.7773 62.0127 75.2493 61.5903C74.4573 60.9039 73.9293 59.9535 73.7709 58.9503C73.6125 58.3695 73.6653 57.7887 73.8237 57.2079C73.0317 57.1551 72.2397 56.9967 71.5533 56.6799C71.2893 56.6271 71.0781 56.3631 71.0781 56.0991C71.0781 55.9407 71.1309 55.6239 71.6589 55.4655C72.4509 55.1487 73.2957 54.9903 74.1933 54.9375C75.1437 54.8847 76.0413 55.3071 76.6749 56.0463C76.7805 56.2047 76.6749 56.4159 76.5165 56.5215C76.4109 56.5743 76.2525 56.5743 76.1469 56.4687C75.6717 55.9407 74.9325 55.6239 74.1933 55.6767C73.4013 55.7295 72.6621 55.8879 71.9229 56.1519C72.7677 56.4687 73.6125 56.6271 74.5101 56.6271C74.6685 56.6271 74.7741 56.7327 74.8269 56.8383C74.8797 56.9439 74.8269 57.1023 74.7213 57.2079C74.2461 57.6303 74.3517 58.4223 74.4573 58.8975C74.6157 59.7423 75.0381 60.5343 75.6717 61.1151C76.3053 61.6431 77.2029 61.7487 77.9421 61.3791C78.1005 61.2735 78.3117 61.3791 78.4173 61.5375C78.4701 61.6959 78.4701 61.8543 78.3117 61.9599C77.9421 62.0655 77.5197 62.2239 77.0445 62.2239Z" fill="#231F20"/>
<path d="M115.695 106.154H115.22C107.141 105.89 106.666 96.8082 106.666 96.7026C106.666 96.597 106.719 96.4914 106.772 96.4386C106.825 96.3858 106.93 96.333 107.036 96.333L123.826 96.4914C124.037 96.4914 124.196 96.6498 124.196 96.8082C124.46 99.501 123.721 102.035 122.137 103.725C120.553 105.415 118.493 106.154 115.695 106.154ZM107.458 97.0722C107.617 98.445 107.986 99.765 108.567 101.032C109.729 103.725 112.369 105.467 115.273 105.415C118.071 105.52 120.183 104.781 121.609 103.25C123.457 101.243 123.562 98.6034 123.457 97.2306L107.458 97.0722Z" fill="#231F20"/>
<path d="M17.6462 167.982C20.9997 167.982 23.7182 167.557 23.7182 167.032C23.7182 166.507 20.9997 166.082 17.6462 166.082C14.2927 166.082 11.5742 166.507 11.5742 167.032C11.5742 167.557 14.2927 167.982 17.6462 167.982Z" fill="#D1D3D4"/>
<path d="M18.8061 139.365C18.8589 138.52 18.7005 137.675 18.2781 136.883C17.8557 136.355 17.4861 135.827 17.1693 135.299C16.6941 134.296 17.0109 133.134 16.9053 132.026C16.7997 131.128 16.3773 130.23 15.7437 129.597C15.1629 129.016 14.4237 128.594 13.8957 128.013C12.9981 127.01 12.7341 125.637 12.2061 124.37C11.4669 122.627 10.1997 121.149 8.61566 120.146C9.61886 122.099 7.34846 124.633 8.40446 126.587C8.72126 127.221 9.35486 127.643 9.56606 128.33C10.1469 129.914 8.24606 131.656 8.82686 133.24C9.14366 134.032 9.98846 134.507 10.3581 135.246C10.8861 136.249 10.4637 137.464 10.5165 138.626C10.5693 140.21 11.5197 141.582 12.6813 142.691C13.3677 143.377 14.1597 143.958 14.9517 144.539C15.8493 145.278 16.2717 146.018 17.0637 144.856C18.1197 143.219 18.7533 141.318 18.8061 139.365Z" fill="#D1D3D4"/>
<path d="M19.8097 140.262C19.4929 139.048 19.3345 137.728 19.8097 136.566C20.3905 135.246 21.7633 134.349 21.9217 132.976C22.0273 132.078 21.5521 131.128 21.7633 130.23C21.9745 129.333 22.7137 128.699 23.2945 128.013C24.7201 126.482 25.5121 124.475 25.6705 122.416C26.6209 123.525 27.3601 124.792 27.9409 126.165C28.4689 127.538 28.3633 129.122 27.6241 130.389C27.4129 130.653 27.2017 130.97 27.0433 131.339C26.7793 132.237 27.5185 133.082 27.9409 133.926C28.4161 134.93 28.3105 136.091 27.6769 136.989C26.8849 137.992 25.3537 138.362 24.9313 139.576C24.8257 140.051 24.7729 140.474 24.7729 140.949C24.6145 142.586 23.4529 143.958 21.8689 144.434C20.9185 144.645 20.9185 144.275 20.7601 143.483C20.4961 142.322 20.0737 141.318 19.8097 140.262Z" fill="#D1D3D4"/>
<path d="M16.7997 131.497C16.1133 129.174 15.8493 126.745 15.1629 124.422C14.5821 122.627 13.8429 120.832 12.9453 119.142L15.8493 120.356C16.7997 120.726 17.8029 121.201 18.2253 122.099C18.9645 123.683 17.6445 125.689 18.4365 127.273C18.8061 127.801 19.1757 128.276 19.5981 128.699C20.4429 129.913 20.3373 131.55 19.8621 132.923C19.6509 133.504 18.8061 136.619 18.0141 135.774C17.6973 135.457 17.6445 134.137 17.5389 133.662C17.2749 132.976 17.0109 132.237 16.7997 131.497Z" fill="#D1D3D4"/>
<path d="M18.384 162.491C17.8032 158.69 16.008 145.279 16.008 145.12L16.4832 145.067C16.4832 145.173 18.2784 158.637 18.8592 162.439L18.384 162.491Z" fill="#D1D3D4"/>
<path d="M19.0708 166.081H18.5428C18.5956 161.541 20.4436 144.275 21.5524 143.061L21.922 143.377C21.1828 144.222 19.0708 159.904 19.0708 166.081Z" fill="#D1D3D4"/>
<path d="M20.0222 165.237H19.547C19.9694 155.469 17.9102 134.982 17.9102 134.824L18.3854 134.771C18.3854 134.929 20.4446 155.416 20.0222 165.237Z" fill="#D1D3D4"/>
<path d="M13.4219 153.304H24.1931L23.4539 164.181C23.3483 166.082 21.7643 167.507 19.8635 167.507H17.7515C15.8507 167.507 14.3195 166.029 14.1611 164.128L13.4219 153.304Z" fill="white"/>
<path d="M19.862 167.929H17.75C15.6908 167.929 13.9484 166.292 13.79 164.233L13.0508 153.304C13.0508 153.092 13.2092 152.934 13.4204 152.934H24.1916C24.2972 152.934 24.4028 152.987 24.4556 153.04C24.5084 153.092 24.5612 153.198 24.5612 153.304L23.822 164.18C23.6636 166.292 21.9212 167.929 19.862 167.929ZM13.79 153.673L14.5292 164.18C14.6348 165.87 16.0604 167.19 17.75 167.19H19.862C21.5516 167.19 22.9772 165.87 23.0828 164.18L23.822 153.673H13.79Z" fill="#D1D3D4"/>
</svg>
