<svg width="222" height="222" viewBox="0 0 222 222" fill="none" xmlns="http://www.w3.org/2000/svg">
<path d="M180.397 180.13H180.352L153.801 175.779C148.118 174.847 143.678 170.318 142.923 164.59L139.638 140.437C139.593 140.259 139.726 140.081 139.904 140.081C140.082 140.037 140.259 140.17 140.259 140.348L143.545 164.501C144.255 169.918 148.473 174.269 153.89 175.157L180.308 179.509L192.074 170.762L172.671 166.988C166.011 165.7 161.038 160.106 160.506 153.357L156.288 98.9226L136.041 109.223C135.864 109.312 135.686 109.268 135.597 109.09L127.694 93.195C127.605 93.0174 127.694 92.8398 127.827 92.751H127.872L147.408 87.201C147.541 87.1566 147.674 87.201 147.763 87.2898L156.732 98.1234L206.238 104.339C206.415 104.384 206.548 104.517 206.504 104.695C206.46 104.872 206.326 105.005 206.149 104.961L156.909 98.745L161.127 153.224C161.66 159.706 166.411 165.034 172.76 166.277L192.918 170.185C193.051 170.229 193.14 170.318 193.184 170.407C193.228 170.54 193.184 170.673 193.051 170.762L180.574 180.041C180.53 180.13 180.441 180.13 180.397 180.13ZM128.449 93.2394L136.041 108.513L156.066 98.3454L147.408 87.867L128.449 93.2394Z" fill="#D1D3D4"/>
<path d="M139.949 140.703C139.816 140.703 139.683 140.614 139.638 140.481C139.55 140.304 139.638 140.126 139.816 140.082L159.086 132.045C159.13 132.045 159.219 132.001 159.263 132.045L199.534 137.595C199.712 137.64 199.845 137.773 199.8 137.95C199.756 138.128 199.623 138.261 199.445 138.217L159.263 132.667L140.082 140.659C140.038 140.703 139.994 140.703 139.949 140.703Z" fill="#D1D3D4"/>
<path d="M166.411 171.34C168.005 171.34 169.297 169.829 169.297 167.965C169.297 166.102 168.005 164.591 166.411 164.591C164.817 164.591 163.525 166.102 163.525 167.965C163.525 169.829 164.817 171.34 166.411 171.34Z" fill="white"/>
<path d="M166.412 171.651C164.636 171.651 163.215 169.963 163.215 167.921C163.215 165.879 164.636 164.191 166.412 164.191C168.188 164.191 169.608 165.879 169.608 167.921C169.608 169.963 168.143 171.651 166.412 171.651ZM166.412 164.902C165.035 164.902 163.881 166.278 163.881 167.965C163.881 169.653 165.035 171.029 166.412 171.029C167.788 171.029 168.942 169.653 168.942 167.965C168.942 166.278 167.788 164.902 166.412 164.902Z" fill="#D1D3D4"/>
<path d="M155.488 182.706C157.081 182.706 158.374 181.195 158.374 179.331C158.374 177.468 157.081 175.957 155.488 175.957C153.894 175.957 152.602 177.468 152.602 179.331C152.602 181.195 153.894 182.706 155.488 182.706Z" fill="white"/>
<path d="M155.489 183.061C153.713 183.061 152.292 181.374 152.292 179.331C152.292 177.289 153.713 175.602 155.489 175.602C157.265 175.602 158.686 177.289 158.686 179.331C158.686 181.374 157.22 183.061 155.489 183.061ZM155.489 176.268C154.068 176.268 152.958 177.644 152.958 179.331C152.958 181.018 154.112 182.395 155.489 182.395C156.865 182.395 158.02 181.018 158.02 179.331C158.02 177.644 156.865 176.268 155.489 176.268Z" fill="#D1D3D4"/>
<path d="M171.162 185.059C172.756 185.059 174.048 183.549 174.048 181.685C174.048 179.821 172.756 178.311 171.162 178.311C169.568 178.311 168.276 179.821 168.276 181.685C168.276 183.549 169.568 185.059 171.162 185.059Z" fill="white"/>
<path d="M171.163 185.414C169.387 185.414 167.966 183.727 167.966 181.685C167.966 179.642 169.387 177.955 171.163 177.955C172.939 177.955 174.359 179.642 174.359 181.685C174.359 183.727 172.939 185.414 171.163 185.414ZM171.163 178.621C169.742 178.621 168.632 179.997 168.632 181.685C168.632 183.372 169.786 184.748 171.163 184.748C172.539 184.748 173.693 183.372 173.693 181.685C173.693 179.997 172.583 178.621 171.163 178.621Z" fill="#D1D3D4"/>
<path d="M183.861 175.425C185.455 175.425 186.747 173.914 186.747 172.05C186.747 170.187 185.455 168.676 183.861 168.676C182.267 168.676 180.975 170.187 180.975 172.05C180.975 173.914 182.267 175.425 183.861 175.425Z" fill="white"/>
<path d="M183.861 175.735C182.085 175.735 180.664 174.047 180.664 172.005C180.664 169.963 182.085 168.275 183.861 168.275C185.637 168.275 187.058 169.963 187.058 172.005C187.058 174.047 185.592 175.735 183.861 175.735ZM183.861 168.986C182.484 168.986 181.33 170.362 181.33 172.049C181.33 173.737 182.484 175.113 183.861 175.113C185.237 175.113 186.392 173.737 186.392 172.049C186.392 170.362 185.237 168.986 183.861 168.986Z" fill="#D1D3D4"/>
<path d="M187.056 136.53H186.968C186.79 136.486 186.701 136.308 186.746 136.13L193.894 103.63C193.938 103.452 194.116 103.363 194.294 103.363C194.471 103.408 194.56 103.585 194.56 103.763L187.367 136.264C187.323 136.397 187.19 136.53 187.056 136.53Z" fill="#D1D3D4"/>
<path d="M176.98 135.109C176.802 135.109 176.669 134.976 176.669 134.798L177.557 101.099C177.557 100.921 177.69 100.788 177.868 100.788C178.045 100.788 178.179 100.921 178.179 101.099L177.291 134.798C177.291 134.976 177.157 135.109 176.98 135.109Z" fill="#D1D3D4"/>
<path d="M149.717 136.663C149.539 136.663 149.406 136.53 149.406 136.397L145.011 104.163C144.966 103.985 145.099 103.807 145.277 103.807C145.455 103.763 145.632 103.896 145.632 104.074L150.028 136.308C150.072 136.486 149.939 136.663 149.717 136.663Z" fill="#D1D3D4"/>
<path d="M152.292 112.065C152.469 111.444 149.761 83.4271 149.761 83.4271L179.953 79.3867L188.3 110.689L152.292 112.065Z" fill="white"/>
<path d="M152.292 112.332C152.204 112.332 152.115 112.287 152.07 112.243C152.026 112.154 151.982 112.065 152.026 111.976C152.115 111.133 150.561 94.4385 149.495 83.4273C149.495 83.2497 149.584 83.1165 149.762 83.1165L179.954 79.0761C180.087 79.0317 180.22 79.1649 180.264 79.2981L188.612 110.6C188.656 110.689 188.612 110.778 188.567 110.866C188.523 110.955 188.434 111 188.345 111L152.292 112.332ZM150.072 83.6493C150.694 90.0873 152.514 108.78 152.559 111.754L187.901 110.378L179.732 79.6977L150.072 83.6493Z" fill="#231F20"/>
<path d="M194.206 137.195L199.49 93.9498L175.647 87.6006L154.779 130.891L194.206 137.195Z" fill="white"/>
<path d="M194.205 137.462H194.161L154.778 131.202C154.689 131.202 154.6 131.113 154.556 131.024C154.511 130.936 154.511 130.847 154.556 130.758L175.424 87.4237C175.468 87.2905 175.646 87.2461 175.779 87.2461L199.577 93.6397C199.711 93.6841 199.799 93.8173 199.799 93.9505L194.471 137.196C194.471 137.285 194.427 137.329 194.338 137.418C194.338 137.462 194.249 137.462 194.205 137.462ZM155.222 130.669L193.939 136.841L199.133 94.1725L175.823 87.9121L155.222 130.669Z" fill="#231F20"/>
<path d="M175.602 98.4789C175.557 98.4789 175.469 98.4789 175.424 98.4345C175.335 98.3901 175.247 98.2569 175.291 98.1237C175.291 97.3689 173.471 87.9561 170.585 84.9369C169.563 83.8713 168.542 83.7825 167.743 84.6261C165.301 87.1569 165.745 96.8805 165.745 96.9693C165.745 97.1469 165.612 97.2801 165.479 97.2801C165.301 97.2801 165.168 97.1469 165.168 97.0137C165.168 96.6141 164.724 86.9349 167.299 84.2265C167.699 83.7381 168.32 83.4717 168.942 83.4717C170.141 83.4717 171.251 84.4929 172.361 86.4465C174.536 90.3981 176.09 97.9017 175.824 98.3457C175.779 98.4345 175.691 98.4789 175.602 98.4789Z" fill="#231F20"/>
<path d="M168.542 136.396C168.364 136.396 168.231 136.263 168.231 136.085L166.056 100.921C166.056 100.743 166.189 100.61 166.366 100.565C166.544 100.565 166.722 100.699 166.722 100.876L168.897 136.041C168.853 136.263 168.72 136.396 168.542 136.396Z" fill="#D1D3D4"/>
<path d="M149.672 139.372C149.45 138.839 153.668 98.2129 153.668 98.2129L177.777 102.386L181.151 140.304L149.672 139.372Z" fill="white"/>
<path d="M181.151 140.571L149.672 139.638C149.539 139.638 149.45 139.549 149.405 139.461C149.183 138.928 152.114 110.423 153.401 98.1686C153.401 98.0798 153.446 98.0354 153.535 97.9466C153.579 97.9022 153.668 97.8578 153.757 97.9022L177.866 102.076C177.999 102.12 178.088 102.209 178.088 102.342L181.462 140.26C181.462 140.349 181.462 140.437 181.373 140.482C181.329 140.571 181.24 140.615 181.151 140.571ZM149.938 139.061L180.796 139.993L177.466 102.653L153.89 98.5682C152.824 109.402 150.072 136.175 149.938 139.061Z" fill="#231F20"/>
<path d="M153.668 98.2127L157.398 94.0391L184.26 95.9927L177.777 102.386L153.668 98.2127Z" fill="white"/>
<path d="M177.778 102.697H177.733L153.624 98.5233C153.535 98.5233 153.447 98.4345 153.402 98.3457C153.358 98.2569 153.402 98.1237 153.447 98.0349L157.176 93.8613C157.221 93.7725 157.309 93.7725 157.398 93.7725L184.26 95.7261C184.393 95.7261 184.482 95.8149 184.527 95.9037C184.571 95.9925 184.527 96.1257 184.482 96.2145L178 102.608C177.955 102.652 177.867 102.697 177.778 102.697ZM154.246 97.9905L177.689 102.075L183.594 96.2589L157.531 94.3497L154.246 97.9905Z" fill="#231F20"/>
<path d="M184.261 95.9922L188.434 136.751L181.153 140.303L177.778 102.386L184.261 95.9922Z" fill="white"/>
<path d="M181.152 140.57C181.107 140.57 181.063 140.57 181.018 140.526C180.93 140.482 180.885 140.393 180.885 140.304L177.511 102.386C177.511 102.298 177.511 102.209 177.6 102.164L184.082 95.7708C184.171 95.682 184.304 95.682 184.393 95.7264C184.482 95.7708 184.57 95.8596 184.57 95.9928L188.7 136.752C188.7 136.885 188.655 136.974 188.522 137.063L181.24 140.615C181.24 140.57 181.196 140.615 181.152 140.57ZM178.088 102.475L181.418 139.86L188.122 136.619L184.038 96.6588L178.088 102.475Z" fill="#231F20"/>
<path d="M170.762 105.273C170.584 105.273 170.451 105.095 170.451 104.962C171.028 99.6338 171.605 85.6034 167.343 85.0262C166.677 84.9374 166.011 85.1594 165.478 85.559C161.482 88.6226 159.795 102.298 159.795 102.431C159.795 102.609 159.617 102.697 159.484 102.697C159.307 102.697 159.218 102.52 159.218 102.387C159.262 101.809 160.905 88.3562 165.123 85.115C165.745 84.5822 166.588 84.3158 167.432 84.449C173.115 85.2482 171.117 104.251 171.028 105.051C171.028 105.139 170.939 105.273 170.762 105.273Z" fill="#231F20"/>
<path d="M157.753 84.8038C157.575 84.8038 157.486 84.6706 157.442 84.5374C157.397 84.0046 156.909 71.0398 162.592 69.8854C164.413 69.4858 166.322 69.8854 167.831 70.951C172.271 74.1034 173.559 82.0954 173.603 82.4506C173.603 82.6282 173.47 82.7614 173.337 82.7614C173.204 82.7614 173.071 82.6726 173.026 82.5394C173.026 82.4506 171.739 74.4142 167.521 71.4394C166.144 70.4626 164.413 70.1074 162.725 70.4626C157.531 71.4838 158.063 84.3598 158.063 84.493C158.063 84.6706 157.93 84.8038 157.753 84.8038C157.797 84.8038 157.797 84.8038 157.753 84.8038Z" fill="#231F20"/>
<path d="M192.608 95.9928C192.564 95.9928 192.564 95.9928 192.519 95.9928C192.342 95.9484 192.253 95.8152 192.297 95.6376C192.297 95.5932 193.851 89.466 193.851 87.5124C193.851 86.2248 192.741 83.2944 190.788 82.2732C189.678 81.696 188.434 81.8292 187.147 82.7172C182.84 85.7364 182.263 92.6628 182.263 92.7072C182.263 92.8848 182.13 93.018 181.996 93.018C181.863 93.018 181.686 92.8848 181.686 92.7516V92.7072C181.686 92.3964 182.263 85.4256 186.836 82.2732C188.701 80.9856 190.166 81.2964 191.098 81.7848C193.318 82.9392 194.473 86.1804 194.473 87.5568C194.473 89.5548 192.963 95.5488 192.874 95.8152C192.874 95.904 192.741 95.9928 192.608 95.9928Z" fill="#231F20"/>
<path d="M192.253 130.536L137.463 124.453C137.286 124.453 137.152 124.276 137.152 124.098C137.152 123.92 137.33 123.787 137.508 123.787C137.508 123.787 137.508 123.787 137.552 123.787L192.164 129.87L202.465 122.1C202.598 122.011 202.82 122.011 202.909 122.144C202.998 122.278 202.998 122.5 202.864 122.588L192.475 130.403C192.386 130.492 192.297 130.536 192.253 130.536Z" fill="#D1D3D4"/>
<path d="M153.757 141.635C153.58 141.635 153.446 141.502 153.446 141.369L149.406 110.378C149.362 110.2 149.495 110.022 149.672 110.022C149.85 110.022 150.028 110.111 150.028 110.289L154.068 141.28C154.112 141.458 153.979 141.591 153.802 141.635H153.757Z" fill="#D1D3D4"/>
<path d="M166.411 142.479C166.234 142.479 166.101 142.346 166.101 142.168V112.021C166.101 111.843 166.234 111.71 166.411 111.71C166.589 111.71 166.722 111.843 166.722 112.021V142.168C166.722 142.346 166.589 142.479 166.411 142.479Z" fill="#D1D3D4"/>
<path d="M178.088 143.19L177.866 142.968L177.556 142.879C177.822 141.769 180.53 114.374 180.442 113.575C180.442 113.397 180.53 113.22 180.708 113.22C180.886 113.22 181.063 113.309 181.063 113.486C181.108 113.708 178.444 142.79 178.088 143.19Z" fill="#D1D3D4"/>
<path d="M189.588 144.078L139.904 140.703C139.771 140.703 139.638 140.57 139.593 140.437L135.553 109.002C135.553 108.913 135.553 108.824 135.642 108.735C135.73 108.646 135.819 108.646 135.908 108.646L195.226 114.729C195.404 114.729 195.537 114.907 195.537 115.084C195.537 115.084 195.537 115.084 195.537 115.129L189.898 143.9C189.898 143.944 189.765 144.078 189.588 144.078ZM140.215 140.082L189.321 143.412L194.827 115.262L136.263 109.268L140.215 140.082Z" fill="#D1D3D4"/>
<path d="M189.588 144.078C189.499 144.078 189.455 144.078 189.411 144.034C189.322 143.945 189.233 143.812 189.277 143.723L194.872 114.952C194.872 114.907 194.916 114.819 194.961 114.774L206.016 104.429C206.149 104.296 206.371 104.296 206.46 104.429C206.549 104.518 206.549 104.607 206.549 104.695L199.8 137.995C199.8 138.084 199.711 138.173 199.667 138.217L189.766 144.078C189.721 144.078 189.633 144.078 189.588 144.078ZM195.493 115.174L190.032 143.146L199.179 137.729L205.705 105.628L195.493 115.174Z" fill="#D1D3D4"/>
<path d="M202.642 122.721H195.582C195.405 122.721 195.271 122.588 195.271 122.41C195.271 122.233 195.405 122.1 195.582 122.1H202.642C202.819 122.1 202.953 122.233 202.953 122.41C202.953 122.544 202.819 122.721 202.642 122.721Z" fill="#D1D3D4"/>
<path d="M137.507 124.453C137.329 124.453 137.196 124.32 137.196 124.142C137.196 124.009 137.285 123.876 137.418 123.832L151.404 118.504C151.582 118.459 151.759 118.548 151.804 118.726C151.848 118.859 151.759 119.036 151.626 119.125L137.64 124.453C137.596 124.409 137.551 124.453 137.507 124.453Z" fill="#D1D3D4"/>
<path d="M141.635 153.047C141.458 153.047 141.324 152.913 141.324 152.78C141.28 152.469 141.28 152.292 160.061 144.655C160.239 144.566 160.416 144.655 160.505 144.833C160.55 145.01 160.505 145.188 160.328 145.232C153.312 148.074 142.656 152.469 141.902 152.958C141.857 153.002 141.768 153.047 141.724 153.047H141.635Z" fill="#D1D3D4"/>
<path d="M156.509 179.731C156.509 179.598 156.509 179.509 156.509 179.376C156.331 178.177 154.866 177.777 154.555 179.154C154.422 179.598 154.511 180.042 154.689 180.441C155.355 181.596 156.42 180.708 156.509 179.731Z" fill="#D1D3D4"/>
<path d="M167.787 168.098C167.787 168.009 167.787 167.921 167.743 167.832C167.743 167.787 167.743 167.743 167.699 167.699C167.654 167.61 167.61 167.477 167.565 167.388C167.521 167.299 167.432 167.21 167.388 167.121H167.343C167.343 167.121 167.299 167.077 167.299 167.033C167.255 166.988 167.166 166.944 167.077 166.855L167.033 166.811L166.811 166.722C166.722 166.677 166.589 166.677 166.5 166.722C166.411 166.722 166.367 166.722 166.278 166.766C166.189 166.811 166.1 166.855 166.011 166.944C165.967 166.988 165.967 167.033 165.923 167.077L165.834 167.166C165.789 167.255 165.745 167.343 165.701 167.432C165.656 167.565 165.656 167.654 165.656 167.787C165.656 167.832 165.656 167.832 165.656 167.876V167.921C165.656 168.009 165.656 168.098 165.701 168.187C165.745 168.32 165.789 168.409 165.834 168.542C165.834 168.587 165.878 168.587 165.878 168.631C165.923 168.72 166.011 168.809 166.056 168.853C166.145 168.897 166.189 168.986 166.278 169.031C166.367 169.075 166.455 169.119 166.544 169.164C166.722 169.208 166.899 169.208 167.077 169.164C167.166 169.119 167.21 169.119 167.299 169.075L167.388 169.031C167.432 169.031 167.432 168.986 167.477 168.942L167.565 168.853L167.654 168.764C167.699 168.72 167.743 168.631 167.743 168.542C167.743 168.453 167.787 168.365 167.787 168.276C167.787 168.231 167.787 168.187 167.787 168.143V168.098Z" fill="#D1D3D4"/>
<path d="M172.404 181.64C172.404 181.552 172.404 181.463 172.36 181.374C172.36 181.285 172.316 181.196 172.271 181.108V181.063L172.138 180.886C172.005 180.752 171.872 180.664 171.694 180.619C171.561 180.575 171.383 180.575 171.25 180.619C171.117 180.664 170.984 180.752 170.895 180.841C170.85 180.93 170.762 181.019 170.717 181.063C170.673 181.152 170.628 181.241 170.628 181.33V181.374C170.628 181.463 170.584 181.552 170.584 181.64C170.584 181.685 170.584 181.685 170.584 181.729C170.584 181.774 170.584 181.818 170.584 181.862C170.584 181.907 170.584 181.951 170.584 181.996C170.584 182.04 170.628 182.129 170.628 182.173C170.673 182.218 170.673 182.306 170.717 182.351C170.762 182.44 170.85 182.528 170.895 182.573C170.984 182.662 171.117 182.75 171.25 182.795C171.339 182.839 171.472 182.839 171.605 182.795C171.694 182.795 171.827 182.75 171.916 182.706C172.049 182.617 172.138 182.528 172.227 182.395L172.271 182.351C172.316 182.262 172.316 182.218 172.36 182.129C172.36 182.129 172.36 182.129 172.36 182.084C172.36 181.996 172.404 181.907 172.404 181.818V181.774C172.36 181.818 172.404 181.729 172.404 181.64Z" fill="#D1D3D4"/>
<path d="M184.926 172.005C184.926 171.828 184.881 171.65 184.793 171.517L184.748 171.472C184.704 171.428 184.659 171.339 184.615 171.295C184.571 171.25 184.571 171.25 184.526 171.206L184.437 171.117L184.215 171.028H184.171C184.082 170.984 183.949 170.984 183.816 171.028C183.727 171.028 183.594 171.073 183.505 171.117L183.327 171.25C183.239 171.339 183.15 171.472 183.105 171.606C183.061 171.65 183.061 171.739 183.061 171.783C183.017 171.916 183.017 172.05 183.017 172.183C183.017 172.227 183.017 172.227 183.017 172.272V172.36C183.017 172.449 183.017 172.582 183.061 172.671C183.061 172.716 183.061 172.716 183.061 172.76C183.15 173.026 183.372 173.248 183.638 173.337C183.905 173.426 184.215 173.337 184.437 173.115L184.482 173.071C184.526 173.026 184.571 172.938 184.615 172.893C184.659 172.804 184.704 172.716 184.748 172.627C184.748 172.582 184.748 172.582 184.793 172.538C184.793 172.494 184.793 172.449 184.793 172.36C184.97 172.272 184.97 172.138 184.926 172.005Z" fill="#D1D3D4"/>
<path d="M72.0606 88.7561C71.9718 88.7561 71.9274 88.7117 71.883 88.7117C71.7498 88.6229 71.7054 88.4009 71.7942 88.2677C71.883 88.1789 79.653 77.1233 88.9326 70.6409C89.0658 70.5521 89.2878 70.5965 89.3766 70.7297C89.4655 70.8629 89.4655 71.0849 89.2879 71.1737C80.0971 77.6117 72.3714 88.5341 72.327 88.6229C72.2382 88.7117 72.1494 88.7561 72.0606 88.7561Z" fill="#231F20"/>
<path d="M39.2047 68.9978C39.1603 68.9978 39.1159 68.9978 39.0715 68.9534C38.9383 68.8646 38.8939 68.687 38.9827 68.5538C40.5367 65.9786 48.4843 53.2802 50.4379 53.0138C50.6155 52.9694 50.7487 53.0582 50.8819 53.147C52.1695 54.3902 48.0403 63.5366 46.7527 66.2894C46.6639 66.4226 46.4863 66.5114 46.3531 66.4226C46.2199 66.3338 46.1311 66.1562 46.2199 66.023C48.7951 60.5618 51.1927 54.2126 50.4823 53.5466C49.5055 53.5466 44.1331 61.3166 39.4711 68.8202C39.3823 68.909 39.2935 68.9534 39.2047 68.9978Z" fill="#231F20"/>
<path d="M37.4733 67.4884L15.7617 95.1497L19.1361 97.8137L20.4681 103.586L47.0637 93.9509L52.2585 66.4229L37.4733 67.4884Z" fill="white"/>
<path d="M20.4678 103.941C20.4234 103.941 20.379 103.941 20.3346 103.897C20.2458 103.852 20.2014 103.764 20.157 103.675L18.825 97.9915L15.5838 95.4163C15.4506 95.3275 15.4062 95.1055 15.5394 94.9723L37.2066 67.3111C37.251 67.2223 37.3398 67.1779 37.4286 67.1779L52.2138 66.1123C52.3914 66.1123 52.5246 66.2455 52.569 66.4231C52.569 66.4675 52.569 66.4675 52.569 66.5119L47.3742 93.9955C47.3298 94.1287 47.2854 94.2175 47.1522 94.2619L20.601 103.897C20.5566 103.897 20.5122 103.897 20.4678 103.941ZM16.2498 95.1055L19.3134 97.5475C19.3578 97.5919 19.4022 97.6363 19.4466 97.7251L20.7342 103.142L46.797 93.6403L51.8586 66.7339L37.6062 67.7551L16.2498 95.1055Z" fill="#D1D3D4"/>
<path d="M40.092 72.1944L36.54 67.4436L48.5724 62.6484L51.2808 65.6676L40.092 72.1944Z" fill="#D1D3D4"/>
<path d="M40.0945 72.5053C40.0057 72.5053 39.9169 72.4609 39.8281 72.3721L36.2317 67.6657C36.1873 67.5769 36.1429 67.4881 36.1873 67.3993C36.2317 67.3105 36.2761 67.2217 36.3649 67.1773L48.3973 62.3377C48.5305 62.2933 48.6637 62.3377 48.7525 62.4265L51.4609 65.4457C51.5941 65.5789 51.5497 65.7565 51.4609 65.8897L51.4165 65.9341L40.2721 72.4609C40.2277 72.5053 40.1833 72.5053 40.0945 72.5053ZM37.0309 67.6213L40.1833 71.7949L50.7505 65.6233L48.4417 63.0481L37.0309 67.6213Z" fill="#D1D3D4"/>
<path d="M46.1751 71.1738C45.9531 71.1294 45.8643 70.9962 45.8643 70.8186C46.4859 66.6894 48.7503 53.1474 50.8815 53.0586C51.1035 53.0586 51.3255 53.1474 51.4587 53.325C53.0571 54.9678 52.3911 66.5118 52.3023 67.8438C52.3023 68.0214 52.1691 68.1102 51.9915 68.1102C51.8139 68.1102 51.7251 67.977 51.7251 67.7994C52.0359 62.7378 52.1247 54.8346 51.0591 53.7246C50.9703 53.6358 50.9259 53.6358 50.9259 53.6358C49.8159 53.6802 47.7291 62.649 46.4859 70.9074C46.4415 71.085 46.3083 71.1738 46.1751 71.1738Z" fill="#231F20"/>
<path d="M42.846 71.3071L35.4756 101.943L42.4908 106.694L54.8784 97.3255L56.4768 68.0215L42.846 71.3071Z" fill="white"/>
<path d="M42.4911 107.004C42.4467 107.004 42.3579 107.004 42.3135 106.96L35.2983 102.209C35.2095 102.12 35.1207 101.987 35.1651 101.854L42.5355 71.2181C42.5799 71.0849 42.6687 70.9961 42.7575 70.9961L56.3883 67.7549C56.4771 67.7549 56.6103 67.7549 56.6547 67.7993C56.7435 67.8881 56.7879 67.9769 56.7879 68.0657L55.1451 97.3697C55.1451 97.4585 55.1007 97.5473 55.0119 97.5917L42.6687 106.96C42.6243 107.004 42.5799 107.004 42.4911 107.004ZM35.8311 101.765L42.4911 106.294L54.5679 97.1477L56.1663 68.4209L43.1571 71.5289L35.8311 101.765Z" fill="#D1D3D4"/>
<path d="M42.0908 70.9956L46.9304 73.4376L56.4764 68.0208L53.5016 65.1348L42.0908 70.9956Z" fill="#D1D3D4"/>
<path d="M46.9307 73.749C46.8863 73.749 46.8419 73.749 46.7975 73.7046L41.9579 71.2626C41.8691 71.2182 41.7803 71.085 41.7803 70.9962C41.7803 70.863 41.8691 70.7742 41.9579 70.7298L53.3687 64.869C53.5019 64.8246 53.6351 64.8246 53.7239 64.9134L56.6987 67.8438C56.8319 67.977 56.8319 68.199 56.6987 68.2878L56.6543 68.3322L47.1083 73.7046C47.0639 73.749 46.9751 73.749 46.9307 73.749ZM42.8015 70.9962L46.9307 73.083L55.9439 67.977L53.4131 65.535L42.8015 70.9962Z" fill="#D1D3D4"/>
<path d="M22.1554 100.477C22.111 100.477 22.0222 100.477 21.9778 100.433C21.8446 100.344 21.8002 100.122 21.889 99.9887L39.2938 73.8371C39.3826 73.7039 39.6046 73.6595 39.7378 73.7483C39.871 73.8371 39.9154 74.0591 39.8266 74.1923L22.4218 100.344C22.3774 100.433 22.2886 100.477 22.1554 100.477Z" fill="#D1D3D4"/>
<path d="M43.6895 104.873H43.6451C43.4675 104.829 43.3343 104.696 43.3787 104.518L47.3303 76.3684C47.3303 76.1908 47.5079 76.0576 47.6855 76.0576C47.8631 76.0576 47.9963 76.2352 47.9963 76.4128V76.4572L44.0447 104.607C43.9559 104.784 43.8227 104.918 43.6895 104.873Z" fill="#D1D3D4"/>
<path d="M49.9934 74.8584C49.8158 74.8584 49.6826 74.7252 49.6826 74.5476C49.6826 74.5032 49.727 69.3528 49.9934 64.2468C50.5262 53.6796 51.4142 53.6352 51.8582 53.5908H51.9026C53.5898 53.5908 54.8774 65.712 55.499 72.9492C55.499 73.1268 55.4102 73.26 55.2326 73.26C55.055 73.26 54.9218 73.1712 54.9218 72.9936C54.167 64.0692 52.835 54.5676 51.9026 54.168C51.059 54.6564 50.393 64.9128 50.2598 74.5032C50.2598 74.7252 50.1266 74.8584 49.9934 74.8584Z" fill="#231F20"/>
<path d="M114.242 67.1328C114.242 67.1328 121.346 81.7404 128.184 84.8484C133.378 87.246 138.795 89.1552 144.39 90.4428C148.386 91.3752 150.472 97.0584 150.472 98.1684C150.472 99.2784 148.297 100.255 146.876 99.3228C145.455 98.3904 142.525 95.904 142.525 95.904C142.525 95.904 142.969 99.8112 141.592 99.012C140.216 98.2128 139.594 94.35 139.594 94.35C139.594 94.35 132.846 94.9716 128.45 92.9736C124.054 90.9756 115.174 86.58 110.823 81.2964" fill="white"/>
<path d="M148.162 99.9896C147.63 99.9896 147.097 99.8564 146.653 99.5456C145.587 98.8352 143.767 97.3256 142.834 96.5708C142.879 97.5032 142.879 98.8796 142.257 99.2792C141.991 99.4568 141.636 99.4568 141.369 99.2348C140.037 98.5244 139.416 95.594 139.238 94.6172C137.906 94.706 132.178 95.0168 128.182 93.152C119.569 89.2004 113.619 85.2488 110.422 81.386C110.334 81.2528 110.378 81.0752 110.556 80.9864C110.644 80.942 110.778 80.942 110.866 81.0308C113.974 84.8048 119.88 88.712 128.404 92.6192C132.667 94.5728 139.327 93.9956 139.416 93.9956C139.549 93.9956 139.726 94.0844 139.726 94.262C139.904 95.3276 140.57 98.1248 141.591 98.702C141.724 98.7464 141.813 98.7908 141.858 98.7464C142.168 98.5244 142.257 97.1036 142.08 95.8604C142.08 95.7272 142.124 95.6384 142.257 95.5496C142.346 95.5052 142.479 95.5052 142.612 95.594C142.657 95.6384 145.587 98.0804 146.964 99.0128C147.718 99.4568 148.606 99.4568 149.361 99.0572C149.761 98.924 150.027 98.5688 150.116 98.1248C150.116 97.148 148.074 91.5536 144.255 90.6656C138.661 89.3336 133.244 87.4688 128.005 85.0268C121.123 81.9188 114.241 67.7996 113.93 67.178C113.886 67.0448 113.974 66.8672 114.108 66.7784C114.241 66.734 114.374 66.7784 114.463 66.9116C114.552 67.0448 121.567 81.4304 128.227 84.494C133.422 86.8916 138.838 88.8008 144.388 90.0884C148.606 91.0652 150.693 96.8816 150.693 98.1248C150.649 98.7464 150.249 99.3236 149.628 99.5456C149.228 99.8564 148.695 99.9896 148.162 99.9896Z" fill="#231F20"/>
<path d="M62.0703 133.644L54.3447 143.323L36.9399 128.36C36.9399 128.36 27.3051 137.507 28.6815 138.084C30.0579 138.661 35.2971 138.084 35.2971 138.084C35.2971 138.084 55.9875 160.106 59.3175 158.064C62.6475 156.022 77.8323 136.13 77.8323 136.13" fill="white"/>
<path d="M58.7859 158.508C57.5871 158.508 54.5679 157.22 45.8655 149.051C40.7595 144.256 35.9199 139.194 35.2095 138.395C34.3215 138.484 29.9259 138.883 28.5939 138.35C28.4163 138.306 28.3275 138.128 28.2831 137.995C28.0167 136.619 34.7211 130.136 36.7635 128.183C36.8967 128.094 37.0299 128.094 37.1631 128.183L54.3015 142.924L61.8495 133.466C61.9827 133.378 62.1603 133.378 62.2491 133.511C62.3379 133.6 62.3379 133.733 62.2935 133.822L54.5679 143.501C54.5235 143.545 54.4347 143.59 54.3459 143.59C54.2571 143.59 54.1683 143.59 54.1239 143.501L36.9411 128.716C32.9007 132.534 28.8603 136.885 28.8159 137.729C29.9703 138.128 33.8331 137.818 35.2539 137.684C35.3427 137.684 35.4315 137.729 35.5203 137.773C43.4679 146.209 56.9211 159.085 59.1411 157.709C62.3823 155.711 77.3895 136.042 77.5671 135.864C77.7003 135.731 77.8779 135.731 77.9667 135.864C78.0555 135.953 78.0999 136.13 78.0111 136.219C77.3895 137.018 62.7375 156.155 59.4519 158.242C59.2743 158.419 59.0079 158.508 58.7859 158.508Z" fill="#231F20"/>
<path d="M109.668 140.038L109.979 176.624C109.979 176.624 121.922 179.376 120.546 179.954C119.169 180.531 100.344 179.954 100.344 179.954L95.9482 134.222" fill="white"/>
<path d="M114.508 180.487C108.958 180.487 101.543 180.265 100.3 180.22C100.166 180.22 100.033 180.087 100.033 179.954L95.6377 134.222C95.6377 134.044 95.7265 133.911 95.9041 133.911C96.0817 133.911 96.2149 134 96.2149 134.178L100.566 179.643C107.581 179.865 117.838 179.998 120.058 179.732C118.77 179.11 114.197 177.912 109.89 176.89C109.757 176.846 109.668 176.757 109.668 176.624L109.357 140.038C109.357 139.861 109.49 139.728 109.668 139.728C109.846 139.728 109.979 139.861 109.979 140.038L110.29 176.402C120.901 178.844 120.946 179.554 120.99 179.821C120.99 179.998 120.857 180.176 120.679 180.22C120.146 180.442 117.616 180.487 114.508 180.487Z" fill="#231F20"/>
<path d="M91.775 64.5579C85.115 70.0191 84.0938 82.6287 82.8506 92.0859L114.019 98.1687C114.019 98.1687 118.193 71.6175 114.286 67.1331C110.379 62.6487 98.3906 59.0967 91.775 64.5579Z" fill="#FFD600"/>
<path d="M94.0835 59.5847C94.3055 59.4959 94.5275 59.4515 94.7051 59.3627C92.4851 59.4515 90.3983 58.1639 88.9331 56.4767C87.4679 54.7895 86.5799 52.7027 85.7363 50.6603C87.6899 51.7259 89.9987 51.9035 92.0855 51.1487C89.1995 50.3939 86.9795 48.0851 86.3579 45.1547C90.3983 45.5987 94.1279 43.0235 97.4135 40.6259C100.699 38.2283 104.518 35.8307 108.869 37.5179C113.575 39.2939 114.996 44.8883 115.218 49.4171C115.484 55.2335 113.042 60.6947 107.182 62.6927C103.274 64.0691 98.8787 63.5807 94.9715 62.2043C93.6839 61.8047 92.4407 61.1387 91.4195 60.2951C92.3075 60.0731 93.1955 59.8955 94.0835 59.5847Z" fill="white"/>
<path d="M102.121 63.7586C99.6344 63.7142 97.1924 63.2702 94.8392 62.4266C93.5072 62.027 92.2639 61.361 91.1983 60.4286C91.1095 60.3398 91.0652 60.251 91.1096 60.1178C91.154 60.029 91.2428 59.9402 91.376 59.8958C91.9976 59.807 92.6636 59.6738 93.2852 59.4962C91.5092 59.0522 89.8664 58.031 88.712 56.6102C87.2468 54.8786 86.3144 52.7474 85.4708 50.705C85.4264 50.5718 85.4708 50.3942 85.604 50.3054C85.6928 50.261 85.7815 50.261 85.8703 50.3054C87.4687 51.149 89.2892 51.4154 91.0652 51.0602C88.49 50.039 86.6252 47.819 86.048 45.1106C86.048 45.0218 86.048 44.933 86.1368 44.8442C86.1812 44.7554 86.3144 44.7554 86.4032 44.7554C90.266 45.155 93.7292 42.8462 97.2368 40.271C100.522 37.829 104.43 35.387 108.958 37.1186C114.286 39.161 115.308 45.599 115.485 49.2842C115.796 55.8998 112.688 60.9614 107.227 62.8706C105.584 63.4478 103.852 63.7586 102.121 63.7586ZM92.0863 60.3842C92.9743 61.0058 93.9956 61.4942 95.0168 61.8494C98.0804 62.915 102.609 63.8918 107.005 62.3378C112.2 60.5618 115.13 55.6778 114.864 49.3286C114.686 45.821 113.709 39.605 108.692 37.6958C104.43 36.053 100.7 38.4506 97.5032 40.8038C94.1288 43.2902 90.5324 45.6878 86.6696 45.4214C87.38 48.041 89.4667 50.1278 92.0863 50.7938C92.2639 50.8382 92.3527 50.9714 92.3083 51.149C92.2639 51.2378 92.2196 51.3266 92.1308 51.371C90.2216 52.037 88.1348 51.9926 86.27 51.1934C87.0248 52.9694 87.8684 54.7454 89.1116 56.2106C90.6656 58.031 92.708 59.0522 94.6616 59.0078C94.7948 59.0078 94.9279 59.0966 94.9724 59.2298C95.0167 59.363 94.928 59.4962 94.7948 59.585C94.5728 59.6738 94.3508 59.7626 94.1288 59.807C93.4628 60.0734 92.7967 60.251 92.0863 60.3842Z" fill="#231F20"/>
<path d="M108.291 58.5638L108.335 64.469C108.335 64.469 107.713 67.7546 104.161 66.7778C102.03 66.1562 100.254 64.6022 99.3662 62.5598L99.7658 52.3478C100.254 50.5718 100.432 48.707 100.343 46.8422C104.694 46.7534 108.157 43.4678 108.157 43.4678C108.157 43.4678 109.667 45.7322 110.333 46.4426C110.866 46.9754 111.31 47.5526 111.665 48.2186C112.287 49.373 112.242 50.7938 112.198 52.037C112.198 53.5466 112.02 55.0118 111.754 56.477C111.221 59.2742 108.291 58.5638 108.291 58.5638Z" fill="white"/>
<path d="M105.406 67.2659C104.962 67.2659 104.473 67.1771 104.029 67.0439C101.765 66.4223 99.9446 64.7795 99.0566 62.6483C99.0566 62.6039 99.0566 62.5595 99.0566 62.5151C99.0566 62.5151 99.4562 52.3475 99.4562 52.3031C99.4562 52.1255 99.5006 51.9479 99.545 51.7703C99.9446 50.1719 100.122 48.4847 100.033 46.7975C100.033 46.7087 100.078 46.6643 100.122 46.5755C100.167 46.5311 100.255 46.4867 100.344 46.4867C104.562 46.3979 107.937 43.2455 107.937 43.2011C107.981 43.1567 108.07 43.1123 108.159 43.1123C108.247 43.1123 108.336 43.1567 108.381 43.2455C108.381 43.2455 109.89 45.5099 110.512 46.1759C111.045 46.7087 111.533 47.3303 111.888 47.9963C112.554 49.2395 112.51 50.7491 112.465 51.9479C112.465 53.4575 112.288 54.9671 112.021 56.4767C111.888 57.2759 111.444 57.9863 110.778 58.4303C110.112 58.8299 109.313 58.9631 108.558 58.8743L108.603 64.4243C108.425 65.3567 107.892 66.2003 107.093 66.7331C106.605 67.1327 106.027 67.3103 105.406 67.2659ZM99.6338 62.5151C100.477 64.4687 102.165 65.9339 104.207 66.5111C105.273 66.7775 106.116 66.7331 106.782 66.3335C107.404 65.8895 107.848 65.2235 108.025 64.4687L107.981 58.6079C107.981 58.4303 108.114 58.2971 108.292 58.2971H108.336C109.047 58.4303 109.846 58.3415 110.467 57.9863C111 57.6311 111.355 57.0539 111.444 56.4323C111.711 54.9671 111.888 53.5019 111.888 52.0367C111.933 50.8379 111.933 49.4615 111.355 48.3515C111 47.7299 110.556 47.1527 110.068 46.6199C109.357 45.7319 108.691 44.8439 108.07 43.9115C107.182 44.6663 104.296 46.9307 100.611 47.1083C100.655 48.7511 100.477 50.3495 100.078 51.9479C100.033 52.0811 99.989 52.2143 99.989 52.3475C100.078 52.3475 100.078 52.5251 99.6338 62.5151Z" fill="#231F20"/>
<path d="M108.247 61.4945C108.247 61.4945 105.849 61.5833 104.295 59.9849C102.741 58.3865 103.008 56.7881 103.008 56.7881C103.008 56.7881 105.583 58.5197 108.291 58.5641L108.247 61.4945Z" fill="#231F20"/>
<path d="M108.158 61.7606C107.625 61.7606 105.538 61.6718 104.117 60.1622C102.519 58.475 102.741 56.7878 102.741 56.699C102.741 56.5214 102.919 56.4326 103.052 56.4326C103.096 56.4326 103.141 56.4326 103.185 56.477C103.229 56.477 105.76 58.1642 108.335 58.253C108.513 58.253 108.602 58.3862 108.602 58.5194L108.557 61.4054C108.557 61.5386 108.424 61.6718 108.291 61.6718L108.158 61.7606ZM103.274 57.2762C103.407 58.2086 103.807 59.0966 104.517 59.7626C105.671 60.917 107.314 61.139 107.98 61.139L108.025 58.7858C106.337 58.6526 104.739 58.1198 103.274 57.2762Z" fill="#231F20"/>
<path d="M107.092 53.9903C106.782 53.9903 106.515 53.9459 106.204 53.8571C106.071 53.8127 105.938 53.6795 105.982 53.5019C106.027 53.3687 106.16 53.2355 106.338 53.2799C106.693 53.3687 107.536 53.4575 107.758 53.1911C107.847 52.9247 107.181 51.5483 106.293 50.2163C106.204 50.0831 106.249 49.9055 106.382 49.8167C106.515 49.7279 106.693 49.7723 106.782 49.9055C107.714 51.2819 108.691 53.0579 108.202 53.5907C107.936 53.9015 107.536 54.0347 107.092 53.9903Z" fill="#231F20"/>
<path d="M101.721 49.2844C101.499 48.5296 101.144 47.8636 100.611 47.2864C100.078 46.7092 99.2345 46.4872 98.5241 46.798C97.7693 47.1532 97.5029 48.13 97.5029 48.9736C97.5473 49.9504 97.6805 50.8828 98.0357 51.8152C98.1689 52.348 98.4353 52.8808 98.8349 53.2804C99.2345 53.68 99.9005 53.7688 100.389 53.5024" fill="white"/>
<path d="M99.8549 53.9466C99.4109 53.9466 99.0114 53.769 98.6562 53.4582C98.2122 53.0142 97.9014 52.437 97.7682 51.8598C97.4574 50.9274 97.2354 49.9506 97.2354 48.9294C97.2354 48.3522 97.3242 47.0202 98.4342 46.4874C99.3221 46.0434 100.299 46.4874 100.876 47.0646C101.409 47.6862 101.809 48.3966 102.031 49.1514C102.075 49.2846 102.031 49.4622 101.853 49.551C101.72 49.5954 101.542 49.551 101.453 49.3734C101.231 48.663 100.876 48.0414 100.432 47.5086C99.9882 47.0202 99.2778 46.8426 98.6562 47.0646C97.857 47.4642 97.8126 48.6186 97.8126 48.9738C97.857 49.9062 97.9901 50.8386 98.3009 51.7266C98.4341 52.215 98.6562 52.7034 99.0114 53.0586C99.3222 53.3694 99.8105 53.4582 100.21 53.2362C100.343 53.1474 100.521 53.1918 100.61 53.325C100.699 53.4582 100.654 53.6358 100.521 53.7246C100.343 53.9022 100.121 53.9466 99.8549 53.9466Z" fill="#231F20"/>
<path d="M99.2343 68.6426C99.6783 65.8454 98.8791 63.2258 95.4603 63.0038C90.3099 62.6486 85.0707 66.911 80.5419 68.909C78.9435 69.6194 72.1059 73.6154 70.3299 72.5498C69.3975 71.9726 68.7315 70.1966 68.2431 69.2642C67.1331 67.1774 66.0675 65.0906 65.0463 62.9594C62.9151 58.5638 61.2279 54.3014 57.9867 50.5718C57.3207 49.817 56.6103 49.0622 55.8999 48.3518C53.9019 46.487 51.5043 44.933 48.8403 44.3114C48.6627 44.267 48.5295 44.267 48.3519 44.3558C48.0411 44.5778 48.3519 45.0662 48.6627 45.2882L52.3479 47.9522C51.3267 47.153 50.2167 46.5314 48.9735 46.043C48.4407 45.821 46.7091 44.8886 46.2207 45.5102C45.5103 46.3538 47.3751 46.8866 47.7747 47.153C48.7959 47.819 49.7727 48.5738 50.8383 49.151C49.5063 48.3518 48.0855 47.7302 46.5759 47.3306C45.8655 47.1086 44.7999 47.153 44.7111 47.9078C44.6667 48.3962 45.1107 48.7514 45.5103 49.0178L48.6627 51.1934C47.7747 50.6162 46.4427 52.0814 46.2207 52.7918C45.9099 53.9906 46.2207 55.2338 47.0643 56.1662C47.2419 56.3882 47.5083 56.5658 47.7747 56.6546C48.0411 56.7434 48.3519 56.699 48.5739 56.5214C49.4175 55.7222 48.2631 54.1238 49.7283 53.591C50.3499 53.4134 51.0159 53.7242 51.2823 54.3014C51.5043 54.8786 51.4155 55.589 51.0159 56.0774C50.7051 56.477 50.2167 56.8322 50.3055 57.365C50.3499 57.6758 50.5719 57.8978 50.8383 58.031C51.6375 58.4306 52.6143 58.1198 53.0139 57.365C53.0139 57.3206 53.0583 57.3206 53.0583 57.2762C53.2359 56.8766 53.3691 56.2994 53.8131 56.3882C53.9463 56.4326 54.0795 56.5214 54.1683 56.6546C54.7455 57.1874 57.4983 67.3106 58.2531 70.6406C59.2743 75.2582 61.0947 85.115 67.0887 85.8254C67.2663 85.8698 67.4439 85.8698 67.6659 85.8698C73.2603 85.9142 78.7659 83.8718 83.8275 81.6074C88.0011 79.7426 92.8407 78.0998 96.3039 74.9918C97.5027 73.6154 98.8347 71.0846 99.2343 68.6426Z" fill="white"/>
<path d="M67.6212 86.0474H67.488C67.266 86.0474 67.0884 86.0474 66.8664 86.003C60.9612 85.2482 59.052 76.1462 57.942 71.2622L57.8088 70.5962C57.0096 67.0442 54.3456 57.365 53.8128 56.7434C53.7684 56.699 53.6796 56.6102 53.5908 56.6102C53.4576 56.6102 53.3244 56.921 53.2356 57.1874L53.1912 57.365C52.7472 58.3418 51.5928 58.7414 50.616 58.2974C50.616 58.2974 50.5716 58.2974 50.5716 58.253C50.2164 58.0754 49.95 57.7202 49.9056 57.3206C49.9056 56.8322 50.1276 56.3882 50.4828 56.0774C50.5716 55.9886 50.616 55.8998 50.7048 55.811C51.0156 55.4114 51.1488 54.8342 50.9712 54.3458C50.7936 53.9018 50.2608 53.6354 49.8168 53.7686C49.2396 53.9906 49.1952 54.3902 49.2396 55.0562C49.2396 55.589 49.2396 56.2106 48.7956 56.6102C48.4848 56.8766 48.0852 56.9654 47.73 56.8322C47.4192 56.7434 47.1528 56.5214 46.9308 56.2994C45.9984 55.3226 45.6876 53.9462 45.9984 52.6586C46.3092 51.8594 46.9308 51.1934 47.73 50.8382L45.4212 49.2842C44.9772 48.9734 44.4444 48.5294 44.5332 47.8634C44.5776 47.597 44.7108 47.3306 44.9772 47.153C45.51 46.8866 46.176 46.8422 46.7532 47.0198L47.3748 47.1974L47.3304 47.153C46.7532 46.8866 45.9984 46.5758 45.8652 45.9986C45.8208 45.7322 45.8652 45.4658 46.0872 45.2438C46.5756 44.6666 47.5968 44.9774 48.396 45.3326C48.174 45.155 47.9964 44.8442 47.9964 44.5334C47.9964 44.3558 48.0852 44.1782 48.2628 44.045C48.4848 43.9118 48.7512 43.9118 48.9732 43.9562C51.4596 44.5334 53.8572 45.9098 56.166 48.0854C56.9208 48.7958 57.6312 49.5062 58.2972 50.3054C61.0056 53.4134 62.604 56.8322 64.3356 60.473C64.6908 61.2278 65.046 61.9826 65.4012 62.7374C66.378 64.7798 67.4436 66.911 68.598 69.0422C68.7312 69.2642 68.82 69.5306 68.9532 69.797C69.3972 70.685 69.93 71.795 70.5516 72.1946C71.8392 72.9494 76.6344 70.463 78.9432 69.2642C79.6092 68.909 80.142 68.6426 80.4972 68.5094C81.8292 67.9322 83.1612 67.1774 84.6264 66.3782C88.1784 64.3802 91.8636 62.3378 95.5488 62.6042C96.9696 62.693 98.0796 63.2258 98.79 64.1138C99.6336 65.1794 99.9 66.7334 99.5892 68.5982C99.1896 70.9958 97.8576 73.6154 96.348 74.9918C93.5508 77.5226 89.8656 79.0766 86.2692 80.5862C85.4256 80.9414 84.582 81.2966 83.7828 81.6518C79.032 83.8718 73.4376 86.0474 67.6212 86.0474ZM53.5908 55.9886H53.6796C53.9016 56.033 54.0792 56.1662 54.2124 56.2994C54.8784 56.9654 57.7644 67.6214 58.3416 70.4186L58.4748 71.0846C59.496 75.8354 61.4052 84.671 66.9108 85.3814C67.1328 85.4258 67.3548 85.4258 67.5324 85.4258C73.2156 85.4258 78.7656 83.2946 83.4276 81.2078C84.2268 80.8526 85.0704 80.4974 85.914 80.1422C89.4216 78.6326 93.0624 77.123 95.8152 74.6366C97.1916 73.3934 98.4792 70.8626 98.8344 68.5982C99.012 67.3994 99.1008 65.7566 98.1684 64.6022C97.458 63.803 96.4368 63.3146 95.3712 63.3146C91.8192 63.0482 88.2228 65.0462 84.7596 66.9998C83.2944 67.799 81.918 68.5982 80.586 69.1754C80.2752 69.3086 79.7424 69.575 79.0764 69.9302C75.3468 71.8838 71.5284 73.6598 70.1076 72.8162C69.3084 72.3278 68.7312 71.129 68.2428 70.1522C68.1096 69.8858 67.9764 69.6194 67.8876 69.4418C66.7332 67.3106 65.6676 65.135 64.6908 63.137C64.3356 62.3822 63.9804 61.6274 63.6252 60.8726C61.938 57.2762 60.3396 53.9018 57.6756 50.8382C57.0096 50.0834 56.3436 49.3286 55.5888 48.6626C53.3688 46.5758 51.0156 45.2438 48.6624 44.6666C48.4848 44.6222 48.4404 44.6222 48.4404 44.6666C48.4848 44.8442 48.618 45.0218 48.7512 45.1106L51.5928 47.153C51.9036 47.3306 52.17 47.5526 52.4364 47.7746C52.5696 47.8634 52.5696 48.041 52.4808 48.1742C52.392 48.3074 52.2144 48.3518 52.0812 48.263L51.2376 47.6858C50.4828 47.1974 49.6392 46.7534 48.7956 46.3982C48.7068 46.3538 48.5736 46.3094 48.4404 46.265C47.952 46.043 46.62 45.4658 46.3536 45.821C46.2648 45.9542 46.2648 46.043 46.2648 46.043C46.3536 46.3094 47.0196 46.6202 47.3748 46.7978C47.5524 46.8866 47.6856 46.931 47.8632 47.0198C48.2628 47.2862 48.6624 47.5526 49.062 47.819C49.6392 48.2186 50.2608 48.6182 50.8824 49.0178H50.9268C51.06 49.1066 51.1044 49.2842 51.0156 49.4174C50.9268 49.5506 50.7492 49.595 50.616 49.5062H50.5716C49.284 48.7514 47.8632 48.1298 46.4424 47.7302C45.9984 47.597 45.5544 47.597 45.1548 47.7746C45.066 47.819 44.9772 47.9522 44.9772 48.041C44.9328 48.3518 45.3324 48.6626 45.6432 48.8846L48.7956 51.0602C48.9288 51.149 48.9732 51.3266 48.8844 51.4598C48.7956 51.593 48.618 51.6374 48.4848 51.5486C48.4848 51.5486 48.4404 51.5486 48.4404 51.5042C48.2628 51.4154 48.0408 51.371 47.8632 51.4598C47.2416 51.7706 46.7088 52.259 46.4424 52.925C46.176 54.035 46.4868 55.145 47.2416 55.9886C47.3748 56.1662 47.5968 56.2994 47.8188 56.3882C47.9964 56.4326 48.174 56.4326 48.3072 56.2994C48.5736 56.033 48.5736 55.6334 48.5736 55.1894C48.5736 54.5234 48.5292 53.6798 49.5504 53.3246C50.3052 53.1026 51.1488 53.4578 51.4596 54.2126C51.726 54.923 51.6372 55.6778 51.1488 56.2994C51.06 56.3882 50.9712 56.477 50.9268 56.5658C50.7048 56.8322 50.4828 57.0986 50.4828 57.3206C50.5272 57.4982 50.6604 57.6758 50.838 57.7646C51.1488 57.9422 51.504 57.9422 51.8592 57.809C52.2144 57.7202 52.4808 57.4538 52.614 57.143L52.6584 57.0098C52.8804 56.5658 53.1024 55.9886 53.5908 55.9886Z" fill="#231F20"/>
<path d="M82.6291 91.8643C82.6291 91.8643 75.7471 99.5455 53.9023 134.177C53.9023 134.177 92.1751 147.453 113.265 146.965L113.798 98.1247L82.6291 91.8643Z" fill="#231F20"/>
<path d="M112.154 147.275C91.0194 147.275 54.1674 134.576 53.8122 134.443C53.7234 134.399 53.679 134.354 53.6346 134.266C53.5902 134.177 53.6346 134.088 53.679 133.999C75.2574 99.7223 82.3614 91.7303 82.4502 91.6415C82.539 91.5527 82.6278 91.5527 82.7166 91.5527L113.885 97.8575C114.019 97.9019 114.107 97.9907 114.107 98.1239L113.575 146.964C113.575 147.097 113.441 147.23 113.308 147.23C112.864 147.275 112.509 147.275 112.154 147.275ZM54.3006 134.044C58.119 135.331 93.1506 147.053 112.953 146.698L113.486 98.3903L82.7166 92.1743C81.7842 93.2843 74.325 102.298 54.3006 134.044Z" fill="#231F20"/>
<path d="M100.165 178.221C100.165 178.31 110.244 178.221 110.244 178.221C110.244 178.221 111.399 175.957 112.287 175.868C113.175 175.779 122.854 178.621 122.765 180.219C122.676 181.818 99.3662 182.04 99.3662 182.04L100.165 178.221Z" fill="#231F20"/>
<path d="M99.3668 182.307C99.278 182.307 99.1892 182.262 99.1448 182.218C99.1004 182.129 99.056 182.085 99.1004 181.996L99.944 178.177C99.9884 178.044 100.077 177.955 100.255 177.955H100.299C100.788 178 106.338 177.955 110.112 177.955C110.422 177.334 111.399 175.691 112.287 175.602C113.175 175.513 120.901 177.733 122.677 179.421C122.943 179.598 123.076 179.909 123.076 180.22C123.076 180.664 123.032 181.463 111.088 181.996C105.316 182.218 99.4556 182.307 99.3668 182.307ZM100.432 178.488L99.722 181.729C110.334 181.596 121.878 181.019 122.499 180.131C122.499 180.131 122.455 180.042 122.233 179.82C120.59 178.266 112.953 176.091 112.287 176.135C111.799 176.179 110.955 177.423 110.511 178.311C110.467 178.399 110.378 178.444 110.245 178.488C103.674 178.533 101.276 178.577 100.432 178.488Z" fill="#231F20"/>
<path d="M39.0722 129.426L32.057 136.752L33.389 139.105C33.389 139.105 25.4414 142.213 24.3758 140.97C23.3102 139.727 36.053 127.028 36.053 127.028L39.0722 129.426Z" fill="#231F20"/>
<path d="M25.4402 141.503C24.9962 141.548 24.5078 141.414 24.1526 141.148C23.8418 140.793 23.309 140.171 29.5694 133.334C32.5886 130.048 35.7854 126.851 35.8298 126.807C35.9186 126.718 36.0962 126.718 36.2294 126.807L39.2486 129.204C39.293 129.249 39.3374 129.338 39.3374 129.426C39.3374 129.515 39.293 129.604 39.2486 129.648L32.411 136.797L33.6542 138.928C33.743 139.061 33.6542 139.239 33.521 139.328C33.521 139.328 33.521 139.328 33.4766 139.328C32.411 139.772 27.7934 141.503 25.4402 141.503ZM36.0518 127.384C30.1466 133.289 24.2414 139.86 24.5966 140.748C25.2182 141.459 29.7914 140.127 32.9882 138.884L31.8338 136.841C31.7894 136.752 31.7894 136.575 31.8782 136.486L38.6714 129.382L36.0518 127.384Z" fill="#231F20"/>
<path d="M106.827 56.1661C106.65 56.1661 106.517 56.1661 106.339 56.1217C105.273 55.8997 104.385 54.9673 103.719 53.3689C103.631 53.2357 103.719 53.0581 103.853 52.9693C103.986 52.8805 104.163 52.9693 104.252 53.1025C104.252 53.1025 104.252 53.1469 104.297 53.1469C104.874 54.5677 105.584 55.4113 106.472 55.5889C107.804 55.8553 109.047 54.5677 109.047 54.5677C109.136 54.4345 109.314 54.4345 109.447 54.5233C109.58 54.6121 109.58 54.7897 109.491 54.9229L109.447 54.9673C109.403 54.9673 108.248 56.1661 106.827 56.1661Z" fill="#231F20"/>
<path d="M105.627 48.751C105.494 48.751 105.405 48.6622 105.361 48.5734C105.272 48.2626 105.094 48.085 104.961 48.0406C104.606 47.9518 104.029 48.4846 103.896 48.6622C103.807 48.7954 103.585 48.7954 103.496 48.6622C103.363 48.5734 103.363 48.3958 103.452 48.2626C103.54 48.1738 104.295 47.3302 105.05 47.4634C105.494 47.5966 105.805 47.9074 105.894 48.3514C105.938 48.4846 105.849 48.6622 105.716 48.7066C105.716 48.751 105.672 48.751 105.627 48.751Z" fill="#231F20"/>
<path d="M110.2 49.4619C110.067 49.4619 109.978 49.3731 109.933 49.2843C109.8 48.8847 109.534 48.5739 109.179 48.3963C108.823 48.2631 108.557 48.8847 108.557 48.8847C108.513 49.0179 108.335 49.1067 108.202 49.0623C108.069 49.0179 107.98 48.8403 108.024 48.7071C108.202 48.3075 108.646 47.6415 109.356 47.8635C110.067 48.0855 110.466 49.0623 110.466 49.1067C110.511 49.2399 110.422 49.4175 110.289 49.4619C110.289 49.4619 110.244 49.4619 110.2 49.4619Z" fill="#231F20"/>
<path d="M93.0166 90.4876L71.3938 88.2676C71.3938 88.2676 63.0022 102.875 64.5562 106.694C66.1102 110.512 75.6118 114.242 82.3162 112.377C89.0206 110.512 93.0166 90.4876 93.0166 90.4876Z" fill="white"/>
<path d="M78.3209 113.176C72.2381 113.176 65.5781 110.113 64.2461 106.783C62.6477 102.876 70.7729 88.6675 71.1281 88.0903C71.1725 88.0015 71.3057 87.9127 71.3945 87.9571L93.0173 90.1771C93.1061 90.1771 93.1949 90.2215 93.2393 90.3103C93.2837 90.3991 93.3281 90.4435 93.2837 90.5323C93.1061 91.3759 89.1101 110.779 82.3169 112.644C81.0293 112.999 79.6973 113.176 78.3209 113.176ZM71.5277 88.5787C70.5953 90.2215 63.4025 103.186 64.7789 106.605C66.3329 110.379 75.7457 113.931 82.1837 112.111C88.1777 110.424 92.0849 93.3295 92.6621 90.7543L71.5277 88.5787Z" fill="#231F20"/>
<path d="M76.6352 98.5683C76.3244 98.5683 76.0136 98.5683 75.7028 98.5239C73.2608 98.1687 71.7068 96.2595 71.174 93.0183C70.952 91.4199 70.9076 89.8215 71.0852 88.2675C71.1296 88.0899 71.3072 88.0011 71.4404 88.0455C71.5736 88.0899 71.6624 88.2231 71.6624 88.3563C71.6624 88.4451 70.508 97.2363 75.7472 97.9911C81.164 98.7459 89.9108 91.7751 89.9996 91.7307C90.0884 91.5975 90.266 91.5531 90.3992 91.6863C90.5324 91.7751 90.5768 91.9527 90.4436 92.0859C90.3992 92.1303 90.3992 92.1303 90.3548 92.1747C90.044 92.3967 82.274 98.5683 76.6352 98.5683Z" fill="#231F20"/>
<path d="M76.9901 93.9512C76.5461 93.9512 76.1465 94.3064 76.1465 94.7948C76.1465 95.2388 76.5017 95.6384 76.9901 95.6384C77.4785 95.6384 77.8337 95.2832 77.8337 94.7948C77.7893 94.3508 77.4341 93.9512 76.9901 93.9512Z" fill="#231F20"/>
<path d="M91.9075 90.798C91.7299 90.798 91.5967 90.6648 91.5967 90.4872C91.5967 90.354 91.6411 90.2652 91.7743 90.2208C91.9519 90.132 109.046 80.364 111.932 65.0016C111.976 64.824 112.109 64.6908 112.287 64.7352C112.465 64.7796 112.598 64.9572 112.553 65.1348C109.623 80.808 92.2627 90.7092 92.0851 90.798C91.9963 90.798 91.9519 90.798 91.9075 90.798Z" fill="#231F20"/>
</svg>
